G75*
G70*
%OFA0B0*%
%FSLAX24Y24*%
%IPPOS*%
%LPD*%
%AMOC8*
5,1,8,0,0,1.08239X$1,22.5*
%
%ADD10C,0.0520*%
%ADD11C,0.0660*%
%ADD12OC8,0.0600*%
%ADD13OC8,0.0520*%
%ADD14C,0.0600*%
%ADD15C,0.0780*%
%ADD16C,0.0100*%
%ADD17C,0.0357*%
D10*
X009785Y002466D02*
X009785Y002986D01*
X010785Y002986D02*
X010785Y002466D01*
X011785Y002466D02*
X011785Y002986D01*
X012785Y002986D02*
X012785Y002466D01*
X013785Y002466D02*
X013785Y002986D01*
X014785Y002986D02*
X014785Y002466D01*
X015785Y002466D02*
X015785Y002986D01*
X016785Y002986D02*
X016785Y002466D01*
X016785Y005466D02*
X016785Y005986D01*
X015785Y005986D02*
X015785Y005466D01*
X014785Y005466D02*
X014785Y005986D01*
X013785Y005986D02*
X013785Y005466D01*
X012785Y005466D02*
X012785Y005986D01*
X011785Y005986D02*
X011785Y005466D01*
X010785Y005466D02*
X010785Y005986D01*
X009785Y005986D02*
X009785Y005466D01*
D11*
X010289Y009119D02*
X010949Y009119D01*
X010949Y010119D02*
X010289Y010119D01*
X010289Y011119D02*
X010949Y011119D01*
X011556Y016882D02*
X012216Y016882D01*
X012216Y017882D02*
X011556Y017882D01*
X011556Y018882D02*
X012216Y018882D01*
D12*
X025877Y021077D03*
X025997Y011399D03*
X021096Y009710D03*
X020096Y009710D03*
X020096Y008710D03*
X021096Y008710D03*
X021096Y007710D03*
X020096Y007710D03*
X020096Y006710D03*
X021096Y006710D03*
X021096Y005710D03*
X020096Y005710D03*
X025724Y004778D03*
D13*
X020911Y011555D03*
X019911Y011555D03*
X019911Y013455D03*
X020911Y013455D03*
X021292Y017476D03*
X024292Y017476D03*
X008966Y014679D03*
X008966Y013679D03*
X006486Y005009D03*
X006486Y004009D03*
D14*
X013253Y007903D02*
X013853Y007903D01*
X013853Y008903D02*
X013253Y008903D01*
X018072Y011340D02*
X018672Y011340D01*
X018672Y012340D02*
X018072Y012340D01*
X018072Y013340D02*
X018672Y013340D01*
X018672Y014340D02*
X018072Y014340D01*
X018072Y015340D02*
X018672Y015340D01*
X013065Y014852D02*
X012465Y014852D01*
X012465Y013852D02*
X013065Y013852D01*
X020964Y021662D02*
X021564Y021662D01*
X021564Y022662D02*
X020964Y022662D01*
X020964Y023662D02*
X021564Y023662D01*
X021646Y003017D02*
X021046Y003017D01*
X021046Y002017D02*
X021646Y002017D01*
X021646Y001017D02*
X021046Y001017D01*
D15*
X034796Y004810D02*
X035576Y004810D01*
X035576Y006780D02*
X034796Y006780D01*
X034796Y008750D02*
X035576Y008750D01*
X035586Y010955D02*
X034806Y010955D01*
X034806Y012925D02*
X035586Y012925D01*
X035586Y014895D02*
X034806Y014895D01*
X034817Y017101D02*
X035597Y017101D01*
X035597Y019071D02*
X034817Y019071D01*
X034817Y021041D02*
X035597Y021041D01*
D16*
X000321Y003686D02*
X000321Y000482D01*
X005099Y000482D01*
X005099Y001029D01*
X005099Y001170D01*
X005199Y001270D01*
X005986Y001270D01*
X006127Y001270D01*
X006227Y001170D01*
X006227Y000482D01*
X008643Y000482D01*
X008643Y001029D01*
X008643Y001170D01*
X008742Y001270D01*
X011104Y001270D01*
X011245Y001270D01*
X011345Y001170D01*
X011345Y000482D01*
X026359Y000482D01*
X026359Y001029D01*
X026359Y001170D01*
X026459Y001270D01*
X028821Y001270D01*
X028962Y001270D01*
X029061Y001170D01*
X029061Y000482D01*
X030690Y000482D01*
X030690Y002211D01*
X030690Y002351D01*
X030789Y002451D01*
X036202Y002451D01*
X036202Y023371D01*
X035514Y023371D01*
X035414Y023470D01*
X035414Y023611D01*
X035414Y024158D01*
X029061Y024158D01*
X029061Y023470D01*
X035414Y023470D01*
X035414Y023569D02*
X029061Y023569D01*
X029061Y023667D02*
X035414Y023667D01*
X035414Y023766D02*
X029061Y023766D01*
X029061Y023864D02*
X035414Y023864D01*
X035414Y023963D02*
X029061Y023963D01*
X029061Y024061D02*
X035414Y024061D01*
X035513Y023372D02*
X028963Y023372D01*
X028962Y023371D02*
X029061Y023470D01*
X028962Y023371D02*
X028821Y023371D01*
X026459Y023371D01*
X026359Y023470D01*
X021971Y023470D01*
X021945Y023407D02*
X022014Y023573D01*
X022014Y023612D01*
X021314Y023612D01*
X021314Y023712D01*
X022014Y023712D01*
X022014Y023752D01*
X021945Y023917D01*
X021819Y024044D01*
X021653Y024112D01*
X021314Y024112D01*
X021314Y023713D01*
X021214Y023713D01*
X021214Y024112D01*
X020874Y024112D01*
X020709Y024044D01*
X020582Y023917D01*
X020514Y023752D01*
X020514Y023712D01*
X021213Y023712D01*
X021213Y023612D01*
X020514Y023612D01*
X020514Y023573D01*
X020582Y023407D01*
X020709Y023281D01*
X020874Y023212D01*
X021214Y023212D01*
X021214Y023612D01*
X021314Y023612D01*
X021314Y023212D01*
X021653Y023212D01*
X021819Y023281D01*
X021945Y023407D01*
X021909Y023372D02*
X026458Y023372D01*
X026359Y023470D02*
X026359Y023611D01*
X026359Y024158D01*
X011345Y024158D01*
X011345Y023470D01*
X011245Y023371D01*
X011104Y023371D01*
X008742Y023371D01*
X008643Y023470D01*
X005439Y023470D01*
X005439Y023372D02*
X008741Y023372D01*
X008643Y023470D02*
X008643Y023611D01*
X008643Y024158D01*
X005439Y024158D01*
X005439Y022289D01*
X005340Y022190D01*
X005199Y022190D01*
X000321Y022190D01*
X000321Y004813D01*
X001403Y004813D01*
X001502Y004714D01*
X001502Y004573D01*
X001502Y003785D01*
X001403Y003686D01*
X001262Y003686D01*
X000321Y003686D01*
X000321Y003663D02*
X006252Y003663D01*
X006316Y003599D02*
X006656Y003599D01*
X006896Y003839D01*
X006896Y004179D01*
X006862Y004212D01*
X006934Y004212D01*
X008951Y006230D01*
X008951Y002895D01*
X008951Y002730D01*
X009068Y002612D01*
X009375Y002612D01*
X009375Y002384D01*
X009437Y002234D01*
X009553Y002118D01*
X009703Y002056D01*
X009867Y002056D01*
X010017Y002118D01*
X010133Y002234D01*
X010195Y002384D01*
X010195Y003067D01*
X010133Y003218D01*
X010017Y003333D01*
X009867Y003396D01*
X009703Y003396D01*
X009553Y003333D01*
X009437Y003218D01*
X009375Y003067D01*
X009375Y003012D01*
X009351Y003012D01*
X009351Y006230D01*
X009551Y006430D01*
X009551Y006332D01*
X009437Y006218D01*
X009375Y006067D01*
X009375Y005384D01*
X009437Y005234D01*
X009553Y005118D01*
X009703Y005056D01*
X009867Y005056D01*
X010017Y005118D01*
X010133Y005234D01*
X010195Y005384D01*
X010195Y006067D01*
X010133Y006218D01*
X010017Y006333D01*
X009951Y006361D01*
X009951Y006412D01*
X012187Y006412D01*
X012265Y006334D01*
X012386Y006284D01*
X012503Y006284D01*
X012437Y006218D01*
X012375Y006067D01*
X012375Y005756D01*
X012755Y005756D01*
X012755Y006396D01*
X012703Y006396D01*
X012696Y006393D01*
X012716Y006412D01*
X018368Y006412D01*
X019251Y005530D01*
X019368Y005412D01*
X019757Y005412D01*
X019910Y005260D01*
X020282Y005260D01*
X020546Y005524D01*
X020546Y005896D01*
X020430Y006012D01*
X020468Y006012D01*
X020568Y005912D01*
X020662Y005912D01*
X020646Y005896D01*
X020646Y005524D01*
X020910Y005260D01*
X021282Y005260D01*
X021546Y005524D01*
X021546Y005896D01*
X021282Y006160D01*
X021251Y006160D01*
X021251Y006195D01*
X021186Y006260D01*
X021282Y006260D01*
X021546Y006524D01*
X021546Y006896D01*
X021282Y007160D01*
X020910Y007160D01*
X020646Y006896D01*
X020646Y006524D01*
X020857Y006312D01*
X020734Y006312D01*
X020634Y006412D01*
X020435Y006412D01*
X020546Y006524D01*
X020546Y006660D01*
X020146Y006660D01*
X020146Y006760D01*
X020046Y006760D01*
X020046Y006660D01*
X019646Y006660D01*
X019646Y006524D01*
X019757Y006412D01*
X019734Y006412D01*
X018249Y007897D01*
X018337Y007934D01*
X018416Y008012D01*
X019762Y008012D01*
X019646Y007896D01*
X019646Y007760D01*
X020046Y007760D01*
X020046Y007660D01*
X020146Y007660D01*
X020146Y007260D01*
X020282Y007260D01*
X020546Y007524D01*
X020546Y007660D01*
X020146Y007660D01*
X020146Y007760D01*
X020546Y007760D01*
X020546Y007896D01*
X020430Y008012D01*
X020762Y008012D01*
X020646Y007896D01*
X020646Y007524D01*
X020910Y007260D01*
X021282Y007260D01*
X021435Y007412D01*
X025068Y007412D01*
X022868Y005212D01*
X018134Y005212D01*
X017434Y005912D01*
X017268Y005912D01*
X017195Y005912D01*
X017195Y006067D01*
X017133Y006218D01*
X017017Y006333D01*
X016867Y006396D01*
X016703Y006396D01*
X016553Y006333D01*
X016437Y006218D01*
X016375Y006067D01*
X016375Y005384D01*
X016437Y005234D01*
X016553Y005118D01*
X016703Y005056D01*
X016867Y005056D01*
X017017Y005118D01*
X017133Y005234D01*
X017195Y005384D01*
X017195Y005512D01*
X017268Y005512D01*
X017768Y005012D01*
X011634Y005012D01*
X011451Y005195D01*
X011451Y005220D01*
X011553Y005118D01*
X011703Y005056D01*
X011867Y005056D01*
X012017Y005118D01*
X012133Y005234D01*
X012195Y005384D01*
X012195Y006067D01*
X012133Y006218D01*
X012017Y006333D01*
X011867Y006396D01*
X011703Y006396D01*
X011553Y006333D01*
X011437Y006218D01*
X011375Y006067D01*
X011375Y005871D01*
X011334Y005912D01*
X011195Y005912D01*
X011195Y006067D01*
X011133Y006218D01*
X011017Y006333D01*
X010867Y006396D01*
X010703Y006396D01*
X010553Y006333D01*
X010437Y006218D01*
X010375Y006067D01*
X010375Y005384D01*
X010437Y005234D01*
X010553Y005118D01*
X010703Y005056D01*
X010867Y005056D01*
X011017Y005118D01*
X011051Y005152D01*
X011051Y005030D01*
X011468Y004612D01*
X011634Y004612D01*
X023534Y004612D01*
X023651Y004730D01*
X028206Y009284D01*
X028316Y009284D01*
X028327Y009288D01*
X028323Y009278D01*
X028323Y009167D01*
X023068Y003912D01*
X011534Y003912D01*
X011368Y003912D01*
X011068Y003612D01*
X010951Y003495D01*
X010951Y003361D01*
X010867Y003396D01*
X010703Y003396D01*
X010553Y003333D01*
X010437Y003218D01*
X010375Y003067D01*
X010375Y002384D01*
X010437Y002234D01*
X010553Y002118D01*
X010703Y002056D01*
X010867Y002056D01*
X011017Y002118D01*
X011133Y002234D01*
X011195Y002384D01*
X011195Y002612D01*
X011234Y002612D01*
X011351Y002730D01*
X011351Y002895D01*
X011351Y003330D01*
X011534Y003512D01*
X023234Y003512D01*
X023351Y003630D01*
X028606Y008884D01*
X028716Y008884D01*
X028837Y008934D01*
X028930Y009026D01*
X028966Y009115D01*
X029351Y008730D01*
X029468Y008612D01*
X034268Y008612D01*
X034338Y008444D01*
X034490Y008292D01*
X034688Y008210D01*
X035683Y008210D01*
X035881Y008292D01*
X036033Y008444D01*
X036115Y008642D01*
X036115Y008857D01*
X036033Y009055D01*
X035881Y009207D01*
X035683Y009289D01*
X034688Y009289D01*
X034490Y009207D01*
X034338Y009055D01*
X034320Y009012D01*
X029634Y009012D01*
X027180Y011467D01*
X027180Y011578D01*
X027130Y011698D01*
X027116Y011712D01*
X031834Y011712D01*
X031951Y011830D01*
X031951Y011995D01*
X031951Y013395D01*
X031834Y013512D01*
X031449Y013897D01*
X031537Y013934D01*
X031630Y014026D01*
X031680Y014147D01*
X031680Y014278D01*
X031630Y014398D01*
X031551Y014477D01*
X031551Y017895D01*
X031434Y018012D01*
X030434Y019012D01*
X030268Y019012D01*
X030116Y019012D01*
X030037Y019091D01*
X029949Y019127D01*
X031734Y020912D01*
X034286Y020912D01*
X034359Y020735D01*
X034511Y020583D01*
X034709Y020501D01*
X035704Y020501D01*
X035903Y020583D01*
X036055Y020735D01*
X036137Y020933D01*
X036137Y021148D01*
X036055Y021346D01*
X035903Y021498D01*
X035704Y021581D01*
X034709Y021581D01*
X034511Y021498D01*
X034359Y021346D01*
X034345Y021312D01*
X031568Y021312D01*
X031451Y021195D01*
X029168Y018912D01*
X028816Y018912D01*
X028830Y018926D01*
X028880Y019047D01*
X028880Y019178D01*
X028830Y019298D01*
X028737Y019391D01*
X028616Y019441D01*
X028506Y019441D01*
X027651Y020295D01*
X027534Y020412D01*
X022916Y020412D01*
X022837Y020491D01*
X022716Y020541D01*
X022586Y020541D01*
X022465Y020491D01*
X022373Y020398D01*
X022336Y020310D01*
X021551Y021095D01*
X021551Y021212D01*
X021653Y021212D01*
X021819Y021281D01*
X021945Y021407D01*
X022014Y021573D01*
X022014Y021752D01*
X021945Y021917D01*
X021819Y022044D01*
X021653Y022112D01*
X020874Y022112D01*
X020709Y022044D01*
X020582Y021917D01*
X020514Y021752D01*
X020514Y021573D01*
X020582Y021407D01*
X020709Y021281D01*
X020874Y021212D01*
X021151Y021212D01*
X021151Y020930D01*
X021268Y020812D01*
X022268Y019812D01*
X016134Y019812D01*
X014680Y021267D01*
X014680Y021378D01*
X014630Y021498D01*
X014537Y021591D01*
X014449Y021627D01*
X015134Y022312D01*
X020677Y022312D01*
X020709Y022281D01*
X020874Y022212D01*
X021653Y022212D01*
X021819Y022281D01*
X021945Y022407D01*
X022014Y022573D01*
X022014Y022752D01*
X021945Y022917D01*
X021819Y023044D01*
X021653Y023112D01*
X020874Y023112D01*
X020709Y023044D01*
X020582Y022917D01*
X020514Y022752D01*
X020514Y022712D01*
X015134Y022712D01*
X014968Y022712D01*
X011968Y019712D01*
X011851Y019595D01*
X011851Y019362D01*
X011460Y019362D01*
X011284Y019289D01*
X011149Y019154D01*
X011076Y018978D01*
X011076Y018787D01*
X011149Y018610D01*
X011284Y018475D01*
X011460Y018402D01*
X012311Y018402D01*
X012488Y018475D01*
X012623Y018610D01*
X012696Y018787D01*
X012696Y018978D01*
X012623Y019154D01*
X012488Y019289D01*
X012311Y019362D01*
X012251Y019362D01*
X012251Y019430D01*
X013751Y019430D01*
X013652Y019528D02*
X012350Y019528D01*
X012251Y019430D02*
X012936Y020115D01*
X012973Y020026D01*
X013065Y019934D01*
X013186Y019884D01*
X013297Y019884D01*
X013968Y019212D01*
X014134Y019212D01*
X019023Y019212D01*
X019023Y019147D01*
X019073Y019026D01*
X019087Y019012D01*
X017216Y019012D01*
X017137Y019091D01*
X017016Y019141D01*
X016886Y019141D01*
X016765Y019091D01*
X016673Y018998D01*
X016623Y018878D01*
X016623Y018747D01*
X016673Y018626D01*
X016765Y018534D01*
X016886Y018484D01*
X017016Y018484D01*
X017137Y018534D01*
X017216Y018612D01*
X024068Y018612D01*
X024368Y018312D01*
X022634Y018312D01*
X022468Y018312D01*
X021868Y017712D01*
X021636Y017712D01*
X021462Y017886D01*
X021122Y017886D01*
X020882Y017646D01*
X020882Y017306D01*
X021122Y017066D01*
X021462Y017066D01*
X021702Y017306D01*
X021702Y017312D01*
X022034Y017312D01*
X022151Y017430D01*
X022634Y017912D01*
X024468Y017912D01*
X024623Y017758D01*
X024623Y017725D01*
X024462Y017886D01*
X024122Y017886D01*
X023882Y017646D01*
X023882Y017306D01*
X023951Y017237D01*
X023951Y017230D01*
X023951Y015995D01*
X022866Y014910D01*
X022830Y014998D01*
X022737Y015091D01*
X022616Y015141D01*
X022486Y015141D01*
X022365Y015091D01*
X022273Y014998D01*
X022223Y014878D01*
X022223Y014767D01*
X021968Y014512D01*
X019088Y014512D01*
X019054Y014595D01*
X018927Y014721D01*
X018762Y014790D01*
X017983Y014790D01*
X017817Y014721D01*
X017691Y014595D01*
X017622Y014429D01*
X017622Y014250D01*
X017691Y014085D01*
X017817Y013958D01*
X017983Y013890D01*
X018762Y013890D01*
X018927Y013958D01*
X019054Y014085D01*
X019065Y014112D01*
X021937Y014112D01*
X021923Y014078D01*
X021923Y013947D01*
X021973Y013826D01*
X021987Y013812D01*
X021133Y013812D01*
X021081Y013865D01*
X020741Y013865D01*
X020501Y013625D01*
X020501Y013285D01*
X020741Y013045D01*
X021081Y013045D01*
X021321Y013285D01*
X021321Y013412D01*
X021468Y013412D01*
X021068Y013012D01*
X019634Y013012D01*
X019451Y013195D01*
X019334Y013312D01*
X019122Y013312D01*
X019122Y013429D01*
X019054Y013595D01*
X018927Y013721D01*
X018762Y013790D01*
X017983Y013790D01*
X017817Y013721D01*
X017691Y013595D01*
X017622Y013429D01*
X017622Y013250D01*
X017691Y013085D01*
X017817Y012958D01*
X017983Y012890D01*
X018762Y012890D01*
X018816Y012912D01*
X019168Y012912D01*
X019468Y012612D01*
X019634Y012612D01*
X021234Y012612D01*
X021351Y012730D01*
X021834Y013212D01*
X023168Y013212D01*
X022563Y012607D01*
X022580Y012647D01*
X022580Y012778D01*
X022530Y012898D01*
X022437Y012991D01*
X022316Y013041D01*
X022186Y013041D01*
X022065Y012991D01*
X021973Y012898D01*
X021923Y012778D01*
X021923Y012667D01*
X021668Y012412D01*
X019734Y012412D01*
X019568Y012412D01*
X019068Y011912D01*
X018951Y011795D01*
X018951Y011712D01*
X018936Y011712D01*
X018927Y011721D01*
X018762Y011790D01*
X017983Y011790D01*
X017817Y011721D01*
X017691Y011595D01*
X017622Y011429D01*
X017622Y011306D01*
X017537Y011391D01*
X017416Y011441D01*
X017286Y011441D01*
X017165Y011391D01*
X017073Y011298D01*
X017023Y011178D01*
X017023Y011047D01*
X017073Y010926D01*
X017137Y010862D01*
X017073Y010798D01*
X017023Y010678D01*
X017023Y010547D01*
X017039Y010507D01*
X015080Y012467D01*
X015080Y012578D01*
X015030Y012698D01*
X014937Y012791D01*
X014849Y012827D01*
X017834Y015812D01*
X018534Y015812D01*
X018651Y015930D01*
X019536Y016815D01*
X019573Y016726D01*
X019665Y016634D01*
X019786Y016584D01*
X019916Y016584D01*
X020037Y016634D01*
X020116Y016712D01*
X020868Y016712D01*
X022023Y015558D01*
X022023Y015447D01*
X022073Y015326D01*
X022165Y015234D01*
X022286Y015184D01*
X022416Y015184D01*
X022537Y015234D01*
X022630Y015326D01*
X022680Y015447D01*
X022680Y015578D01*
X022630Y015698D01*
X022537Y015791D01*
X022416Y015841D01*
X022306Y015841D01*
X021151Y016995D01*
X021034Y017112D01*
X020116Y017112D01*
X020037Y017191D01*
X019949Y017227D01*
X020606Y017884D01*
X020716Y017884D01*
X020837Y017934D01*
X020930Y018026D01*
X020980Y018147D01*
X020980Y018278D01*
X020930Y018398D01*
X020837Y018491D01*
X020716Y018541D01*
X020586Y018541D01*
X020465Y018491D01*
X020373Y018398D01*
X020323Y018278D01*
X020323Y018167D01*
X018368Y016212D01*
X017834Y016212D01*
X017668Y016212D01*
X012068Y010612D01*
X011951Y010495D01*
X011951Y009777D01*
X011951Y014512D01*
X012168Y014512D01*
X012210Y014470D01*
X012376Y014402D01*
X013155Y014402D01*
X013320Y014470D01*
X013447Y014597D01*
X013515Y014762D01*
X013515Y014941D01*
X013447Y015107D01*
X013320Y015233D01*
X013155Y015302D01*
X012376Y015302D01*
X012210Y015233D01*
X012084Y015107D01*
X012015Y014941D01*
X012015Y014912D01*
X011668Y014912D01*
X011551Y014795D01*
X011551Y014630D01*
X011551Y009777D01*
X011473Y009698D01*
X011423Y009578D01*
X011423Y009447D01*
X011473Y009326D01*
X011565Y009234D01*
X011686Y009184D01*
X011816Y009184D01*
X011937Y009234D01*
X011951Y009248D01*
X011951Y007012D01*
X009734Y007012D01*
X010534Y007812D01*
X010651Y007930D01*
X010651Y008639D01*
X011044Y008639D01*
X011220Y008712D01*
X011355Y008847D01*
X011429Y009023D01*
X011429Y009214D01*
X011355Y009391D01*
X011220Y009526D01*
X011044Y009599D01*
X010193Y009599D01*
X010017Y009526D01*
X009882Y009391D01*
X009809Y009214D01*
X009809Y009023D01*
X009882Y008847D01*
X010017Y008712D01*
X010193Y008639D01*
X010251Y008639D01*
X010251Y008095D01*
X006768Y004612D01*
X006669Y004612D01*
X006896Y004839D01*
X006896Y004979D01*
X006516Y004979D01*
X006516Y005039D01*
X006896Y005039D01*
X006896Y005179D01*
X006656Y005419D01*
X006516Y005419D01*
X006516Y005040D01*
X006456Y005040D01*
X006456Y005419D01*
X006316Y005419D01*
X006076Y005179D01*
X006076Y005039D01*
X006456Y005039D01*
X006456Y004979D01*
X006076Y004979D01*
X006076Y004839D01*
X006316Y004599D01*
X006455Y004599D01*
X006351Y004495D01*
X006351Y004419D01*
X006316Y004419D01*
X006076Y004179D01*
X006076Y003839D01*
X006316Y003599D01*
X006154Y003761D02*
X001478Y003761D01*
X001502Y003860D02*
X006076Y003860D01*
X006076Y003959D02*
X001502Y003959D01*
X001502Y004057D02*
X006076Y004057D01*
X006076Y004156D02*
X001502Y004156D01*
X001502Y004254D02*
X006151Y004254D01*
X006249Y004353D02*
X001502Y004353D01*
X001502Y004451D02*
X006351Y004451D01*
X006406Y004550D02*
X001502Y004550D01*
X001502Y004648D02*
X006267Y004648D01*
X006168Y004747D02*
X001469Y004747D01*
X000321Y004845D02*
X006076Y004845D01*
X006076Y004944D02*
X000321Y004944D01*
X000321Y005043D02*
X006076Y005043D01*
X006076Y005141D02*
X000321Y005141D01*
X000321Y005240D02*
X006136Y005240D01*
X006235Y005338D02*
X000321Y005338D01*
X000321Y005437D02*
X007593Y005437D01*
X007691Y005535D02*
X000321Y005535D01*
X000321Y005634D02*
X007790Y005634D01*
X007888Y005732D02*
X000321Y005732D01*
X000321Y005831D02*
X007987Y005831D01*
X008085Y005929D02*
X000321Y005929D01*
X000321Y006028D02*
X008184Y006028D01*
X008282Y006126D02*
X000321Y006126D01*
X000321Y006225D02*
X008381Y006225D01*
X008479Y006324D02*
X000321Y006324D01*
X000321Y006422D02*
X008578Y006422D01*
X008677Y006521D02*
X000321Y006521D01*
X000321Y006619D02*
X008775Y006619D01*
X008874Y006718D02*
X000321Y006718D01*
X000321Y006816D02*
X008972Y006816D01*
X009071Y006915D02*
X000321Y006915D01*
X000321Y007013D02*
X009169Y007013D01*
X009268Y007112D02*
X000321Y007112D01*
X000321Y007210D02*
X009366Y007210D01*
X009465Y007309D02*
X000321Y007309D01*
X000321Y007408D02*
X009563Y007408D01*
X009662Y007506D02*
X000321Y007506D01*
X000321Y007605D02*
X009761Y007605D01*
X009859Y007703D02*
X000321Y007703D01*
X000321Y007802D02*
X009958Y007802D01*
X010056Y007900D02*
X000321Y007900D01*
X000321Y007999D02*
X010155Y007999D01*
X010251Y008097D02*
X000321Y008097D01*
X000321Y008196D02*
X010251Y008196D01*
X010251Y008294D02*
X000321Y008294D01*
X000321Y008393D02*
X010251Y008393D01*
X010251Y008492D02*
X000321Y008492D01*
X000321Y008590D02*
X001906Y008590D01*
X001961Y008568D02*
X002279Y008568D01*
X002573Y008689D01*
X002798Y008914D01*
X002920Y009208D01*
X002920Y009527D01*
X002798Y009821D01*
X002573Y010046D01*
X002279Y010167D01*
X001961Y010167D01*
X001667Y010046D01*
X001442Y009821D01*
X001320Y009527D01*
X001320Y009208D01*
X001442Y008914D01*
X001667Y008689D01*
X001961Y008568D01*
X001668Y008689D02*
X000321Y008689D01*
X000321Y008787D02*
X001569Y008787D01*
X001470Y008886D02*
X000321Y008886D01*
X000321Y008984D02*
X001413Y008984D01*
X001372Y009083D02*
X000321Y009083D01*
X000321Y009181D02*
X001331Y009181D01*
X001320Y009280D02*
X000321Y009280D01*
X000321Y009378D02*
X001320Y009378D01*
X001320Y009477D02*
X000321Y009477D01*
X000321Y009576D02*
X001340Y009576D01*
X001381Y009674D02*
X000321Y009674D01*
X000321Y009773D02*
X001422Y009773D01*
X001492Y009871D02*
X000321Y009871D01*
X000321Y009970D02*
X001591Y009970D01*
X001721Y010068D02*
X000321Y010068D01*
X000321Y010167D02*
X001959Y010167D01*
X002280Y010167D02*
X003669Y010167D01*
X003669Y010257D02*
X003669Y009980D01*
X003740Y009713D01*
X003878Y009474D01*
X004074Y009279D01*
X004313Y009140D01*
X004580Y009069D01*
X004857Y009069D01*
X005124Y009140D01*
X005363Y009279D01*
X005559Y009474D01*
X005697Y009713D01*
X005769Y009980D01*
X005769Y010257D01*
X005697Y010524D01*
X005559Y010763D01*
X005363Y010959D01*
X005124Y011097D01*
X004857Y011169D01*
X004580Y011169D01*
X004313Y011097D01*
X004074Y010959D01*
X003878Y010763D01*
X003740Y010524D01*
X003669Y010257D01*
X003671Y010265D02*
X000321Y010265D01*
X000321Y010364D02*
X003697Y010364D01*
X003724Y010462D02*
X000321Y010462D01*
X000321Y010561D02*
X003761Y010561D01*
X003818Y010659D02*
X000321Y010659D01*
X000321Y010758D02*
X003875Y010758D01*
X003971Y010857D02*
X000321Y010857D01*
X000321Y010955D02*
X004070Y010955D01*
X004238Y011054D02*
X000321Y011054D01*
X000321Y011152D02*
X004519Y011152D01*
X004918Y011152D02*
X009809Y011152D01*
X009809Y011214D02*
X009809Y011023D01*
X009882Y010847D01*
X010017Y010712D01*
X010193Y010639D01*
X011044Y010639D01*
X011220Y010712D01*
X011355Y010847D01*
X011429Y011023D01*
X011429Y011214D01*
X011355Y011391D01*
X011220Y011526D01*
X011044Y011599D01*
X010193Y011599D01*
X010017Y011526D01*
X009882Y011391D01*
X009809Y011214D01*
X009824Y011251D02*
X000321Y011251D01*
X000321Y011349D02*
X009865Y011349D01*
X009939Y011448D02*
X000321Y011448D01*
X000321Y011546D02*
X010067Y011546D01*
X009809Y011054D02*
X005199Y011054D01*
X005367Y010955D02*
X009837Y010955D01*
X009878Y010857D02*
X005466Y010857D01*
X005562Y010758D02*
X009970Y010758D01*
X010143Y010659D02*
X005619Y010659D01*
X005676Y010561D02*
X010102Y010561D01*
X010017Y010526D02*
X010193Y010599D01*
X010569Y010599D01*
X010569Y010169D01*
X010669Y010169D01*
X011429Y010169D01*
X011429Y010214D01*
X011355Y010391D01*
X011220Y010526D01*
X011044Y010599D01*
X010669Y010599D01*
X010669Y010169D01*
X010669Y010069D01*
X011429Y010069D01*
X011429Y010023D01*
X011355Y009847D01*
X011220Y009712D01*
X011044Y009639D01*
X010669Y009639D01*
X010669Y010069D01*
X010569Y010069D01*
X010569Y009639D01*
X010193Y009639D01*
X010017Y009712D01*
X009882Y009847D01*
X009809Y010023D01*
X009809Y010069D01*
X010568Y010069D01*
X010568Y010169D01*
X009809Y010169D01*
X009809Y010214D01*
X009882Y010391D01*
X010017Y010526D01*
X009953Y010462D02*
X005714Y010462D01*
X005740Y010364D02*
X009871Y010364D01*
X009830Y010265D02*
X005766Y010265D01*
X005769Y010167D02*
X010568Y010167D01*
X010569Y010265D02*
X010669Y010265D01*
X010669Y010167D02*
X011551Y010167D01*
X011551Y010265D02*
X011407Y010265D01*
X011367Y010364D02*
X011551Y010364D01*
X011551Y010462D02*
X011284Y010462D01*
X011135Y010561D02*
X011551Y010561D01*
X011551Y010659D02*
X011094Y010659D01*
X011267Y010758D02*
X011551Y010758D01*
X011551Y010857D02*
X011359Y010857D01*
X011400Y010955D02*
X011551Y010955D01*
X011551Y011054D02*
X011429Y011054D01*
X011429Y011152D02*
X011551Y011152D01*
X011551Y011251D02*
X011413Y011251D01*
X011373Y011349D02*
X011551Y011349D01*
X011551Y011448D02*
X011298Y011448D01*
X011170Y011546D02*
X011551Y011546D01*
X011551Y011645D02*
X000321Y011645D01*
X000321Y011743D02*
X011551Y011743D01*
X011551Y011842D02*
X000321Y011842D01*
X000321Y011941D02*
X011551Y011941D01*
X011551Y012039D02*
X000321Y012039D01*
X000321Y012138D02*
X011551Y012138D01*
X011551Y012236D02*
X000321Y012236D01*
X000321Y012335D02*
X011551Y012335D01*
X011551Y012433D02*
X000321Y012433D01*
X000321Y012532D02*
X011551Y012532D01*
X011551Y012630D02*
X000321Y012630D01*
X000321Y012729D02*
X011551Y012729D01*
X011551Y012827D02*
X000321Y012827D01*
X000321Y012926D02*
X011551Y012926D01*
X011551Y013025D02*
X000321Y013025D01*
X000321Y013123D02*
X011551Y013123D01*
X011551Y013222D02*
X000321Y013222D01*
X000321Y013320D02*
X008745Y013320D01*
X008796Y013269D02*
X009136Y013269D01*
X009376Y013509D01*
X009376Y013812D01*
X009468Y013812D01*
X009634Y013812D01*
X011834Y016012D01*
X011951Y016130D01*
X011951Y016402D01*
X012311Y016402D01*
X012488Y016475D01*
X012623Y016610D01*
X012696Y016787D01*
X012696Y016978D01*
X012623Y017154D01*
X012488Y017289D01*
X012311Y017362D01*
X011460Y017362D01*
X011284Y017289D01*
X011149Y017154D01*
X011076Y016978D01*
X011076Y016787D01*
X011149Y016610D01*
X011284Y016475D01*
X011460Y016402D01*
X011551Y016402D01*
X011551Y016295D01*
X009468Y014212D01*
X008968Y014212D01*
X008851Y014095D01*
X008851Y014089D01*
X008796Y014089D01*
X008556Y013848D01*
X008556Y013509D01*
X008796Y013269D01*
X008646Y013419D02*
X000321Y013419D01*
X000321Y013517D02*
X008556Y013517D01*
X008556Y013616D02*
X000321Y013616D01*
X000321Y013714D02*
X008556Y013714D01*
X008556Y013813D02*
X000321Y013813D01*
X000321Y013911D02*
X008619Y013911D01*
X008718Y014010D02*
X000321Y014010D01*
X000321Y014109D02*
X008864Y014109D01*
X008963Y014207D02*
X000321Y014207D01*
X000321Y014306D02*
X008759Y014306D01*
X008796Y014269D02*
X008556Y014509D01*
X008556Y014649D01*
X008936Y014649D01*
X008936Y014709D01*
X008936Y015089D01*
X008796Y015089D01*
X008556Y014848D01*
X008556Y014709D01*
X008936Y014709D01*
X008996Y014709D01*
X008996Y015089D01*
X009136Y015089D01*
X009376Y014848D01*
X009376Y014709D01*
X008996Y014709D01*
X008996Y014649D01*
X009376Y014649D01*
X009376Y014509D01*
X009136Y014269D01*
X008996Y014269D01*
X008996Y014648D01*
X008936Y014648D01*
X008936Y014269D01*
X008796Y014269D01*
X008936Y014306D02*
X008996Y014306D01*
X008996Y014404D02*
X008936Y014404D01*
X008936Y014503D02*
X008996Y014503D01*
X008996Y014601D02*
X008936Y014601D01*
X008936Y014700D02*
X000321Y014700D01*
X000321Y014798D02*
X008556Y014798D01*
X008605Y014897D02*
X000321Y014897D01*
X000321Y014995D02*
X008703Y014995D01*
X008936Y014995D02*
X008996Y014995D01*
X008996Y014897D02*
X008936Y014897D01*
X008936Y014798D02*
X008996Y014798D01*
X008996Y014700D02*
X009956Y014700D01*
X010054Y014798D02*
X009376Y014798D01*
X009328Y014897D02*
X010153Y014897D01*
X010251Y014995D02*
X009229Y014995D01*
X009376Y014601D02*
X009857Y014601D01*
X009759Y014503D02*
X009370Y014503D01*
X009271Y014404D02*
X009660Y014404D01*
X009561Y014306D02*
X009173Y014306D01*
X009051Y014012D02*
X009551Y014012D01*
X011751Y016212D01*
X011751Y016812D01*
X011851Y016812D01*
X011886Y016882D01*
X012484Y016474D02*
X018629Y016474D01*
X018728Y016572D02*
X012585Y016572D01*
X012648Y016671D02*
X018827Y016671D01*
X018925Y016769D02*
X012689Y016769D01*
X012696Y016868D02*
X019024Y016868D01*
X019122Y016966D02*
X012696Y016966D01*
X012660Y017065D02*
X019221Y017065D01*
X019319Y017163D02*
X012613Y017163D01*
X012515Y017262D02*
X019418Y017262D01*
X019516Y017360D02*
X012315Y017360D01*
X012311Y017402D02*
X011936Y017402D01*
X011936Y017832D01*
X011936Y017932D01*
X012696Y017932D01*
X012696Y017978D01*
X012623Y018154D01*
X012488Y018289D01*
X012311Y018362D01*
X011936Y018362D01*
X011936Y017932D01*
X011836Y017932D01*
X011836Y018362D01*
X011460Y018362D01*
X011284Y018289D01*
X011149Y018154D01*
X011076Y017978D01*
X011076Y017932D01*
X011836Y017932D01*
X011836Y017832D01*
X011936Y017832D01*
X012696Y017832D01*
X012696Y017787D01*
X012623Y017610D01*
X012488Y017475D01*
X012311Y017402D01*
X012449Y017459D02*
X019615Y017459D01*
X019713Y017558D02*
X012570Y017558D01*
X012642Y017656D02*
X019812Y017656D01*
X019911Y017755D02*
X012683Y017755D01*
X012696Y017952D02*
X020108Y017952D01*
X020206Y018050D02*
X012666Y018050D01*
X012625Y018149D02*
X020305Y018149D01*
X020323Y018247D02*
X012529Y018247D01*
X012350Y018346D02*
X020351Y018346D01*
X020419Y018444D02*
X012414Y018444D01*
X012556Y018543D02*
X016756Y018543D01*
X016666Y018641D02*
X012636Y018641D01*
X012677Y018740D02*
X016626Y018740D01*
X016623Y018839D02*
X012696Y018839D01*
X012696Y018937D02*
X016647Y018937D01*
X016710Y019036D02*
X012672Y019036D01*
X012631Y019134D02*
X016870Y019134D01*
X017032Y019134D02*
X019028Y019134D01*
X019069Y019036D02*
X017192Y019036D01*
X016951Y018812D02*
X024151Y018812D01*
X024751Y018212D01*
X027151Y018212D01*
X028051Y019112D01*
X027806Y019331D02*
X027797Y019331D01*
X027801Y019327D02*
X027737Y019391D01*
X027616Y019441D01*
X027506Y019441D01*
X027051Y019895D01*
X026934Y020012D01*
X022916Y020012D01*
X027368Y020012D01*
X027953Y019427D01*
X027865Y019391D01*
X027801Y019327D01*
X027951Y019430D02*
X027643Y019430D01*
X027754Y019627D02*
X027319Y019627D01*
X027221Y019725D02*
X027655Y019725D01*
X027557Y019824D02*
X027122Y019824D01*
X027024Y019923D02*
X027458Y019923D01*
X027451Y020212D02*
X022651Y020212D01*
X022521Y020514D02*
X022133Y020514D01*
X022231Y020415D02*
X022390Y020415D01*
X022339Y020317D02*
X022330Y020317D01*
X022060Y020021D02*
X015925Y020021D01*
X015827Y020120D02*
X021961Y020120D01*
X021863Y020218D02*
X015728Y020218D01*
X015630Y020317D02*
X021764Y020317D01*
X021665Y020415D02*
X015531Y020415D01*
X015433Y020514D02*
X021567Y020514D01*
X021468Y020612D02*
X015334Y020612D01*
X015236Y020711D02*
X021370Y020711D01*
X021271Y020809D02*
X015137Y020809D01*
X015038Y020908D02*
X021173Y020908D01*
X021151Y021007D02*
X014940Y021007D01*
X014841Y021105D02*
X021151Y021105D01*
X021151Y021204D02*
X014743Y021204D01*
X014680Y021302D02*
X020687Y021302D01*
X020589Y021401D02*
X014670Y021401D01*
X014629Y021499D02*
X020544Y021499D01*
X020514Y021598D02*
X014520Y021598D01*
X014518Y021696D02*
X020514Y021696D01*
X020531Y021795D02*
X014616Y021795D01*
X014715Y021893D02*
X020572Y021893D01*
X020657Y021992D02*
X014814Y021992D01*
X014912Y022091D02*
X020821Y022091D01*
X020702Y022288D02*
X015109Y022288D01*
X015011Y022189D02*
X036202Y022189D01*
X036202Y022091D02*
X021706Y022091D01*
X021870Y021992D02*
X036202Y021992D01*
X036202Y021893D02*
X021955Y021893D01*
X021996Y021795D02*
X036202Y021795D01*
X036202Y021696D02*
X022014Y021696D01*
X022014Y021598D02*
X036202Y021598D01*
X036202Y021499D02*
X035901Y021499D01*
X036000Y021401D02*
X036202Y021401D01*
X036202Y021302D02*
X036073Y021302D01*
X036114Y021204D02*
X036202Y021204D01*
X036202Y021105D02*
X036137Y021105D01*
X036137Y021007D02*
X036202Y021007D01*
X036202Y020908D02*
X036126Y020908D01*
X036086Y020809D02*
X036202Y020809D01*
X036202Y020711D02*
X036031Y020711D01*
X035932Y020612D02*
X036202Y020612D01*
X036202Y020514D02*
X035736Y020514D01*
X036202Y020415D02*
X031237Y020415D01*
X031138Y020317D02*
X036202Y020317D01*
X036202Y020218D02*
X031040Y020218D01*
X030941Y020120D02*
X036202Y020120D01*
X036202Y020021D02*
X030843Y020021D01*
X030744Y019923D02*
X036202Y019923D01*
X036202Y019824D02*
X030646Y019824D01*
X030547Y019725D02*
X036202Y019725D01*
X036202Y019627D02*
X030449Y019627D01*
X030350Y019528D02*
X034511Y019528D01*
X034359Y019376D01*
X034277Y019178D01*
X034277Y019120D01*
X035157Y019120D01*
X035157Y019021D01*
X034277Y019021D01*
X034277Y018963D01*
X034359Y018765D01*
X034511Y018613D01*
X034709Y018531D01*
X035157Y018531D01*
X035157Y019020D01*
X035257Y019020D01*
X035257Y018531D01*
X035704Y018531D01*
X035903Y018613D01*
X036055Y018765D01*
X036137Y018963D01*
X036137Y019021D01*
X035257Y019021D01*
X035257Y019120D01*
X036137Y019120D01*
X036137Y019178D01*
X036055Y019376D01*
X035903Y019528D01*
X035704Y019611D01*
X035257Y019611D01*
X035257Y019121D01*
X035157Y019121D01*
X035157Y019611D01*
X034709Y019611D01*
X034511Y019528D01*
X034413Y019430D02*
X030251Y019430D01*
X030153Y019331D02*
X034340Y019331D01*
X034300Y019233D02*
X030054Y019233D01*
X029956Y019134D02*
X034277Y019134D01*
X034288Y018937D02*
X030509Y018937D01*
X030608Y018839D02*
X034329Y018839D01*
X034384Y018740D02*
X030706Y018740D01*
X030805Y018641D02*
X034482Y018641D01*
X034680Y018543D02*
X030903Y018543D01*
X031002Y018444D02*
X036202Y018444D01*
X036202Y018346D02*
X031101Y018346D01*
X031199Y018247D02*
X036202Y018247D01*
X036202Y018149D02*
X031298Y018149D01*
X031396Y018050D02*
X036202Y018050D01*
X036202Y017952D02*
X031495Y017952D01*
X031551Y017853D02*
X036202Y017853D01*
X036202Y017755D02*
X031551Y017755D01*
X031551Y017656D02*
X036202Y017656D01*
X036202Y017558D02*
X035904Y017558D01*
X035903Y017558D02*
X035704Y017641D01*
X034709Y017641D01*
X034511Y017558D01*
X034359Y017406D01*
X034277Y017208D01*
X034277Y016993D01*
X034359Y016795D01*
X034511Y016643D01*
X034709Y016561D01*
X035704Y016561D01*
X035903Y016643D01*
X036055Y016795D01*
X036137Y016993D01*
X036137Y017208D01*
X036055Y017406D01*
X035903Y017558D01*
X036002Y017459D02*
X036202Y017459D01*
X036202Y017360D02*
X036074Y017360D01*
X036115Y017262D02*
X036202Y017262D01*
X036202Y017163D02*
X036137Y017163D01*
X036137Y017065D02*
X036202Y017065D01*
X036202Y016966D02*
X036126Y016966D01*
X036085Y016868D02*
X036202Y016868D01*
X036202Y016769D02*
X036029Y016769D01*
X035931Y016671D02*
X036202Y016671D01*
X036202Y016572D02*
X035732Y016572D01*
X036202Y016474D02*
X031551Y016474D01*
X031551Y016572D02*
X034682Y016572D01*
X034483Y016671D02*
X031551Y016671D01*
X031551Y016769D02*
X034385Y016769D01*
X034329Y016868D02*
X031551Y016868D01*
X031551Y016966D02*
X034288Y016966D01*
X034277Y017065D02*
X031551Y017065D01*
X031551Y017163D02*
X034277Y017163D01*
X034299Y017262D02*
X031551Y017262D01*
X031551Y017360D02*
X034340Y017360D01*
X034412Y017459D02*
X031551Y017459D01*
X031551Y017558D02*
X034510Y017558D01*
X035157Y018543D02*
X035257Y018543D01*
X035257Y018641D02*
X035157Y018641D01*
X035157Y018740D02*
X035257Y018740D01*
X035257Y018839D02*
X035157Y018839D01*
X035157Y018937D02*
X035257Y018937D01*
X035257Y019036D02*
X036202Y019036D01*
X036202Y019134D02*
X036137Y019134D01*
X036114Y019233D02*
X036202Y019233D01*
X036202Y019331D02*
X036073Y019331D01*
X036001Y019430D02*
X036202Y019430D01*
X036202Y019528D02*
X035903Y019528D01*
X036126Y018937D02*
X036202Y018937D01*
X036202Y018839D02*
X036085Y018839D01*
X036030Y018740D02*
X036202Y018740D01*
X036202Y018641D02*
X035932Y018641D01*
X035734Y018543D02*
X036202Y018543D01*
X035257Y019134D02*
X035157Y019134D01*
X035157Y019036D02*
X030092Y019036D01*
X029851Y018812D02*
X030351Y018812D01*
X031351Y017812D01*
X031351Y014212D01*
X031680Y014207D02*
X036202Y014207D01*
X036202Y014109D02*
X031664Y014109D01*
X031613Y014010D02*
X036202Y014010D01*
X036202Y013911D02*
X031483Y013911D01*
X031534Y013813D02*
X036202Y013813D01*
X036202Y013714D02*
X031632Y013714D01*
X031731Y013616D02*
X036202Y013616D01*
X036202Y013517D02*
X031829Y013517D01*
X031928Y013419D02*
X034587Y013419D01*
X034500Y013383D02*
X034699Y013465D01*
X035694Y013465D01*
X035892Y013383D01*
X036044Y013231D01*
X036126Y013032D01*
X036126Y012818D01*
X036044Y012619D01*
X035892Y012467D01*
X035694Y012385D01*
X034699Y012385D01*
X034500Y012467D01*
X034348Y012619D01*
X034266Y012818D01*
X034266Y013032D01*
X034348Y013231D01*
X034500Y013383D01*
X034438Y013320D02*
X031951Y013320D01*
X031951Y013222D02*
X034345Y013222D01*
X034304Y013123D02*
X031951Y013123D01*
X031951Y013025D02*
X034266Y013025D01*
X034266Y012926D02*
X031951Y012926D01*
X031951Y012827D02*
X034266Y012827D01*
X034303Y012729D02*
X031951Y012729D01*
X031951Y012630D02*
X034344Y012630D01*
X034436Y012532D02*
X031951Y012532D01*
X031951Y012433D02*
X034582Y012433D01*
X035810Y012433D02*
X036202Y012433D01*
X036202Y012335D02*
X031951Y012335D01*
X031951Y012236D02*
X036202Y012236D01*
X036202Y012138D02*
X031951Y012138D01*
X031951Y012039D02*
X036202Y012039D01*
X036202Y011941D02*
X031951Y011941D01*
X031951Y011842D02*
X036202Y011842D01*
X036202Y011743D02*
X031865Y011743D01*
X031751Y011912D02*
X025251Y011912D01*
X021551Y008212D01*
X018151Y008212D01*
X018256Y007900D02*
X019650Y007900D01*
X019646Y007802D02*
X018345Y007802D01*
X018443Y007703D02*
X020046Y007703D01*
X020046Y007660D02*
X019646Y007660D01*
X019646Y007524D01*
X019910Y007260D01*
X020046Y007260D01*
X020046Y007660D01*
X020046Y007605D02*
X020146Y007605D01*
X020146Y007703D02*
X020646Y007703D01*
X020646Y007605D02*
X020546Y007605D01*
X020528Y007506D02*
X020664Y007506D01*
X020762Y007408D02*
X020430Y007408D01*
X020331Y007309D02*
X020861Y007309D01*
X020862Y007112D02*
X020331Y007112D01*
X020282Y007160D02*
X020146Y007160D01*
X020146Y006760D01*
X020546Y006760D01*
X020546Y006896D01*
X020282Y007160D01*
X020146Y007112D02*
X020046Y007112D01*
X020046Y007160D02*
X019910Y007160D01*
X019646Y006896D01*
X019646Y006760D01*
X020046Y006760D01*
X020046Y007160D01*
X020046Y007013D02*
X020146Y007013D01*
X020146Y006915D02*
X020046Y006915D01*
X020046Y006816D02*
X020146Y006816D01*
X020146Y006718D02*
X020646Y006718D01*
X020646Y006816D02*
X020546Y006816D01*
X020528Y006915D02*
X020664Y006915D01*
X020763Y007013D02*
X020429Y007013D01*
X020146Y007309D02*
X020046Y007309D01*
X020046Y007408D02*
X020146Y007408D01*
X020146Y007506D02*
X020046Y007506D01*
X019861Y007309D02*
X018837Y007309D01*
X018739Y007408D02*
X019762Y007408D01*
X019664Y007506D02*
X018640Y007506D01*
X018542Y007605D02*
X019646Y007605D01*
X019748Y007999D02*
X018402Y007999D01*
X018416Y008412D02*
X018337Y008491D01*
X018216Y008541D01*
X018086Y008541D01*
X017965Y008491D01*
X017873Y008398D01*
X017836Y008310D01*
X015480Y010667D01*
X015480Y010778D01*
X015430Y010898D01*
X015337Y010991D01*
X015216Y011041D01*
X015086Y011041D01*
X014965Y010991D01*
X014873Y010898D01*
X014823Y010778D01*
X014823Y010647D01*
X014873Y010526D01*
X014965Y010434D01*
X015086Y010384D01*
X015197Y010384D01*
X019568Y006012D01*
X019734Y006012D01*
X019762Y006012D01*
X019646Y005896D01*
X019646Y005812D01*
X019534Y005812D01*
X018534Y006812D01*
X018368Y006812D01*
X012716Y006812D01*
X012637Y006891D01*
X012516Y006941D01*
X012386Y006941D01*
X012351Y006926D01*
X012351Y010330D01*
X014436Y012415D01*
X014473Y012326D01*
X014565Y012234D01*
X014686Y012184D01*
X014797Y012184D01*
X016968Y010012D01*
X017134Y010012D01*
X019762Y010012D01*
X019646Y009896D01*
X019646Y009760D01*
X020046Y009760D01*
X020046Y009660D01*
X020146Y009660D01*
X020146Y009260D01*
X020282Y009260D01*
X020546Y009524D01*
X020546Y009660D01*
X020146Y009660D01*
X020146Y009760D01*
X020546Y009760D01*
X020546Y009896D01*
X020430Y010012D01*
X020762Y010012D01*
X020646Y009896D01*
X020646Y009524D01*
X020910Y009260D01*
X021282Y009260D01*
X021546Y009524D01*
X021546Y009896D01*
X021282Y010160D01*
X021251Y010160D01*
X021251Y010295D01*
X021184Y010362D01*
X022734Y011912D01*
X024968Y011912D01*
X021468Y008412D01*
X021435Y008412D01*
X021546Y008524D01*
X021546Y008896D01*
X021282Y009160D01*
X020910Y009160D01*
X020646Y008896D01*
X020646Y008524D01*
X020757Y008412D01*
X020435Y008412D01*
X020546Y008524D01*
X020546Y008660D01*
X020146Y008660D01*
X020146Y008760D01*
X020046Y008760D01*
X020046Y008660D01*
X019646Y008660D01*
X019646Y008524D01*
X019757Y008412D01*
X018416Y008412D01*
X018336Y008492D02*
X019678Y008492D01*
X019646Y008590D02*
X017556Y008590D01*
X017458Y008689D02*
X020046Y008689D01*
X020046Y008760D02*
X019646Y008760D01*
X019646Y008896D01*
X019910Y009160D01*
X020046Y009160D01*
X020046Y008760D01*
X020046Y008787D02*
X020146Y008787D01*
X020146Y008760D02*
X020146Y009160D01*
X020282Y009160D01*
X020546Y008896D01*
X020546Y008760D01*
X020146Y008760D01*
X020146Y008689D02*
X020646Y008689D01*
X020646Y008787D02*
X020546Y008787D01*
X020546Y008886D02*
X020646Y008886D01*
X020734Y008984D02*
X020458Y008984D01*
X020360Y009083D02*
X020832Y009083D01*
X020890Y009280D02*
X020302Y009280D01*
X020401Y009378D02*
X020791Y009378D01*
X020693Y009477D02*
X020499Y009477D01*
X020546Y009576D02*
X020646Y009576D01*
X020646Y009674D02*
X020146Y009674D01*
X020146Y009576D02*
X020046Y009576D01*
X020046Y009660D02*
X020046Y009260D01*
X019910Y009260D01*
X019646Y009524D01*
X019646Y009660D01*
X020046Y009660D01*
X020046Y009674D02*
X016472Y009674D01*
X016374Y009773D02*
X019646Y009773D01*
X019646Y009871D02*
X016275Y009871D01*
X016177Y009970D02*
X019719Y009970D01*
X019646Y009576D02*
X016571Y009576D01*
X016669Y009477D02*
X019693Y009477D01*
X019791Y009378D02*
X016768Y009378D01*
X016867Y009280D02*
X019890Y009280D01*
X020046Y009280D02*
X020146Y009280D01*
X020146Y009378D02*
X020046Y009378D01*
X020046Y009477D02*
X020146Y009477D01*
X020146Y009083D02*
X020046Y009083D01*
X020046Y008984D02*
X020146Y008984D01*
X020146Y008886D02*
X020046Y008886D01*
X019832Y009083D02*
X017064Y009083D01*
X017162Y008984D02*
X019734Y008984D01*
X019646Y008886D02*
X017261Y008886D01*
X017359Y008787D02*
X019646Y008787D01*
X020514Y008492D02*
X020678Y008492D01*
X020646Y008590D02*
X020546Y008590D01*
X021302Y009280D02*
X022336Y009280D01*
X022434Y009378D02*
X021401Y009378D01*
X021499Y009477D02*
X022533Y009477D01*
X022631Y009576D02*
X021546Y009576D01*
X021546Y009674D02*
X022730Y009674D01*
X022829Y009773D02*
X021546Y009773D01*
X021546Y009871D02*
X022927Y009871D01*
X023026Y009970D02*
X021473Y009970D01*
X021374Y010068D02*
X023124Y010068D01*
X023223Y010167D02*
X021251Y010167D01*
X021251Y010265D02*
X023321Y010265D01*
X023420Y010364D02*
X021185Y010364D01*
X021284Y010462D02*
X023518Y010462D01*
X023617Y010561D02*
X021383Y010561D01*
X021481Y010659D02*
X023715Y010659D01*
X023814Y010758D02*
X021580Y010758D01*
X021678Y010857D02*
X023913Y010857D01*
X024011Y010955D02*
X021777Y010955D01*
X021875Y011054D02*
X024110Y011054D01*
X024208Y011152D02*
X021974Y011152D01*
X022072Y011251D02*
X024307Y011251D01*
X024405Y011349D02*
X022171Y011349D01*
X022269Y011448D02*
X024504Y011448D01*
X024602Y011546D02*
X022368Y011546D01*
X022466Y011645D02*
X024701Y011645D01*
X024799Y011743D02*
X022565Y011743D01*
X022664Y011842D02*
X024898Y011842D01*
X025168Y011546D02*
X025547Y011546D01*
X025547Y011586D02*
X025547Y011213D01*
X025811Y010949D01*
X026184Y010949D01*
X026447Y011213D01*
X026447Y011586D01*
X026321Y011712D01*
X026587Y011712D01*
X026573Y011698D01*
X026523Y011578D01*
X026523Y011447D01*
X026573Y011326D01*
X026665Y011234D01*
X026786Y011184D01*
X026897Y011184D01*
X027553Y010527D01*
X027465Y010491D01*
X027373Y010398D01*
X027323Y010278D01*
X027323Y010167D01*
X024968Y007812D01*
X021546Y007812D01*
X021546Y007896D01*
X021430Y008012D01*
X021634Y008012D01*
X021751Y008130D01*
X025334Y011712D01*
X025674Y011712D01*
X025547Y011586D01*
X025607Y011645D02*
X025266Y011645D01*
X025069Y011448D02*
X025547Y011448D01*
X025547Y011349D02*
X024971Y011349D01*
X024872Y011251D02*
X025547Y011251D01*
X025608Y011152D02*
X024774Y011152D01*
X024675Y011054D02*
X025707Y011054D01*
X025805Y010955D02*
X024577Y010955D01*
X024478Y010857D02*
X027224Y010857D01*
X027126Y010955D02*
X026190Y010955D01*
X026288Y011054D02*
X027027Y011054D01*
X026929Y011152D02*
X026387Y011152D01*
X026447Y011251D02*
X026648Y011251D01*
X026563Y011349D02*
X026447Y011349D01*
X026447Y011448D02*
X026523Y011448D01*
X026523Y011546D02*
X026447Y011546D01*
X026388Y011645D02*
X026551Y011645D01*
X026851Y011512D02*
X029551Y008812D01*
X035151Y008812D01*
X035186Y008750D01*
X035706Y009280D02*
X036202Y009280D01*
X036202Y009378D02*
X029268Y009378D01*
X029367Y009280D02*
X034665Y009280D01*
X034464Y009181D02*
X029465Y009181D01*
X029564Y009083D02*
X034365Y009083D01*
X034277Y008590D02*
X028312Y008590D01*
X028410Y008689D02*
X029392Y008689D01*
X029294Y008787D02*
X028509Y008787D01*
X028721Y008886D02*
X029195Y008886D01*
X029096Y008984D02*
X028887Y008984D01*
X028953Y009083D02*
X028998Y009083D01*
X028651Y009212D02*
X023151Y003712D01*
X011451Y003712D01*
X011151Y003412D01*
X011151Y002812D01*
X010851Y002812D01*
X010785Y002726D01*
X010375Y002677D02*
X010195Y002677D01*
X010195Y002579D02*
X010375Y002579D01*
X010375Y002480D02*
X010195Y002480D01*
X010194Y002382D02*
X010376Y002382D01*
X010417Y002283D02*
X010153Y002283D01*
X010084Y002185D02*
X010486Y002185D01*
X010630Y002086D02*
X009940Y002086D01*
X009630Y002086D02*
X000321Y002086D01*
X000321Y001988D02*
X020596Y001988D01*
X020596Y001928D02*
X020596Y002107D01*
X020664Y002272D01*
X020791Y002399D01*
X020956Y002467D01*
X021735Y002467D01*
X021901Y002399D01*
X022027Y002272D01*
X022096Y002107D01*
X022096Y001928D01*
X022027Y001762D01*
X021901Y001636D01*
X021735Y001567D01*
X020956Y001567D01*
X020791Y001636D01*
X020664Y001762D01*
X020596Y001928D01*
X020612Y001889D02*
X000321Y001889D01*
X000321Y001791D02*
X020653Y001791D01*
X020735Y001692D02*
X000321Y001692D01*
X000321Y001594D02*
X020893Y001594D01*
X020956Y001467D02*
X020791Y001399D01*
X020664Y001272D01*
X020596Y001107D01*
X020596Y000928D01*
X020664Y000762D01*
X020791Y000636D01*
X020956Y000567D01*
X021735Y000567D01*
X021901Y000636D01*
X022027Y000762D01*
X022089Y000912D01*
X023634Y000912D01*
X023751Y001030D01*
X030406Y007684D01*
X030516Y007684D01*
X030637Y007734D01*
X030730Y007826D01*
X030780Y007947D01*
X030780Y008078D01*
X030730Y008198D01*
X030637Y008291D01*
X030516Y008341D01*
X030386Y008341D01*
X030265Y008291D01*
X030173Y008198D01*
X030123Y008078D01*
X030123Y007967D01*
X023468Y001312D01*
X021987Y001312D01*
X021901Y001399D01*
X021735Y001467D01*
X020956Y001467D01*
X020789Y001396D02*
X000321Y001396D01*
X000321Y001298D02*
X020690Y001298D01*
X020634Y001199D02*
X011316Y001199D01*
X011345Y001101D02*
X020596Y001101D01*
X020596Y001002D02*
X011345Y001002D01*
X011345Y000904D02*
X020606Y000904D01*
X020647Y000805D02*
X011345Y000805D01*
X011345Y000707D02*
X020720Y000707D01*
X020858Y000608D02*
X011345Y000608D01*
X011345Y000510D02*
X026359Y000510D01*
X026359Y000608D02*
X021834Y000608D01*
X021971Y000707D02*
X026359Y000707D01*
X026359Y000805D02*
X022045Y000805D01*
X022086Y000904D02*
X026359Y000904D01*
X026359Y001002D02*
X023724Y001002D01*
X023822Y001101D02*
X026359Y001101D01*
X026388Y001199D02*
X023921Y001199D01*
X024019Y001298D02*
X030690Y001298D01*
X030690Y001396D02*
X024118Y001396D01*
X024217Y001495D02*
X030690Y001495D01*
X030690Y001594D02*
X024315Y001594D01*
X024414Y001692D02*
X030690Y001692D01*
X030690Y001791D02*
X024512Y001791D01*
X024611Y001889D02*
X030690Y001889D01*
X030690Y001988D02*
X024709Y001988D01*
X024808Y002086D02*
X030690Y002086D01*
X030690Y002185D02*
X024906Y002185D01*
X025005Y002283D02*
X030690Y002283D01*
X030720Y002382D02*
X025103Y002382D01*
X025202Y002480D02*
X036202Y002480D01*
X036202Y002579D02*
X025301Y002579D01*
X025399Y002677D02*
X036202Y002677D01*
X036202Y002776D02*
X025498Y002776D01*
X025596Y002875D02*
X036202Y002875D01*
X036202Y002973D02*
X025695Y002973D01*
X025793Y003072D02*
X036202Y003072D01*
X036202Y003170D02*
X025892Y003170D01*
X025990Y003269D02*
X036202Y003269D01*
X036202Y003367D02*
X026089Y003367D01*
X026187Y003466D02*
X036202Y003466D01*
X036202Y003564D02*
X026286Y003564D01*
X026384Y003663D02*
X036202Y003663D01*
X036202Y003761D02*
X026483Y003761D01*
X026582Y003860D02*
X036202Y003860D01*
X036202Y003959D02*
X026680Y003959D01*
X026779Y004057D02*
X036202Y004057D01*
X036202Y004156D02*
X026877Y004156D01*
X026976Y004254D02*
X036202Y004254D01*
X036202Y004353D02*
X035882Y004353D01*
X035881Y004352D02*
X036033Y004504D01*
X036115Y004702D01*
X036115Y004917D01*
X036033Y005115D01*
X035881Y005267D01*
X035683Y005349D01*
X034688Y005349D01*
X034490Y005267D01*
X034338Y005115D01*
X034256Y004917D01*
X034256Y004702D01*
X034338Y004504D01*
X034490Y004352D01*
X034688Y004270D01*
X035683Y004270D01*
X035881Y004352D01*
X035981Y004451D02*
X036202Y004451D01*
X036202Y004550D02*
X036052Y004550D01*
X036093Y004648D02*
X036202Y004648D01*
X036202Y004747D02*
X036115Y004747D01*
X036115Y004845D02*
X036202Y004845D01*
X036202Y004944D02*
X036104Y004944D01*
X036063Y005043D02*
X036202Y005043D01*
X036202Y005141D02*
X036008Y005141D01*
X035909Y005240D02*
X036202Y005240D01*
X036202Y005338D02*
X035710Y005338D01*
X036202Y005437D02*
X028158Y005437D01*
X028257Y005535D02*
X036202Y005535D01*
X036202Y005634D02*
X028355Y005634D01*
X028454Y005732D02*
X036202Y005732D01*
X036202Y005831D02*
X033427Y005831D01*
X033381Y005812D02*
X033675Y005934D01*
X033900Y006159D01*
X034022Y006453D01*
X034022Y006771D01*
X033900Y007065D01*
X033675Y007290D01*
X033381Y007412D01*
X033063Y007412D01*
X032769Y007290D01*
X032544Y007065D01*
X032422Y006771D01*
X032422Y006453D01*
X032544Y006159D01*
X032769Y005934D01*
X033063Y005812D01*
X033381Y005812D01*
X033665Y005929D02*
X036202Y005929D01*
X036202Y006028D02*
X033770Y006028D01*
X033868Y006126D02*
X036202Y006126D01*
X036202Y006225D02*
X033928Y006225D01*
X033969Y006324D02*
X034488Y006324D01*
X034490Y006322D02*
X034688Y006240D01*
X035136Y006240D01*
X035136Y006729D01*
X035235Y006729D01*
X035235Y006240D01*
X035683Y006240D01*
X035881Y006322D01*
X036033Y006474D01*
X036115Y006672D01*
X036115Y006730D01*
X035236Y006730D01*
X035236Y006829D01*
X036115Y006829D01*
X036115Y006887D01*
X036033Y007085D01*
X035881Y007237D01*
X035683Y007319D01*
X035235Y007319D01*
X035235Y006830D01*
X035136Y006830D01*
X035136Y007319D01*
X034688Y007319D01*
X034490Y007237D01*
X034338Y007085D01*
X034256Y006887D01*
X034256Y006829D01*
X035135Y006829D01*
X035135Y006730D01*
X034256Y006730D01*
X034256Y006672D01*
X034338Y006474D01*
X034490Y006322D01*
X034389Y006422D02*
X034009Y006422D01*
X034022Y006521D02*
X034318Y006521D01*
X034277Y006619D02*
X034022Y006619D01*
X034022Y006718D02*
X034256Y006718D01*
X034267Y006915D02*
X033962Y006915D01*
X033921Y007013D02*
X034308Y007013D01*
X034364Y007112D02*
X033853Y007112D01*
X033754Y007210D02*
X034463Y007210D01*
X034663Y007309D02*
X033629Y007309D01*
X033391Y007408D02*
X036202Y007408D01*
X036202Y007506D02*
X030228Y007506D01*
X030326Y007605D02*
X036202Y007605D01*
X036202Y007703D02*
X030563Y007703D01*
X030705Y007802D02*
X036202Y007802D01*
X036202Y007900D02*
X030760Y007900D01*
X030780Y007999D02*
X036202Y007999D01*
X036202Y008097D02*
X030771Y008097D01*
X030731Y008196D02*
X036202Y008196D01*
X036202Y008294D02*
X035884Y008294D01*
X035983Y008393D02*
X036202Y008393D01*
X036202Y008492D02*
X036053Y008492D01*
X036094Y008590D02*
X036202Y008590D01*
X036202Y008689D02*
X036115Y008689D01*
X036115Y008787D02*
X036202Y008787D01*
X036202Y008886D02*
X036104Y008886D01*
X036063Y008984D02*
X036202Y008984D01*
X036202Y009083D02*
X036006Y009083D01*
X035907Y009181D02*
X036202Y009181D01*
X036202Y009477D02*
X029169Y009477D01*
X029071Y009576D02*
X036202Y009576D01*
X036202Y009674D02*
X028972Y009674D01*
X028874Y009773D02*
X036202Y009773D01*
X036202Y009871D02*
X028775Y009871D01*
X028677Y009970D02*
X036202Y009970D01*
X036202Y010068D02*
X028578Y010068D01*
X028480Y010167D02*
X036202Y010167D01*
X036202Y010265D02*
X028381Y010265D01*
X028283Y010364D02*
X036202Y010364D01*
X036202Y010462D02*
X035808Y010462D01*
X035892Y010497D02*
X036044Y010649D01*
X036126Y010848D01*
X036126Y010905D01*
X035246Y010905D01*
X035246Y010415D01*
X035694Y010415D01*
X035892Y010497D01*
X035956Y010561D02*
X036202Y010561D01*
X036202Y010659D02*
X036048Y010659D01*
X036089Y010758D02*
X036202Y010758D01*
X036202Y010857D02*
X036126Y010857D01*
X036202Y010955D02*
X035246Y010955D01*
X035246Y011005D02*
X036126Y011005D01*
X036126Y011062D01*
X036044Y011261D01*
X035892Y011413D01*
X035694Y011495D01*
X035246Y011495D01*
X035246Y011005D01*
X035146Y011005D01*
X035146Y010905D01*
X034266Y010905D01*
X034266Y010848D01*
X034348Y010649D01*
X034500Y010497D01*
X034699Y010415D01*
X035146Y010415D01*
X035146Y010905D01*
X035246Y010905D01*
X035246Y011005D01*
X035246Y011054D02*
X035146Y011054D01*
X035146Y011005D02*
X035146Y011495D01*
X034699Y011495D01*
X034500Y011413D01*
X034348Y011261D01*
X034266Y011062D01*
X034266Y011005D01*
X035146Y011005D01*
X035146Y010955D02*
X027691Y010955D01*
X027593Y011054D02*
X034266Y011054D01*
X034303Y011152D02*
X027494Y011152D01*
X027396Y011251D02*
X034344Y011251D01*
X034437Y011349D02*
X027297Y011349D01*
X027199Y011448D02*
X034585Y011448D01*
X035146Y011448D02*
X035246Y011448D01*
X035246Y011349D02*
X035146Y011349D01*
X035146Y011251D02*
X035246Y011251D01*
X035246Y011152D02*
X035146Y011152D01*
X035146Y010857D02*
X035246Y010857D01*
X035246Y010758D02*
X035146Y010758D01*
X035146Y010659D02*
X035246Y010659D01*
X035246Y010561D02*
X035146Y010561D01*
X035146Y010462D02*
X035246Y010462D01*
X034584Y010462D02*
X028184Y010462D01*
X028085Y010561D02*
X034437Y010561D01*
X034344Y010659D02*
X027987Y010659D01*
X027888Y010758D02*
X034303Y010758D01*
X034266Y010857D02*
X027790Y010857D01*
X027520Y010561D02*
X024183Y010561D01*
X024281Y010659D02*
X027421Y010659D01*
X027323Y010758D02*
X024380Y010758D01*
X024084Y010462D02*
X027437Y010462D01*
X027358Y010364D02*
X023985Y010364D01*
X023887Y010265D02*
X027323Y010265D01*
X027323Y010167D02*
X023788Y010167D01*
X023690Y010068D02*
X027224Y010068D01*
X027126Y009970D02*
X023591Y009970D01*
X023493Y009871D02*
X027027Y009871D01*
X026929Y009773D02*
X023394Y009773D01*
X023296Y009674D02*
X026830Y009674D01*
X026731Y009576D02*
X023197Y009576D01*
X023099Y009477D02*
X026633Y009477D01*
X026534Y009378D02*
X023000Y009378D01*
X022901Y009280D02*
X026436Y009280D01*
X026337Y009181D02*
X022803Y009181D01*
X022704Y009083D02*
X026239Y009083D01*
X026140Y008984D02*
X022606Y008984D01*
X022507Y008886D02*
X026042Y008886D01*
X025943Y008787D02*
X022409Y008787D01*
X022310Y008689D02*
X025845Y008689D01*
X025746Y008590D02*
X022212Y008590D01*
X022113Y008492D02*
X025647Y008492D01*
X025549Y008393D02*
X022015Y008393D01*
X021916Y008294D02*
X025450Y008294D01*
X025352Y008196D02*
X021817Y008196D01*
X021719Y008097D02*
X025253Y008097D01*
X025155Y007999D02*
X021444Y007999D01*
X021542Y007900D02*
X025056Y007900D01*
X025051Y007612D02*
X021151Y007612D01*
X021096Y007710D01*
X021430Y007408D02*
X025064Y007408D01*
X024965Y007309D02*
X021331Y007309D01*
X021331Y007112D02*
X024768Y007112D01*
X024866Y007210D02*
X018936Y007210D01*
X019034Y007112D02*
X019862Y007112D01*
X019763Y007013D02*
X019133Y007013D01*
X019232Y006915D02*
X019664Y006915D01*
X019646Y006816D02*
X019330Y006816D01*
X019429Y006718D02*
X020046Y006718D01*
X019646Y006619D02*
X019527Y006619D01*
X019626Y006521D02*
X019649Y006521D01*
X019724Y006422D02*
X019748Y006422D01*
X019651Y006212D02*
X015151Y010712D01*
X014929Y010955D02*
X012977Y010955D01*
X013075Y011054D02*
X015927Y011054D01*
X015829Y011152D02*
X013174Y011152D01*
X013272Y011251D02*
X015730Y011251D01*
X015631Y011349D02*
X013371Y011349D01*
X013469Y011448D02*
X015533Y011448D01*
X015434Y011546D02*
X013568Y011546D01*
X013666Y011645D02*
X015336Y011645D01*
X015237Y011743D02*
X013765Y011743D01*
X013864Y011842D02*
X015139Y011842D01*
X015040Y011941D02*
X013962Y011941D01*
X014061Y012039D02*
X014942Y012039D01*
X014843Y012138D02*
X014159Y012138D01*
X014258Y012236D02*
X014563Y012236D01*
X014469Y012335D02*
X014356Y012335D01*
X014086Y012630D02*
X011951Y012630D01*
X011951Y012532D02*
X013988Y012532D01*
X013889Y012433D02*
X011951Y012433D01*
X011951Y012335D02*
X013791Y012335D01*
X013692Y012236D02*
X011951Y012236D01*
X011951Y012138D02*
X013594Y012138D01*
X013495Y012039D02*
X011951Y012039D01*
X011951Y011941D02*
X013396Y011941D01*
X013298Y011842D02*
X011951Y011842D01*
X011951Y011743D02*
X013199Y011743D01*
X013101Y011645D02*
X011951Y011645D01*
X011951Y011546D02*
X013002Y011546D01*
X012904Y011448D02*
X011951Y011448D01*
X011951Y011349D02*
X012805Y011349D01*
X012707Y011251D02*
X011951Y011251D01*
X011951Y011152D02*
X012608Y011152D01*
X012510Y011054D02*
X011951Y011054D01*
X011951Y010955D02*
X012411Y010955D01*
X012312Y010857D02*
X011951Y010857D01*
X011951Y010758D02*
X012214Y010758D01*
X012115Y010659D02*
X011951Y010659D01*
X011951Y010561D02*
X012017Y010561D01*
X011951Y010462D02*
X011951Y010462D01*
X011951Y010364D02*
X011951Y010364D01*
X011951Y010265D02*
X011951Y010265D01*
X011951Y010167D02*
X011951Y010167D01*
X011951Y010068D02*
X011951Y010068D01*
X011951Y009970D02*
X011951Y009970D01*
X011951Y009871D02*
X011951Y009871D01*
X011951Y009777D02*
X011951Y009777D01*
X011751Y009512D02*
X011751Y014712D01*
X012651Y014712D01*
X012751Y014812D01*
X012765Y014852D01*
X012178Y014503D02*
X011951Y014503D01*
X011951Y014404D02*
X012370Y014404D01*
X012376Y014302D02*
X012210Y014233D01*
X012084Y014107D01*
X012015Y013941D01*
X012015Y013762D01*
X012084Y013597D01*
X012210Y013470D01*
X012376Y013402D01*
X013155Y013402D01*
X013320Y013470D01*
X013447Y013597D01*
X013515Y013762D01*
X013515Y013941D01*
X013447Y014107D01*
X013320Y014233D01*
X013155Y014302D01*
X012376Y014302D01*
X012184Y014207D02*
X011951Y014207D01*
X011951Y014109D02*
X012086Y014109D01*
X012044Y014010D02*
X011951Y014010D01*
X011951Y013911D02*
X012015Y013911D01*
X012015Y013813D02*
X011951Y013813D01*
X011951Y013714D02*
X012035Y013714D01*
X012076Y013616D02*
X011951Y013616D01*
X011951Y013517D02*
X012164Y013517D01*
X012335Y013419D02*
X011951Y013419D01*
X011951Y013320D02*
X014776Y013320D01*
X014678Y013222D02*
X011951Y013222D01*
X011951Y013123D02*
X014579Y013123D01*
X014480Y013025D02*
X011951Y013025D01*
X011951Y012926D02*
X014382Y012926D01*
X014283Y012827D02*
X011951Y012827D01*
X011951Y012729D02*
X014185Y012729D01*
X014751Y012512D02*
X017051Y010212D01*
X021051Y010212D01*
X021051Y009712D01*
X021096Y009710D01*
X020646Y009773D02*
X020546Y009773D01*
X020546Y009871D02*
X020646Y009871D01*
X020719Y009970D02*
X020473Y009970D01*
X020951Y010412D02*
X017551Y010412D01*
X017351Y010612D01*
X017131Y010857D02*
X016690Y010857D01*
X016591Y010955D02*
X017061Y010955D01*
X017023Y011054D02*
X016493Y011054D01*
X016394Y011152D02*
X017023Y011152D01*
X017053Y011251D02*
X016296Y011251D01*
X016197Y011349D02*
X017124Y011349D01*
X017351Y011112D02*
X017851Y010612D01*
X020851Y010612D01*
X023451Y013212D01*
X028351Y013212D01*
X028680Y013222D02*
X031059Y013222D01*
X031086Y013141D02*
X030965Y013091D01*
X030887Y013012D01*
X028616Y013012D01*
X028630Y013026D01*
X028680Y013147D01*
X028680Y013278D01*
X028630Y013398D01*
X028537Y013491D01*
X028416Y013541D01*
X028362Y013541D01*
X028506Y013684D01*
X028616Y013684D01*
X028737Y013734D01*
X028830Y013826D01*
X028880Y013947D01*
X028880Y013987D01*
X028886Y013984D01*
X029016Y013984D01*
X029137Y014034D01*
X029230Y014126D01*
X029266Y014215D01*
X029623Y013858D01*
X029623Y013747D01*
X029673Y013626D01*
X029765Y013534D01*
X029886Y013484D01*
X030016Y013484D01*
X030137Y013534D01*
X030230Y013626D01*
X030280Y013747D01*
X030280Y013878D01*
X030230Y013998D01*
X030137Y014091D01*
X030016Y014141D01*
X029906Y014141D01*
X028380Y015667D01*
X028380Y015778D01*
X028330Y015898D01*
X028237Y015991D01*
X028116Y016041D01*
X027986Y016041D01*
X027865Y015991D01*
X027773Y015898D01*
X027760Y015868D01*
X027737Y015891D01*
X027616Y015941D01*
X027486Y015941D01*
X027365Y015891D01*
X027273Y015798D01*
X027223Y015678D01*
X027223Y015567D01*
X026568Y014912D01*
X026185Y014912D01*
X026237Y014934D01*
X026330Y015026D01*
X026380Y015147D01*
X026380Y015258D01*
X027834Y016712D01*
X030687Y016712D01*
X030765Y016634D01*
X030886Y016584D01*
X031016Y016584D01*
X031137Y016634D01*
X031151Y016648D01*
X031151Y014477D01*
X031073Y014398D01*
X031036Y014310D01*
X030034Y015312D01*
X029934Y015312D01*
X029080Y016167D01*
X029080Y016278D01*
X029030Y016398D01*
X028937Y016491D01*
X028816Y016541D01*
X028686Y016541D01*
X028565Y016491D01*
X028473Y016398D01*
X028423Y016278D01*
X028423Y016147D01*
X028473Y016026D01*
X028565Y015934D01*
X028686Y015884D01*
X028797Y015884D01*
X029651Y015030D01*
X029683Y014998D01*
X029665Y014991D01*
X029573Y014898D01*
X029523Y014778D01*
X029523Y014647D01*
X029573Y014526D01*
X029665Y014434D01*
X029786Y014384D01*
X029897Y014384D01*
X031140Y013141D01*
X031086Y013141D01*
X031043Y013123D02*
X028670Y013123D01*
X028628Y013025D02*
X030899Y013025D01*
X030961Y013320D02*
X028662Y013320D01*
X028609Y013419D02*
X030862Y013419D01*
X030764Y013517D02*
X030097Y013517D01*
X030219Y013616D02*
X030665Y013616D01*
X030566Y013714D02*
X030266Y013714D01*
X030280Y013813D02*
X030468Y013813D01*
X030369Y013911D02*
X030266Y013911D01*
X030271Y014010D02*
X030218Y014010D01*
X030172Y014109D02*
X030095Y014109D01*
X030074Y014207D02*
X029839Y014207D01*
X029741Y014306D02*
X029975Y014306D01*
X029737Y014404D02*
X029642Y014404D01*
X029596Y014503D02*
X029544Y014503D01*
X029542Y014601D02*
X029445Y014601D01*
X029523Y014700D02*
X029347Y014700D01*
X029248Y014798D02*
X029531Y014798D01*
X029572Y014897D02*
X029150Y014897D01*
X029051Y014995D02*
X029676Y014995D01*
X029587Y015094D02*
X028952Y015094D01*
X028854Y015192D02*
X029488Y015192D01*
X029390Y015291D02*
X028755Y015291D01*
X028657Y015390D02*
X029291Y015390D01*
X029193Y015488D02*
X028558Y015488D01*
X028460Y015587D02*
X029094Y015587D01*
X028996Y015685D02*
X028380Y015685D01*
X028377Y015784D02*
X028897Y015784D01*
X028798Y015882D02*
X028336Y015882D01*
X028247Y015981D02*
X028518Y015981D01*
X028451Y016079D02*
X027201Y016079D01*
X027102Y015981D02*
X027855Y015981D01*
X027766Y015882D02*
X027746Y015882D01*
X027551Y015612D02*
X026651Y014712D01*
X025251Y014712D01*
X024923Y014700D02*
X023628Y014700D01*
X023630Y014698D02*
X023537Y014791D01*
X023416Y014841D01*
X023362Y014841D01*
X024234Y015712D01*
X024351Y015830D01*
X024351Y017066D01*
X024462Y017066D01*
X024508Y017112D01*
X028387Y017112D01*
X027668Y017112D01*
X027551Y016995D01*
X026966Y016410D01*
X026930Y016498D01*
X026837Y016591D01*
X026716Y016641D01*
X026586Y016641D01*
X026465Y016591D01*
X026373Y016498D01*
X026323Y016378D01*
X026323Y016267D01*
X025597Y015541D01*
X025486Y015541D01*
X025365Y015491D01*
X025273Y015398D01*
X025223Y015278D01*
X025223Y015147D01*
X025267Y015041D01*
X025186Y015041D01*
X025065Y014991D01*
X024973Y014898D01*
X024923Y014778D01*
X024923Y014647D01*
X024973Y014526D01*
X024987Y014512D01*
X023680Y014512D01*
X023680Y014578D01*
X023630Y014698D01*
X023670Y014601D02*
X024942Y014601D01*
X024931Y014798D02*
X023519Y014798D01*
X023418Y014897D02*
X024972Y014897D01*
X025076Y014995D02*
X023517Y014995D01*
X023615Y015094D02*
X025245Y015094D01*
X025223Y015192D02*
X023714Y015192D01*
X023813Y015291D02*
X025228Y015291D01*
X025269Y015390D02*
X023911Y015390D01*
X024010Y015488D02*
X025362Y015488D01*
X025643Y015587D02*
X024108Y015587D01*
X024207Y015685D02*
X025741Y015685D01*
X025840Y015784D02*
X024305Y015784D01*
X024351Y015882D02*
X025938Y015882D01*
X026037Y015981D02*
X024351Y015981D01*
X024351Y016079D02*
X026135Y016079D01*
X026234Y016178D02*
X024351Y016178D01*
X024351Y016276D02*
X026323Y016276D01*
X026323Y016375D02*
X024351Y016375D01*
X024351Y016474D02*
X026362Y016474D01*
X026446Y016572D02*
X024351Y016572D01*
X024351Y016671D02*
X027227Y016671D01*
X027325Y016769D02*
X024351Y016769D01*
X024351Y016868D02*
X027424Y016868D01*
X027522Y016966D02*
X024351Y016966D01*
X024351Y017065D02*
X027621Y017065D01*
X027751Y016912D02*
X030951Y016912D01*
X030729Y016671D02*
X027792Y016671D01*
X027694Y016572D02*
X031151Y016572D01*
X031151Y016474D02*
X028954Y016474D01*
X029039Y016375D02*
X031151Y016375D01*
X031151Y016276D02*
X029080Y016276D01*
X029080Y016178D02*
X031151Y016178D01*
X031151Y016079D02*
X029167Y016079D01*
X029266Y015981D02*
X031151Y015981D01*
X031151Y015882D02*
X029364Y015882D01*
X029463Y015784D02*
X031151Y015784D01*
X031151Y015685D02*
X029561Y015685D01*
X029660Y015587D02*
X031151Y015587D01*
X031151Y015488D02*
X029758Y015488D01*
X029857Y015390D02*
X031151Y015390D01*
X031151Y015291D02*
X030055Y015291D01*
X030154Y015192D02*
X031151Y015192D01*
X031151Y015094D02*
X030252Y015094D01*
X030351Y014995D02*
X031151Y014995D01*
X031151Y014897D02*
X030450Y014897D01*
X030548Y014798D02*
X031151Y014798D01*
X031151Y014700D02*
X030647Y014700D01*
X030745Y014601D02*
X031151Y014601D01*
X031151Y014503D02*
X030844Y014503D01*
X030942Y014404D02*
X031078Y014404D01*
X031551Y014503D02*
X033779Y014503D01*
X033850Y014473D02*
X033556Y014595D01*
X033331Y014820D01*
X033210Y015114D01*
X033210Y015432D01*
X033331Y015726D01*
X033556Y015951D01*
X033850Y016073D01*
X034169Y016073D01*
X034463Y015951D01*
X034688Y015726D01*
X034808Y015435D01*
X035146Y015435D01*
X035146Y014945D01*
X035246Y014945D01*
X035246Y015435D01*
X035694Y015435D01*
X035892Y015353D01*
X036044Y015201D01*
X036126Y015002D01*
X036126Y014945D01*
X035246Y014945D01*
X035246Y014845D01*
X035246Y014355D01*
X035694Y014355D01*
X035892Y014437D01*
X036044Y014589D01*
X036126Y014788D01*
X036126Y014845D01*
X035246Y014845D01*
X035146Y014845D01*
X035146Y014355D01*
X034699Y014355D01*
X034500Y014437D01*
X034378Y014560D01*
X034169Y014473D01*
X033850Y014473D01*
X033550Y014601D02*
X031551Y014601D01*
X031551Y014700D02*
X033451Y014700D01*
X033353Y014798D02*
X031551Y014798D01*
X031551Y014897D02*
X033299Y014897D01*
X033259Y014995D02*
X031551Y014995D01*
X031551Y015094D02*
X033218Y015094D01*
X033210Y015192D02*
X031551Y015192D01*
X031551Y015291D02*
X033210Y015291D01*
X033210Y015390D02*
X031551Y015390D01*
X031551Y015488D02*
X033233Y015488D01*
X033274Y015587D02*
X031551Y015587D01*
X031551Y015685D02*
X033314Y015685D01*
X033389Y015784D02*
X031551Y015784D01*
X031551Y015882D02*
X033487Y015882D01*
X033628Y015981D02*
X031551Y015981D01*
X031551Y016079D02*
X036202Y016079D01*
X036202Y015981D02*
X034391Y015981D01*
X034531Y015882D02*
X036202Y015882D01*
X036202Y015784D02*
X034630Y015784D01*
X034705Y015685D02*
X036202Y015685D01*
X036202Y015587D02*
X034745Y015587D01*
X034786Y015488D02*
X036202Y015488D01*
X036202Y015390D02*
X035803Y015390D01*
X035954Y015291D02*
X036202Y015291D01*
X036202Y015192D02*
X036047Y015192D01*
X036088Y015094D02*
X036202Y015094D01*
X036202Y014995D02*
X036126Y014995D01*
X036202Y014897D02*
X035246Y014897D01*
X035246Y014995D02*
X035146Y014995D01*
X035146Y015094D02*
X035246Y015094D01*
X035246Y015192D02*
X035146Y015192D01*
X035146Y015291D02*
X035246Y015291D01*
X035246Y015390D02*
X035146Y015390D01*
X035146Y014798D02*
X035246Y014798D01*
X035246Y014700D02*
X035146Y014700D01*
X035146Y014601D02*
X035246Y014601D01*
X035246Y014503D02*
X035146Y014503D01*
X035146Y014404D02*
X035246Y014404D01*
X034580Y014404D02*
X031624Y014404D01*
X031668Y014306D02*
X036202Y014306D01*
X036202Y014404D02*
X035812Y014404D01*
X035958Y014503D02*
X036202Y014503D01*
X036202Y014601D02*
X036049Y014601D01*
X036090Y014700D02*
X036202Y014700D01*
X036202Y014798D02*
X036126Y014798D01*
X034435Y014503D02*
X034240Y014503D01*
X035805Y013419D02*
X036202Y013419D01*
X036202Y013320D02*
X035955Y013320D01*
X036048Y013222D02*
X036202Y013222D01*
X036202Y013123D02*
X036089Y013123D01*
X036126Y013025D02*
X036202Y013025D01*
X036202Y012926D02*
X036126Y012926D01*
X036126Y012827D02*
X036202Y012827D01*
X036202Y012729D02*
X036089Y012729D01*
X036049Y012630D02*
X036202Y012630D01*
X036202Y012532D02*
X035957Y012532D01*
X036202Y011645D02*
X027152Y011645D01*
X027180Y011546D02*
X036202Y011546D01*
X036202Y011448D02*
X035808Y011448D01*
X035956Y011349D02*
X036202Y011349D01*
X036202Y011251D02*
X036048Y011251D01*
X036089Y011152D02*
X036202Y011152D01*
X036202Y011054D02*
X036126Y011054D01*
X034318Y008492D02*
X028213Y008492D01*
X028115Y008393D02*
X034388Y008393D01*
X034487Y008294D02*
X030628Y008294D01*
X030451Y008012D02*
X023551Y001112D01*
X021351Y001112D01*
X021346Y001017D01*
X021903Y001396D02*
X023552Y001396D01*
X023651Y001495D02*
X000321Y001495D01*
X000321Y001199D02*
X005128Y001199D01*
X005099Y001101D02*
X000321Y001101D01*
X000321Y001002D02*
X005099Y001002D01*
X005099Y000904D02*
X000321Y000904D01*
X000321Y000805D02*
X005099Y000805D01*
X005099Y000707D02*
X000321Y000707D01*
X000321Y000608D02*
X005099Y000608D01*
X005099Y000510D02*
X000321Y000510D01*
X000321Y002185D02*
X009486Y002185D01*
X009417Y002283D02*
X000321Y002283D01*
X000321Y002382D02*
X009376Y002382D01*
X009375Y002480D02*
X000321Y002480D01*
X000321Y002579D02*
X009375Y002579D01*
X009151Y002812D02*
X009751Y002812D01*
X009785Y002726D01*
X010195Y002776D02*
X010375Y002776D01*
X010375Y002875D02*
X010195Y002875D01*
X010195Y002973D02*
X010375Y002973D01*
X010377Y003072D02*
X010193Y003072D01*
X010152Y003170D02*
X010418Y003170D01*
X010488Y003269D02*
X010082Y003269D01*
X009935Y003367D02*
X010635Y003367D01*
X010935Y003367D02*
X010951Y003367D01*
X010951Y003466D02*
X009351Y003466D01*
X009351Y003564D02*
X011020Y003564D01*
X011119Y003663D02*
X009351Y003663D01*
X009351Y003761D02*
X011217Y003761D01*
X011316Y003860D02*
X009351Y003860D01*
X009351Y003959D02*
X023114Y003959D01*
X023213Y004057D02*
X009351Y004057D01*
X009351Y004156D02*
X023312Y004156D01*
X023410Y004254D02*
X009351Y004254D01*
X009351Y004353D02*
X023509Y004353D01*
X023607Y004451D02*
X009351Y004451D01*
X009351Y004550D02*
X023706Y004550D01*
X023804Y004648D02*
X023570Y004648D01*
X023668Y004747D02*
X023903Y004747D01*
X024001Y004845D02*
X023767Y004845D01*
X023866Y004944D02*
X024100Y004944D01*
X024198Y005043D02*
X023964Y005043D01*
X024063Y005141D02*
X024297Y005141D01*
X024396Y005240D02*
X024161Y005240D01*
X024260Y005338D02*
X024494Y005338D01*
X024593Y005437D02*
X024358Y005437D01*
X024457Y005535D02*
X024691Y005535D01*
X024790Y005634D02*
X024555Y005634D01*
X024654Y005732D02*
X024888Y005732D01*
X024987Y005831D02*
X024752Y005831D01*
X024851Y005929D02*
X025085Y005929D01*
X025184Y006028D02*
X024950Y006028D01*
X025048Y006126D02*
X025282Y006126D01*
X025381Y006225D02*
X025147Y006225D01*
X025245Y006324D02*
X025480Y006324D01*
X025578Y006422D02*
X025344Y006422D01*
X025442Y006521D02*
X025677Y006521D01*
X025775Y006619D02*
X025541Y006619D01*
X025639Y006718D02*
X025874Y006718D01*
X025972Y006816D02*
X025738Y006816D01*
X025836Y006915D02*
X026071Y006915D01*
X026169Y007013D02*
X025935Y007013D01*
X026034Y007112D02*
X026268Y007112D01*
X026366Y007210D02*
X026132Y007210D01*
X026231Y007309D02*
X026465Y007309D01*
X026564Y007408D02*
X026329Y007408D01*
X026428Y007506D02*
X026662Y007506D01*
X026761Y007605D02*
X026526Y007605D01*
X026625Y007703D02*
X026859Y007703D01*
X026958Y007802D02*
X026723Y007802D01*
X026822Y007900D02*
X027056Y007900D01*
X027155Y007999D02*
X026920Y007999D01*
X027019Y008097D02*
X027253Y008097D01*
X027352Y008196D02*
X027117Y008196D01*
X027216Y008294D02*
X027450Y008294D01*
X027549Y008393D02*
X027315Y008393D01*
X027413Y008492D02*
X027647Y008492D01*
X027746Y008590D02*
X027512Y008590D01*
X027610Y008689D02*
X027845Y008689D01*
X027943Y008787D02*
X027709Y008787D01*
X027807Y008886D02*
X028042Y008886D01*
X028140Y008984D02*
X027906Y008984D01*
X028004Y009083D02*
X028239Y009083D01*
X028323Y009181D02*
X028103Y009181D01*
X028201Y009280D02*
X028324Y009280D01*
X028251Y009612D02*
X023451Y004812D01*
X011551Y004812D01*
X011251Y005112D01*
X011251Y005712D01*
X010851Y005712D01*
X010785Y005726D01*
X010375Y005732D02*
X010195Y005732D01*
X010195Y005634D02*
X010375Y005634D01*
X010375Y005535D02*
X010195Y005535D01*
X010195Y005437D02*
X010375Y005437D01*
X010394Y005338D02*
X010176Y005338D01*
X010135Y005240D02*
X010435Y005240D01*
X010530Y005141D02*
X010040Y005141D01*
X009530Y005141D02*
X009351Y005141D01*
X009351Y005043D02*
X011051Y005043D01*
X011040Y005141D02*
X011051Y005141D01*
X011137Y004944D02*
X009351Y004944D01*
X009351Y004845D02*
X011235Y004845D01*
X011334Y004747D02*
X009351Y004747D01*
X009351Y004648D02*
X011432Y004648D01*
X011604Y005043D02*
X017738Y005043D01*
X017640Y005141D02*
X017040Y005141D01*
X017135Y005240D02*
X017541Y005240D01*
X017443Y005338D02*
X017176Y005338D01*
X017195Y005437D02*
X017344Y005437D01*
X017351Y005712D02*
X016851Y005712D01*
X016785Y005726D01*
X016375Y005732D02*
X016195Y005732D01*
X016195Y005634D02*
X016375Y005634D01*
X016375Y005535D02*
X016195Y005535D01*
X016195Y005437D02*
X016375Y005437D01*
X016394Y005338D02*
X016176Y005338D01*
X016195Y005384D02*
X016195Y006067D01*
X016133Y006218D01*
X016017Y006333D01*
X015867Y006396D01*
X015703Y006396D01*
X015553Y006333D01*
X015437Y006218D01*
X015375Y006067D01*
X015375Y005384D01*
X015437Y005234D01*
X015553Y005118D01*
X015703Y005056D01*
X015867Y005056D01*
X016017Y005118D01*
X016133Y005234D01*
X016195Y005384D01*
X016135Y005240D02*
X016435Y005240D01*
X016530Y005141D02*
X016040Y005141D01*
X015530Y005141D02*
X015040Y005141D01*
X015017Y005118D02*
X015133Y005234D01*
X015195Y005384D01*
X015195Y006067D01*
X015133Y006218D01*
X015017Y006333D01*
X014867Y006396D01*
X014703Y006396D01*
X014553Y006333D01*
X014437Y006218D01*
X014375Y006067D01*
X014375Y005384D01*
X014437Y005234D01*
X014553Y005118D01*
X014703Y005056D01*
X014867Y005056D01*
X015017Y005118D01*
X015135Y005240D02*
X015435Y005240D01*
X015394Y005338D02*
X015176Y005338D01*
X015195Y005437D02*
X015375Y005437D01*
X015375Y005535D02*
X015195Y005535D01*
X015195Y005634D02*
X015375Y005634D01*
X015375Y005732D02*
X015195Y005732D01*
X015195Y005831D02*
X015375Y005831D01*
X015375Y005929D02*
X015195Y005929D01*
X015195Y006028D02*
X015375Y006028D01*
X015400Y006126D02*
X015171Y006126D01*
X015126Y006225D02*
X015444Y006225D01*
X015543Y006324D02*
X015027Y006324D01*
X014543Y006324D02*
X014027Y006324D01*
X014017Y006333D02*
X013867Y006396D01*
X013815Y006396D01*
X013815Y005756D01*
X013755Y005756D01*
X013755Y006396D01*
X013703Y006396D01*
X013553Y006333D01*
X013437Y006218D01*
X013375Y006067D01*
X013375Y005756D01*
X013755Y005756D01*
X013755Y005696D01*
X013375Y005696D01*
X013375Y005384D01*
X013437Y005234D01*
X013553Y005118D01*
X013703Y005056D01*
X013755Y005056D01*
X013755Y005696D01*
X013815Y005696D01*
X013815Y005756D01*
X014195Y005756D01*
X014195Y006067D01*
X014133Y006218D01*
X014017Y006333D01*
X014126Y006225D02*
X014444Y006225D01*
X014400Y006126D02*
X014171Y006126D01*
X014195Y006028D02*
X014375Y006028D01*
X014375Y005929D02*
X014195Y005929D01*
X014195Y005831D02*
X014375Y005831D01*
X014375Y005732D02*
X013815Y005732D01*
X013815Y005696D02*
X014195Y005696D01*
X014195Y005384D01*
X014133Y005234D01*
X014017Y005118D01*
X013867Y005056D01*
X013815Y005056D01*
X013815Y005696D01*
X013815Y005634D02*
X013755Y005634D01*
X013755Y005732D02*
X012815Y005732D01*
X012815Y005756D02*
X013195Y005756D01*
X013195Y006067D01*
X013133Y006218D01*
X013017Y006333D01*
X012867Y006396D01*
X012815Y006396D01*
X012815Y005756D01*
X012755Y005756D01*
X012755Y005696D01*
X012375Y005696D01*
X012375Y005384D01*
X012437Y005234D01*
X012553Y005118D01*
X012703Y005056D01*
X012755Y005056D01*
X012755Y005696D01*
X012815Y005696D01*
X012815Y005756D01*
X012815Y005696D02*
X013195Y005696D01*
X013195Y005384D01*
X013133Y005234D01*
X013017Y005118D01*
X012867Y005056D01*
X012815Y005056D01*
X012815Y005696D01*
X012815Y005634D02*
X012755Y005634D01*
X012755Y005732D02*
X012195Y005732D01*
X012195Y005634D02*
X012375Y005634D01*
X012375Y005535D02*
X012195Y005535D01*
X012195Y005437D02*
X012375Y005437D01*
X012394Y005338D02*
X012176Y005338D01*
X012135Y005240D02*
X012435Y005240D01*
X012530Y005141D02*
X012040Y005141D01*
X011530Y005141D02*
X011505Y005141D01*
X012195Y005831D02*
X012375Y005831D01*
X012375Y005929D02*
X012195Y005929D01*
X012195Y006028D02*
X012375Y006028D01*
X012400Y006126D02*
X012171Y006126D01*
X012126Y006225D02*
X012444Y006225D01*
X012290Y006324D02*
X012027Y006324D01*
X011543Y006324D02*
X011027Y006324D01*
X011126Y006225D02*
X011444Y006225D01*
X011400Y006126D02*
X011171Y006126D01*
X011195Y006028D02*
X011375Y006028D01*
X011375Y005929D02*
X011195Y005929D01*
X010543Y006324D02*
X010027Y006324D01*
X010126Y006225D02*
X010444Y006225D01*
X010400Y006126D02*
X010171Y006126D01*
X010195Y006028D02*
X010375Y006028D01*
X010375Y005929D02*
X010195Y005929D01*
X010195Y005831D02*
X010375Y005831D01*
X009785Y005726D02*
X009751Y005812D01*
X009751Y006612D01*
X012451Y006612D01*
X018451Y006612D01*
X019451Y005612D01*
X020051Y005612D01*
X020096Y005710D01*
X020546Y005732D02*
X020646Y005732D01*
X020646Y005634D02*
X020546Y005634D01*
X020546Y005535D02*
X020646Y005535D01*
X020733Y005437D02*
X020459Y005437D01*
X020361Y005338D02*
X020832Y005338D01*
X021051Y005712D02*
X021096Y005710D01*
X021051Y005712D02*
X021051Y006112D01*
X020651Y006112D01*
X020551Y006212D01*
X019651Y006212D01*
X019553Y006028D02*
X019318Y006028D01*
X019220Y006126D02*
X019454Y006126D01*
X019356Y006225D02*
X019121Y006225D01*
X019023Y006324D02*
X019257Y006324D01*
X019159Y006422D02*
X018924Y006422D01*
X018826Y006521D02*
X019060Y006521D01*
X018962Y006619D02*
X018727Y006619D01*
X018629Y006718D02*
X018863Y006718D01*
X018764Y006816D02*
X012712Y006816D01*
X012579Y006915D02*
X018666Y006915D01*
X018567Y007013D02*
X012351Y007013D01*
X012351Y007112D02*
X018469Y007112D01*
X018370Y007210D02*
X012351Y007210D01*
X012351Y007309D02*
X018272Y007309D01*
X018173Y007408D02*
X012351Y007408D01*
X012351Y007506D02*
X013035Y007506D01*
X012998Y007521D02*
X013163Y007453D01*
X013942Y007453D01*
X014108Y007521D01*
X014234Y007648D01*
X014303Y007813D01*
X014303Y007992D01*
X014234Y008158D01*
X014108Y008284D01*
X013942Y008353D01*
X013163Y008353D01*
X012998Y008284D01*
X012871Y008158D01*
X012803Y007992D01*
X012803Y007813D01*
X012871Y007648D01*
X012998Y007521D01*
X012915Y007605D02*
X012351Y007605D01*
X012351Y007703D02*
X012848Y007703D01*
X012808Y007802D02*
X012351Y007802D01*
X012351Y007900D02*
X012803Y007900D01*
X012805Y007999D02*
X012351Y007999D01*
X012351Y008097D02*
X012846Y008097D01*
X012909Y008196D02*
X012351Y008196D01*
X012351Y008294D02*
X013022Y008294D01*
X013070Y008492D02*
X012351Y008492D01*
X012351Y008590D02*
X012929Y008590D01*
X012871Y008648D02*
X012998Y008521D01*
X013163Y008453D01*
X013942Y008453D01*
X014108Y008521D01*
X014234Y008648D01*
X014303Y008813D01*
X014303Y008992D01*
X014234Y009158D01*
X014108Y009284D01*
X013942Y009353D01*
X013163Y009353D01*
X012998Y009284D01*
X012871Y009158D01*
X012803Y008992D01*
X012803Y008813D01*
X012871Y008648D01*
X012854Y008689D02*
X012351Y008689D01*
X012351Y008787D02*
X012814Y008787D01*
X012803Y008886D02*
X012351Y008886D01*
X012351Y008984D02*
X012803Y008984D01*
X012840Y009083D02*
X012351Y009083D01*
X012351Y009181D02*
X012895Y009181D01*
X012993Y009280D02*
X012351Y009280D01*
X012351Y009378D02*
X016202Y009378D01*
X016301Y009280D02*
X014112Y009280D01*
X014211Y009181D02*
X016399Y009181D01*
X016498Y009083D02*
X014265Y009083D01*
X014303Y008984D02*
X016596Y008984D01*
X016695Y008886D02*
X014303Y008886D01*
X014292Y008787D02*
X016794Y008787D01*
X016892Y008689D02*
X014251Y008689D01*
X014176Y008590D02*
X016991Y008590D01*
X017089Y008492D02*
X014035Y008492D01*
X014084Y008294D02*
X017286Y008294D01*
X017385Y008196D02*
X014196Y008196D01*
X014259Y008097D02*
X017483Y008097D01*
X017582Y007999D02*
X014300Y007999D01*
X014303Y007900D02*
X017680Y007900D01*
X017779Y007802D02*
X014298Y007802D01*
X014257Y007703D02*
X017878Y007703D01*
X017976Y007605D02*
X014191Y007605D01*
X014070Y007506D02*
X018075Y007506D01*
X017871Y008393D02*
X017753Y008393D01*
X017655Y008492D02*
X017967Y008492D01*
X017188Y008393D02*
X012351Y008393D01*
X011951Y008393D02*
X010651Y008393D01*
X010651Y008492D02*
X011951Y008492D01*
X011951Y008590D02*
X010651Y008590D01*
X010251Y008590D02*
X002333Y008590D01*
X002571Y008689D02*
X010073Y008689D01*
X009941Y008787D02*
X002671Y008787D01*
X002769Y008886D02*
X009866Y008886D01*
X009825Y008984D02*
X002827Y008984D01*
X002868Y009083D02*
X004528Y009083D01*
X004242Y009181D02*
X002908Y009181D01*
X002920Y009280D02*
X004072Y009280D01*
X003974Y009378D02*
X002920Y009378D01*
X002920Y009477D02*
X003877Y009477D01*
X003820Y009576D02*
X002899Y009576D01*
X002859Y009674D02*
X003763Y009674D01*
X003724Y009773D02*
X002818Y009773D01*
X002747Y009871D02*
X003698Y009871D01*
X003671Y009970D02*
X002649Y009970D01*
X002518Y010068D02*
X003669Y010068D01*
X004909Y009083D02*
X009809Y009083D01*
X009809Y009181D02*
X005195Y009181D01*
X005365Y009280D02*
X009836Y009280D01*
X009877Y009378D02*
X005463Y009378D01*
X005560Y009477D02*
X009968Y009477D01*
X010137Y009576D02*
X005617Y009576D01*
X005674Y009674D02*
X010108Y009674D01*
X009956Y009773D02*
X005713Y009773D01*
X005739Y009871D02*
X009872Y009871D01*
X009831Y009970D02*
X005766Y009970D01*
X005769Y010068D02*
X009809Y010068D01*
X010569Y010068D02*
X010669Y010068D01*
X010669Y009970D02*
X010569Y009970D01*
X010569Y009871D02*
X010669Y009871D01*
X010669Y009773D02*
X010569Y009773D01*
X010569Y009674D02*
X010669Y009674D01*
X011100Y009576D02*
X011423Y009576D01*
X011423Y009477D02*
X011269Y009477D01*
X011361Y009378D02*
X011451Y009378D01*
X011401Y009280D02*
X011519Y009280D01*
X011429Y009181D02*
X011951Y009181D01*
X011951Y009083D02*
X011429Y009083D01*
X011412Y008984D02*
X011951Y008984D01*
X011951Y008886D02*
X011372Y008886D01*
X011296Y008787D02*
X011951Y008787D01*
X011951Y008689D02*
X011164Y008689D01*
X010651Y008294D02*
X011951Y008294D01*
X011951Y008196D02*
X010651Y008196D01*
X010651Y008097D02*
X011951Y008097D01*
X011951Y007999D02*
X010651Y007999D01*
X010622Y007900D02*
X011951Y007900D01*
X011951Y007802D02*
X010523Y007802D01*
X010425Y007703D02*
X011951Y007703D01*
X011951Y007605D02*
X010326Y007605D01*
X010228Y007506D02*
X011951Y007506D01*
X011951Y007408D02*
X010129Y007408D01*
X010031Y007309D02*
X011951Y007309D01*
X011951Y007210D02*
X009932Y007210D01*
X009833Y007112D02*
X011951Y007112D01*
X011951Y007013D02*
X009735Y007013D01*
X009734Y007012D02*
X009734Y007012D01*
X009651Y006812D02*
X009151Y006312D01*
X009151Y002812D01*
X009003Y002677D02*
X000321Y002677D01*
X000321Y002776D02*
X008951Y002776D01*
X008951Y002875D02*
X000321Y002875D01*
X000321Y002973D02*
X008951Y002973D01*
X008951Y003072D02*
X000321Y003072D01*
X000321Y003170D02*
X008951Y003170D01*
X008951Y003269D02*
X000321Y003269D01*
X000321Y003367D02*
X008951Y003367D01*
X008951Y003466D02*
X000321Y003466D01*
X000321Y003564D02*
X008951Y003564D01*
X008951Y003663D02*
X006719Y003663D01*
X006818Y003761D02*
X008951Y003761D01*
X008951Y003860D02*
X006896Y003860D01*
X006896Y003959D02*
X008951Y003959D01*
X008951Y004057D02*
X006896Y004057D01*
X006896Y004156D02*
X008951Y004156D01*
X008951Y004254D02*
X006976Y004254D01*
X007074Y004353D02*
X008951Y004353D01*
X008951Y004451D02*
X007173Y004451D01*
X007271Y004550D02*
X008951Y004550D01*
X008951Y004648D02*
X007370Y004648D01*
X007468Y004747D02*
X008951Y004747D01*
X008951Y004845D02*
X007567Y004845D01*
X007666Y004944D02*
X008951Y004944D01*
X008951Y005043D02*
X007764Y005043D01*
X007863Y005141D02*
X008951Y005141D01*
X008951Y005240D02*
X007961Y005240D01*
X008060Y005338D02*
X008951Y005338D01*
X008951Y005437D02*
X008158Y005437D01*
X008257Y005535D02*
X008951Y005535D01*
X008951Y005634D02*
X008355Y005634D01*
X008454Y005732D02*
X008951Y005732D01*
X008951Y005831D02*
X008552Y005831D01*
X008651Y005929D02*
X008951Y005929D01*
X008951Y006028D02*
X008749Y006028D01*
X008848Y006126D02*
X008951Y006126D01*
X008947Y006225D02*
X008951Y006225D01*
X009351Y006225D02*
X009444Y006225D01*
X009445Y006324D02*
X009543Y006324D01*
X009544Y006422D02*
X009551Y006422D01*
X009400Y006126D02*
X009351Y006126D01*
X009351Y006028D02*
X009375Y006028D01*
X009375Y005929D02*
X009351Y005929D01*
X009351Y005831D02*
X009375Y005831D01*
X009375Y005732D02*
X009351Y005732D01*
X009351Y005634D02*
X009375Y005634D01*
X009375Y005535D02*
X009351Y005535D01*
X009351Y005437D02*
X009375Y005437D01*
X009394Y005338D02*
X009351Y005338D01*
X009351Y005240D02*
X009435Y005240D01*
X007494Y005338D02*
X006737Y005338D01*
X006835Y005240D02*
X007396Y005240D01*
X007297Y005141D02*
X006896Y005141D01*
X006896Y005043D02*
X007198Y005043D01*
X007100Y004944D02*
X006896Y004944D01*
X006896Y004845D02*
X007001Y004845D01*
X006903Y004747D02*
X006803Y004747D01*
X006804Y004648D02*
X006705Y004648D01*
X006851Y004412D02*
X010451Y008012D01*
X010451Y009112D01*
X010551Y009112D01*
X010619Y009119D01*
X011129Y009674D02*
X011463Y009674D01*
X011547Y009773D02*
X011281Y009773D01*
X011366Y009871D02*
X011551Y009871D01*
X011551Y009970D02*
X011406Y009970D01*
X011429Y010068D02*
X011551Y010068D01*
X012151Y010412D02*
X012151Y006812D01*
X009651Y006812D01*
X012755Y006324D02*
X012815Y006324D01*
X012815Y006225D02*
X012755Y006225D01*
X012755Y006126D02*
X012815Y006126D01*
X012815Y006028D02*
X012755Y006028D01*
X012755Y005929D02*
X012815Y005929D01*
X012815Y005831D02*
X012755Y005831D01*
X012755Y005535D02*
X012815Y005535D01*
X012815Y005437D02*
X012755Y005437D01*
X012755Y005338D02*
X012815Y005338D01*
X012815Y005240D02*
X012755Y005240D01*
X012755Y005141D02*
X012815Y005141D01*
X013040Y005141D02*
X013530Y005141D01*
X013435Y005240D02*
X013135Y005240D01*
X013176Y005338D02*
X013394Y005338D01*
X013375Y005437D02*
X013195Y005437D01*
X013195Y005535D02*
X013375Y005535D01*
X013375Y005634D02*
X013195Y005634D01*
X013195Y005831D02*
X013375Y005831D01*
X013375Y005929D02*
X013195Y005929D01*
X013195Y006028D02*
X013375Y006028D01*
X013400Y006126D02*
X013171Y006126D01*
X013126Y006225D02*
X013444Y006225D01*
X013543Y006324D02*
X013027Y006324D01*
X013755Y006324D02*
X013815Y006324D01*
X013815Y006225D02*
X013755Y006225D01*
X013755Y006126D02*
X013815Y006126D01*
X013815Y006028D02*
X013755Y006028D01*
X013755Y005929D02*
X013815Y005929D01*
X013815Y005831D02*
X013755Y005831D01*
X013755Y005535D02*
X013815Y005535D01*
X013815Y005437D02*
X013755Y005437D01*
X013755Y005338D02*
X013815Y005338D01*
X013815Y005240D02*
X013755Y005240D01*
X013755Y005141D02*
X013815Y005141D01*
X014040Y005141D02*
X014530Y005141D01*
X014435Y005240D02*
X014135Y005240D01*
X014176Y005338D02*
X014394Y005338D01*
X014375Y005437D02*
X014195Y005437D01*
X014195Y005535D02*
X014375Y005535D01*
X014375Y005634D02*
X014195Y005634D01*
X016027Y006324D02*
X016543Y006324D01*
X016444Y006225D02*
X016126Y006225D01*
X016171Y006126D02*
X016400Y006126D01*
X016375Y006028D02*
X016195Y006028D01*
X016195Y005929D02*
X016375Y005929D01*
X016375Y005831D02*
X016195Y005831D01*
X017027Y006324D02*
X018457Y006324D01*
X018556Y006225D02*
X017126Y006225D01*
X017171Y006126D02*
X018654Y006126D01*
X018753Y006028D02*
X017195Y006028D01*
X017195Y005929D02*
X018851Y005929D01*
X018950Y005831D02*
X017516Y005831D01*
X017614Y005732D02*
X019048Y005732D01*
X019147Y005634D02*
X017713Y005634D01*
X017811Y005535D02*
X019246Y005535D01*
X019344Y005437D02*
X017910Y005437D01*
X018008Y005338D02*
X019832Y005338D01*
X019646Y005831D02*
X019516Y005831D01*
X019417Y005929D02*
X019679Y005929D01*
X020513Y005929D02*
X020551Y005929D01*
X020546Y005831D02*
X020646Y005831D01*
X020723Y006324D02*
X020846Y006324D01*
X020748Y006422D02*
X020444Y006422D01*
X020543Y006521D02*
X020649Y006521D01*
X020646Y006619D02*
X020546Y006619D01*
X021221Y006225D02*
X023881Y006225D01*
X023782Y006126D02*
X021316Y006126D01*
X021415Y006028D02*
X023684Y006028D01*
X023585Y005929D02*
X021513Y005929D01*
X021546Y005831D02*
X023487Y005831D01*
X023388Y005732D02*
X021546Y005732D01*
X021546Y005634D02*
X023290Y005634D01*
X023191Y005535D02*
X021546Y005535D01*
X021459Y005437D02*
X023093Y005437D01*
X022994Y005338D02*
X021361Y005338D01*
X021346Y006324D02*
X023980Y006324D01*
X024078Y006422D02*
X021444Y006422D01*
X021543Y006521D02*
X024177Y006521D01*
X024275Y006619D02*
X021546Y006619D01*
X021546Y006718D02*
X024374Y006718D01*
X024472Y006816D02*
X021546Y006816D01*
X021528Y006915D02*
X024571Y006915D01*
X024669Y007013D02*
X021429Y007013D01*
X020646Y007802D02*
X020546Y007802D01*
X020542Y007900D02*
X020650Y007900D01*
X020748Y007999D02*
X020444Y007999D01*
X021514Y008492D02*
X021547Y008492D01*
X021546Y008590D02*
X021646Y008590D01*
X021546Y008689D02*
X021745Y008689D01*
X021843Y008787D02*
X021546Y008787D01*
X021546Y008886D02*
X021942Y008886D01*
X022040Y008984D02*
X021458Y008984D01*
X021360Y009083D02*
X022139Y009083D01*
X022237Y009181D02*
X016965Y009181D01*
X016104Y009477D02*
X012351Y009477D01*
X012351Y009576D02*
X016005Y009576D01*
X015907Y009674D02*
X012351Y009674D01*
X012351Y009773D02*
X015808Y009773D01*
X015710Y009871D02*
X012351Y009871D01*
X012351Y009970D02*
X015611Y009970D01*
X015513Y010068D02*
X012351Y010068D01*
X012351Y010167D02*
X015414Y010167D01*
X015315Y010265D02*
X012351Y010265D01*
X012385Y010364D02*
X015217Y010364D01*
X014937Y010462D02*
X012484Y010462D01*
X012583Y010561D02*
X014858Y010561D01*
X014823Y010659D02*
X012681Y010659D01*
X012780Y010758D02*
X014823Y010758D01*
X014855Y010857D02*
X012878Y010857D01*
X012151Y010412D02*
X017751Y016012D01*
X018451Y016012D01*
X020651Y018212D01*
X020884Y018444D02*
X024236Y018444D01*
X024335Y018346D02*
X020951Y018346D01*
X020980Y018247D02*
X022403Y018247D01*
X022305Y018149D02*
X020980Y018149D01*
X020939Y018050D02*
X022206Y018050D01*
X022108Y017952D02*
X020855Y017952D01*
X020991Y017755D02*
X020476Y017755D01*
X020575Y017853D02*
X021089Y017853D01*
X020892Y017656D02*
X020378Y017656D01*
X020279Y017558D02*
X020882Y017558D01*
X020882Y017459D02*
X020181Y017459D01*
X020082Y017360D02*
X020882Y017360D01*
X020926Y017262D02*
X019983Y017262D01*
X020065Y017163D02*
X021025Y017163D01*
X021082Y017065D02*
X023951Y017065D01*
X023951Y017163D02*
X021559Y017163D01*
X021658Y017262D02*
X023926Y017262D01*
X023882Y017360D02*
X022082Y017360D01*
X022181Y017459D02*
X023882Y017459D01*
X023882Y017558D02*
X022279Y017558D01*
X022378Y017656D02*
X023892Y017656D01*
X023991Y017755D02*
X022476Y017755D01*
X022575Y017853D02*
X024089Y017853D01*
X024495Y017853D02*
X024528Y017853D01*
X024593Y017755D02*
X024623Y017755D01*
X024951Y017712D02*
X024551Y018112D01*
X022551Y018112D01*
X021951Y017512D01*
X021351Y017512D01*
X021292Y017476D01*
X021593Y017755D02*
X021911Y017755D01*
X022009Y017853D02*
X021495Y017853D01*
X021180Y016966D02*
X023951Y016966D01*
X023951Y016868D02*
X021279Y016868D01*
X021377Y016769D02*
X023951Y016769D01*
X023951Y016671D02*
X021476Y016671D01*
X021574Y016572D02*
X023951Y016572D01*
X023951Y016474D02*
X021673Y016474D01*
X021771Y016375D02*
X023951Y016375D01*
X023951Y016276D02*
X021870Y016276D01*
X021969Y016178D02*
X023951Y016178D01*
X023951Y016079D02*
X022067Y016079D01*
X022166Y015981D02*
X023937Y015981D01*
X023838Y015882D02*
X022264Y015882D01*
X022544Y015784D02*
X023740Y015784D01*
X023641Y015685D02*
X022635Y015685D01*
X022676Y015587D02*
X023543Y015587D01*
X023444Y015488D02*
X022680Y015488D01*
X022656Y015390D02*
X023345Y015390D01*
X023247Y015291D02*
X022594Y015291D01*
X022437Y015192D02*
X023148Y015192D01*
X023050Y015094D02*
X022730Y015094D01*
X022831Y014995D02*
X022951Y014995D01*
X022551Y014812D02*
X022051Y014312D01*
X018451Y014312D01*
X018372Y014340D01*
X017766Y014010D02*
X016032Y014010D01*
X016130Y014109D02*
X017681Y014109D01*
X017640Y014207D02*
X016229Y014207D01*
X016327Y014306D02*
X017622Y014306D01*
X017622Y014404D02*
X016426Y014404D01*
X016524Y014503D02*
X017653Y014503D01*
X017697Y014601D02*
X016623Y014601D01*
X016721Y014700D02*
X017796Y014700D01*
X017817Y014958D02*
X017983Y014890D01*
X018322Y014890D01*
X018322Y015290D01*
X017622Y015290D01*
X017622Y015250D01*
X017691Y015085D01*
X017817Y014958D01*
X017780Y014995D02*
X017017Y014995D01*
X016918Y014897D02*
X017966Y014897D01*
X017687Y015094D02*
X017116Y015094D01*
X017214Y015192D02*
X017646Y015192D01*
X017622Y015390D02*
X017622Y015429D01*
X017691Y015595D01*
X017817Y015721D01*
X017983Y015790D01*
X018322Y015790D01*
X018322Y015390D01*
X018322Y015290D01*
X018422Y015290D01*
X018422Y014890D01*
X018762Y014890D01*
X018927Y014958D01*
X019054Y015085D01*
X019122Y015250D01*
X019122Y015290D01*
X018422Y015290D01*
X018422Y015390D01*
X018322Y015390D01*
X017622Y015390D01*
X017647Y015488D02*
X017510Y015488D01*
X017608Y015587D02*
X017687Y015587D01*
X017707Y015685D02*
X017781Y015685D01*
X017805Y015784D02*
X017968Y015784D01*
X018322Y015784D02*
X018422Y015784D01*
X018422Y015790D02*
X018422Y015390D01*
X019122Y015390D01*
X019122Y015429D01*
X019054Y015595D01*
X018927Y015721D01*
X018762Y015790D01*
X018422Y015790D01*
X018422Y015685D02*
X018322Y015685D01*
X018322Y015587D02*
X018422Y015587D01*
X018422Y015488D02*
X018322Y015488D01*
X018322Y015390D02*
X017411Y015390D01*
X017313Y015291D02*
X018322Y015291D01*
X018322Y015192D02*
X018422Y015192D01*
X018422Y015094D02*
X018322Y015094D01*
X018322Y014995D02*
X018422Y014995D01*
X018422Y014897D02*
X018322Y014897D01*
X018422Y015291D02*
X022108Y015291D01*
X022047Y015390D02*
X018422Y015390D01*
X019057Y015587D02*
X021994Y015587D01*
X022023Y015488D02*
X019098Y015488D01*
X018963Y015685D02*
X021896Y015685D01*
X021797Y015784D02*
X018776Y015784D01*
X018604Y015882D02*
X021698Y015882D01*
X021600Y015981D02*
X018702Y015981D01*
X018801Y016079D02*
X021501Y016079D01*
X021403Y016178D02*
X018899Y016178D01*
X018998Y016276D02*
X021304Y016276D01*
X021206Y016375D02*
X019097Y016375D01*
X019195Y016474D02*
X021107Y016474D01*
X021009Y016572D02*
X019294Y016572D01*
X019392Y016671D02*
X019629Y016671D01*
X019555Y016769D02*
X019491Y016769D01*
X019851Y016912D02*
X020951Y016912D01*
X022351Y015512D01*
X022265Y015192D02*
X019098Y015192D01*
X019057Y015094D02*
X022373Y015094D01*
X022271Y014995D02*
X018964Y014995D01*
X018779Y014897D02*
X022231Y014897D01*
X022223Y014798D02*
X016820Y014798D01*
X016550Y015094D02*
X013452Y015094D01*
X013493Y014995D02*
X016451Y014995D01*
X016353Y014897D02*
X013515Y014897D01*
X013515Y014798D02*
X016254Y014798D01*
X016156Y014700D02*
X013489Y014700D01*
X013449Y014601D02*
X016057Y014601D01*
X015959Y014503D02*
X013353Y014503D01*
X013160Y014404D02*
X015860Y014404D01*
X015761Y014306D02*
X011951Y014306D01*
X011551Y014306D02*
X010127Y014306D01*
X010226Y014404D02*
X011551Y014404D01*
X011551Y014503D02*
X010324Y014503D01*
X010423Y014601D02*
X011551Y014601D01*
X011551Y014700D02*
X010521Y014700D01*
X010620Y014798D02*
X011554Y014798D01*
X011653Y014897D02*
X010718Y014897D01*
X010817Y014995D02*
X012038Y014995D01*
X012079Y015094D02*
X010916Y015094D01*
X011014Y015192D02*
X012170Y015192D01*
X012350Y015291D02*
X011113Y015291D01*
X011211Y015390D02*
X016845Y015390D01*
X016747Y015291D02*
X013181Y015291D01*
X013361Y015192D02*
X016648Y015192D01*
X016944Y015488D02*
X011310Y015488D01*
X011408Y015587D02*
X017043Y015587D01*
X017141Y015685D02*
X011507Y015685D01*
X011605Y015784D02*
X017240Y015784D01*
X017338Y015882D02*
X011704Y015882D01*
X011802Y015981D02*
X017437Y015981D01*
X017535Y016079D02*
X011901Y016079D01*
X011951Y016178D02*
X017634Y016178D01*
X018432Y016276D02*
X011951Y016276D01*
X011951Y016375D02*
X018531Y016375D01*
X020074Y016671D02*
X020910Y016671D01*
X020009Y017853D02*
X011936Y017853D01*
X011936Y017755D02*
X011836Y017755D01*
X011836Y017832D02*
X011836Y017402D01*
X011460Y017402D01*
X011284Y017475D01*
X011149Y017610D01*
X011076Y017787D01*
X011076Y017832D01*
X011836Y017832D01*
X011836Y017853D02*
X007036Y017853D01*
X007036Y017755D02*
X011089Y017755D01*
X011130Y017656D02*
X007012Y017656D01*
X007036Y017744D02*
X006964Y017477D01*
X006826Y017237D01*
X006631Y017042D01*
X006391Y016904D01*
X006124Y016832D01*
X005848Y016832D01*
X005581Y016904D01*
X005341Y017042D01*
X005146Y017237D01*
X005008Y017477D01*
X004936Y017744D01*
X004936Y018020D01*
X005008Y018287D01*
X005146Y018527D01*
X005341Y018722D01*
X005581Y018860D01*
X005848Y018932D01*
X006124Y018932D01*
X006391Y018860D01*
X006631Y018722D01*
X006826Y018527D01*
X006964Y018287D01*
X007036Y018020D01*
X007036Y017744D01*
X006986Y017558D02*
X011202Y017558D01*
X011323Y017459D02*
X006954Y017459D01*
X006897Y017360D02*
X011457Y017360D01*
X011257Y017262D02*
X006840Y017262D01*
X006752Y017163D02*
X011158Y017163D01*
X011112Y017065D02*
X006654Y017065D01*
X006500Y016966D02*
X011076Y016966D01*
X011076Y016868D02*
X006257Y016868D01*
X005715Y016868D02*
X000321Y016868D01*
X000321Y016966D02*
X005472Y016966D01*
X005318Y017065D02*
X000321Y017065D01*
X000321Y017163D02*
X005220Y017163D01*
X005132Y017262D02*
X000321Y017262D01*
X000321Y017360D02*
X005075Y017360D01*
X005018Y017459D02*
X000321Y017459D01*
X000321Y017558D02*
X004986Y017558D01*
X004959Y017656D02*
X000321Y017656D01*
X000321Y017755D02*
X004936Y017755D01*
X004936Y017853D02*
X000321Y017853D01*
X000321Y017952D02*
X004936Y017952D01*
X004944Y018050D02*
X000321Y018050D01*
X000321Y018149D02*
X004970Y018149D01*
X004997Y018247D02*
X000321Y018247D01*
X000321Y018346D02*
X005041Y018346D01*
X005098Y018444D02*
X000321Y018444D01*
X000321Y018543D02*
X005162Y018543D01*
X005261Y018641D02*
X000321Y018641D01*
X000321Y018740D02*
X005372Y018740D01*
X005543Y018839D02*
X000321Y018839D01*
X000321Y018937D02*
X011076Y018937D01*
X011076Y018839D02*
X006429Y018839D01*
X006600Y018740D02*
X011095Y018740D01*
X011136Y018641D02*
X006711Y018641D01*
X006810Y018543D02*
X011216Y018543D01*
X011358Y018444D02*
X006874Y018444D01*
X006931Y018346D02*
X011422Y018346D01*
X011242Y018247D02*
X006975Y018247D01*
X007002Y018149D02*
X011147Y018149D01*
X011106Y018050D02*
X007028Y018050D01*
X007036Y017952D02*
X011076Y017952D01*
X011836Y017952D02*
X011936Y017952D01*
X011936Y018050D02*
X011836Y018050D01*
X011836Y018149D02*
X011936Y018149D01*
X011936Y018247D02*
X011836Y018247D01*
X011836Y018346D02*
X011936Y018346D01*
X011936Y017656D02*
X011836Y017656D01*
X011836Y017558D02*
X011936Y017558D01*
X011936Y017459D02*
X011836Y017459D01*
X011083Y016769D02*
X002499Y016769D01*
X002573Y016739D02*
X002279Y016860D01*
X001961Y016860D01*
X001667Y016739D01*
X001442Y016514D01*
X001320Y016220D01*
X001320Y015901D01*
X001442Y015607D01*
X001667Y015382D01*
X001961Y015261D01*
X002279Y015261D01*
X002573Y015382D01*
X002798Y015607D01*
X002920Y015901D01*
X002920Y016220D01*
X002798Y016514D01*
X002573Y016739D01*
X002641Y016671D02*
X011124Y016671D01*
X011187Y016572D02*
X002739Y016572D01*
X002814Y016474D02*
X011288Y016474D01*
X011551Y016375D02*
X002855Y016375D01*
X002896Y016276D02*
X011532Y016276D01*
X011434Y016178D02*
X002920Y016178D01*
X002920Y016079D02*
X011335Y016079D01*
X011237Y015981D02*
X002920Y015981D01*
X002912Y015882D02*
X011138Y015882D01*
X011040Y015784D02*
X002871Y015784D01*
X002830Y015685D02*
X010941Y015685D01*
X010843Y015587D02*
X002777Y015587D01*
X002679Y015488D02*
X010744Y015488D01*
X010645Y015390D02*
X002580Y015390D01*
X002352Y015291D02*
X010547Y015291D01*
X010448Y015192D02*
X000321Y015192D01*
X000321Y015094D02*
X010350Y015094D01*
X010029Y014207D02*
X011551Y014207D01*
X011551Y014109D02*
X009930Y014109D01*
X009832Y014010D02*
X011551Y014010D01*
X011551Y013911D02*
X009733Y013911D01*
X009634Y013813D02*
X011551Y013813D01*
X011551Y013714D02*
X009376Y013714D01*
X009376Y013616D02*
X011551Y013616D01*
X011551Y013517D02*
X009376Y013517D01*
X009286Y013419D02*
X011551Y013419D01*
X011551Y013320D02*
X009188Y013320D01*
X009051Y013712D02*
X008966Y013679D01*
X009051Y013712D02*
X009051Y014012D01*
X008661Y014404D02*
X000321Y014404D01*
X000321Y014503D02*
X008562Y014503D01*
X008556Y014601D02*
X000321Y014601D01*
X000321Y015291D02*
X001887Y015291D01*
X001659Y015390D02*
X000321Y015390D01*
X000321Y015488D02*
X001561Y015488D01*
X001462Y015587D02*
X000321Y015587D01*
X000321Y015685D02*
X001409Y015685D01*
X001368Y015784D02*
X000321Y015784D01*
X000321Y015882D02*
X001328Y015882D01*
X001320Y015981D02*
X000321Y015981D01*
X000321Y016079D02*
X001320Y016079D01*
X001320Y016178D02*
X000321Y016178D01*
X000321Y016276D02*
X001343Y016276D01*
X001384Y016375D02*
X000321Y016375D01*
X000321Y016474D02*
X001425Y016474D01*
X001500Y016572D02*
X000321Y016572D01*
X000321Y016671D02*
X001599Y016671D01*
X001740Y016769D02*
X000321Y016769D01*
X000321Y019036D02*
X011100Y019036D01*
X011141Y019134D02*
X000321Y019134D01*
X000321Y019233D02*
X011228Y019233D01*
X011386Y019331D02*
X000321Y019331D01*
X000321Y019430D02*
X011851Y019430D01*
X011851Y019528D02*
X000321Y019528D01*
X000321Y019627D02*
X011883Y019627D01*
X011981Y019725D02*
X000321Y019725D01*
X000321Y019824D02*
X012080Y019824D01*
X012178Y019923D02*
X000321Y019923D01*
X000321Y020021D02*
X012277Y020021D01*
X012376Y020120D02*
X000321Y020120D01*
X000321Y020218D02*
X012474Y020218D01*
X012573Y020317D02*
X000321Y020317D01*
X000321Y020415D02*
X012671Y020415D01*
X012770Y020514D02*
X000321Y020514D01*
X000321Y020612D02*
X012868Y020612D01*
X012967Y020711D02*
X000321Y020711D01*
X000321Y020809D02*
X013065Y020809D01*
X013164Y020908D02*
X000321Y020908D01*
X000321Y021007D02*
X013262Y021007D01*
X013361Y021105D02*
X000321Y021105D01*
X000321Y021204D02*
X013460Y021204D01*
X013558Y021302D02*
X000321Y021302D01*
X000321Y021401D02*
X013657Y021401D01*
X013755Y021499D02*
X000321Y021499D01*
X000321Y021598D02*
X013854Y021598D01*
X013952Y021696D02*
X000321Y021696D01*
X000321Y021795D02*
X014051Y021795D01*
X014149Y021893D02*
X000321Y021893D01*
X000321Y021992D02*
X014248Y021992D01*
X014346Y022091D02*
X000321Y022091D01*
X000321Y022189D02*
X014445Y022189D01*
X014544Y022288D02*
X005438Y022288D01*
X005439Y022386D02*
X014642Y022386D01*
X014741Y022485D02*
X005439Y022485D01*
X005439Y022583D02*
X014839Y022583D01*
X014938Y022682D02*
X005439Y022682D01*
X005439Y022780D02*
X020525Y022780D01*
X020566Y022879D02*
X005439Y022879D01*
X005439Y022977D02*
X020642Y022977D01*
X020786Y023076D02*
X005439Y023076D01*
X005439Y023174D02*
X036202Y023174D01*
X036202Y023076D02*
X021741Y023076D01*
X021885Y022977D02*
X036202Y022977D01*
X036202Y022879D02*
X021961Y022879D01*
X022002Y022780D02*
X036202Y022780D01*
X036202Y022682D02*
X022014Y022682D01*
X022014Y022583D02*
X036202Y022583D01*
X036202Y022485D02*
X021977Y022485D01*
X021924Y022386D02*
X036202Y022386D01*
X036202Y022288D02*
X021825Y022288D01*
X021251Y022612D02*
X021151Y022512D01*
X015051Y022512D01*
X012051Y019512D01*
X012051Y018912D01*
X011951Y018912D01*
X011886Y018882D01*
X012386Y019331D02*
X013849Y019331D01*
X013948Y019233D02*
X012544Y019233D01*
X012449Y019627D02*
X013554Y019627D01*
X013455Y019725D02*
X012547Y019725D01*
X012646Y019824D02*
X013357Y019824D01*
X013093Y019923D02*
X012744Y019923D01*
X012843Y020021D02*
X012978Y020021D01*
X013251Y020212D02*
X014051Y019412D01*
X019351Y019412D01*
X019351Y019212D01*
X019351Y019412D02*
X024051Y019412D01*
X024751Y018712D01*
X024885Y018412D02*
X024937Y018434D01*
X025030Y018526D01*
X025080Y018647D01*
X025080Y018778D01*
X025030Y018898D01*
X024937Y018991D01*
X024816Y019041D01*
X024706Y019041D01*
X024334Y019412D01*
X025068Y019412D01*
X025823Y018658D01*
X025823Y018547D01*
X025873Y018426D01*
X025887Y018412D01*
X024885Y018412D01*
X024948Y018444D02*
X025865Y018444D01*
X025824Y018543D02*
X025036Y018543D01*
X025077Y018641D02*
X025823Y018641D01*
X025741Y018740D02*
X025080Y018740D01*
X025054Y018839D02*
X025642Y018839D01*
X025544Y018937D02*
X024991Y018937D01*
X024829Y019036D02*
X025445Y019036D01*
X025347Y019134D02*
X024612Y019134D01*
X024514Y019233D02*
X025248Y019233D01*
X025149Y019331D02*
X024415Y019331D01*
X024145Y019036D02*
X019633Y019036D01*
X019630Y019026D02*
X019616Y019012D01*
X024168Y019012D01*
X023968Y019212D01*
X019680Y019212D01*
X019680Y019147D01*
X019630Y019026D01*
X019674Y019134D02*
X024047Y019134D01*
X024138Y018543D02*
X017146Y018543D01*
X016051Y019612D02*
X014351Y021312D01*
X014041Y021204D02*
X014025Y021204D01*
X014036Y021215D02*
X014073Y021126D01*
X014165Y021034D01*
X014286Y020984D01*
X014397Y020984D01*
X015768Y019612D01*
X014134Y019612D01*
X013580Y020167D01*
X013580Y020278D01*
X013530Y020398D01*
X013437Y020491D01*
X013349Y020527D01*
X014036Y021215D01*
X014094Y021105D02*
X013927Y021105D01*
X013828Y021007D02*
X014231Y021007D01*
X014473Y020908D02*
X013730Y020908D01*
X013631Y020809D02*
X014571Y020809D01*
X014670Y020711D02*
X013532Y020711D01*
X013434Y020612D02*
X014768Y020612D01*
X014867Y020514D02*
X013382Y020514D01*
X013513Y020415D02*
X014966Y020415D01*
X015064Y020317D02*
X013563Y020317D01*
X013580Y020218D02*
X015163Y020218D01*
X015261Y020120D02*
X013627Y020120D01*
X013725Y020021D02*
X015360Y020021D01*
X015458Y019923D02*
X013824Y019923D01*
X013922Y019824D02*
X015557Y019824D01*
X015655Y019725D02*
X014021Y019725D01*
X014119Y019627D02*
X015754Y019627D01*
X016051Y019612D02*
X025151Y019612D01*
X026151Y018612D01*
X026454Y018740D02*
X027396Y018740D01*
X027453Y018797D02*
X027068Y018412D01*
X026416Y018412D01*
X026430Y018426D01*
X026480Y018547D01*
X026480Y018678D01*
X026430Y018798D01*
X026337Y018891D01*
X026216Y018941D01*
X026106Y018941D01*
X025434Y019612D01*
X026768Y019612D01*
X027223Y019158D01*
X027223Y019047D01*
X027273Y018926D01*
X027365Y018834D01*
X027453Y018797D01*
X027361Y018839D02*
X026389Y018839D01*
X026225Y018937D02*
X027268Y018937D01*
X027227Y019036D02*
X026011Y019036D01*
X025912Y019134D02*
X027223Y019134D01*
X027148Y019233D02*
X025814Y019233D01*
X025715Y019331D02*
X027049Y019331D01*
X026951Y019430D02*
X025617Y019430D01*
X025518Y019528D02*
X026852Y019528D01*
X026851Y019812D02*
X022551Y019812D01*
X021351Y021012D01*
X021351Y021612D01*
X021264Y021662D01*
X021551Y021204D02*
X025427Y021204D01*
X025427Y021263D02*
X025427Y020890D01*
X025691Y020627D01*
X026064Y020627D01*
X026327Y020890D01*
X026327Y021263D01*
X026064Y021527D01*
X025691Y021527D01*
X025427Y021263D01*
X025467Y021302D02*
X021840Y021302D01*
X021938Y021401D02*
X025565Y021401D01*
X025664Y021499D02*
X021983Y021499D01*
X021551Y021105D02*
X025427Y021105D01*
X025427Y021007D02*
X021640Y021007D01*
X021738Y020908D02*
X025427Y020908D01*
X025508Y020809D02*
X021837Y020809D01*
X021936Y020711D02*
X025607Y020711D01*
X026148Y020711D02*
X030967Y020711D01*
X031065Y020809D02*
X026247Y020809D01*
X026327Y020908D02*
X031164Y020908D01*
X031262Y021007D02*
X026327Y021007D01*
X026327Y021105D02*
X031361Y021105D01*
X031460Y021204D02*
X026327Y021204D01*
X026288Y021302D02*
X031558Y021302D01*
X031651Y021112D02*
X035151Y021112D01*
X035207Y021041D01*
X034677Y020514D02*
X031335Y020514D01*
X031434Y020612D02*
X034481Y020612D01*
X034383Y020711D02*
X031532Y020711D01*
X031631Y020809D02*
X034328Y020809D01*
X034287Y020908D02*
X031730Y020908D01*
X031651Y021112D02*
X029251Y018712D01*
X028351Y018712D01*
X027351Y017712D01*
X027126Y017952D02*
X025176Y017952D01*
X025137Y017991D02*
X025085Y018012D01*
X027217Y018012D01*
X027165Y017991D01*
X027073Y017898D01*
X027023Y017778D01*
X027023Y017647D01*
X027073Y017526D01*
X027087Y017512D01*
X025216Y017512D01*
X025230Y017526D01*
X025280Y017647D01*
X025280Y017778D01*
X025230Y017898D01*
X025137Y017991D01*
X025248Y017853D02*
X027054Y017853D01*
X027023Y017755D02*
X025280Y017755D01*
X025280Y017656D02*
X027023Y017656D01*
X027060Y017558D02*
X025242Y017558D01*
X024292Y017476D02*
X024151Y017312D01*
X028651Y017312D01*
X028432Y017558D02*
X027642Y017558D01*
X027630Y017526D02*
X027680Y017647D01*
X027680Y017758D01*
X028434Y018512D01*
X029168Y018512D01*
X029334Y018512D01*
X029536Y018715D01*
X029573Y018626D01*
X029665Y018534D01*
X029786Y018484D01*
X029916Y018484D01*
X030037Y018534D01*
X030116Y018612D01*
X030268Y018612D01*
X031151Y017730D01*
X031151Y017177D01*
X031137Y017191D01*
X031016Y017241D01*
X030886Y017241D01*
X030765Y017191D01*
X030687Y017112D01*
X028916Y017112D01*
X028930Y017126D01*
X028980Y017247D01*
X028980Y017378D01*
X028930Y017498D01*
X028837Y017591D01*
X028716Y017641D01*
X028586Y017641D01*
X028465Y017591D01*
X028387Y017512D01*
X027616Y017512D01*
X027630Y017526D01*
X027680Y017656D02*
X031151Y017656D01*
X031151Y017558D02*
X028871Y017558D01*
X028946Y017459D02*
X031151Y017459D01*
X031151Y017360D02*
X028980Y017360D01*
X028980Y017262D02*
X031151Y017262D01*
X030738Y017163D02*
X028945Y017163D01*
X028387Y017112D02*
X028387Y017112D01*
X028548Y016474D02*
X027595Y016474D01*
X027497Y016375D02*
X028463Y016375D01*
X028423Y016276D02*
X027398Y016276D01*
X027299Y016178D02*
X028423Y016178D01*
X028751Y016212D02*
X029851Y015112D01*
X029951Y015112D01*
X031751Y013312D01*
X031751Y011912D01*
X031551Y012112D02*
X022651Y012112D01*
X020951Y010412D01*
X020768Y010812D02*
X017934Y010812D01*
X017680Y011067D01*
X017680Y011112D01*
X017691Y011085D01*
X017817Y010958D01*
X017983Y010890D01*
X018762Y010890D01*
X018927Y010958D01*
X019054Y011085D01*
X019122Y011250D01*
X019122Y011312D01*
X019234Y011312D01*
X019351Y011430D01*
X019351Y011595D01*
X019351Y011630D01*
X019734Y012012D01*
X021834Y012012D01*
X021951Y012130D01*
X022206Y012384D01*
X022316Y012384D01*
X022357Y012401D01*
X020768Y010812D01*
X020813Y010857D02*
X017890Y010857D01*
X017825Y010955D02*
X017791Y010955D01*
X017722Y011054D02*
X017693Y011054D01*
X017622Y011349D02*
X017579Y011349D01*
X017630Y011448D02*
X016099Y011448D01*
X016000Y011546D02*
X017671Y011546D01*
X017741Y011645D02*
X015901Y011645D01*
X015803Y011743D02*
X017871Y011743D01*
X017983Y011890D02*
X017817Y011958D01*
X017691Y012085D01*
X017622Y012250D01*
X017622Y012429D01*
X017691Y012595D01*
X017817Y012721D01*
X017983Y012790D01*
X018762Y012790D01*
X018927Y012721D01*
X019054Y012595D01*
X019122Y012429D01*
X019122Y012250D01*
X019054Y012085D01*
X018927Y011958D01*
X018762Y011890D01*
X017983Y011890D01*
X017860Y011941D02*
X015606Y011941D01*
X015507Y012039D02*
X017737Y012039D01*
X017669Y012138D02*
X015409Y012138D01*
X015310Y012236D02*
X017628Y012236D01*
X017622Y012335D02*
X015212Y012335D01*
X015113Y012433D02*
X017624Y012433D01*
X017665Y012532D02*
X015080Y012532D01*
X015058Y012630D02*
X017726Y012630D01*
X017836Y012729D02*
X014999Y012729D01*
X014849Y012827D02*
X019253Y012827D01*
X019352Y012729D02*
X018909Y012729D01*
X019018Y012630D02*
X019450Y012630D01*
X019551Y012812D02*
X019251Y013112D01*
X018651Y013112D01*
X018451Y013312D01*
X018372Y013340D01*
X017751Y013025D02*
X015046Y013025D01*
X015145Y013123D02*
X017675Y013123D01*
X017634Y013222D02*
X015243Y013222D01*
X015342Y013320D02*
X017622Y013320D01*
X017622Y013419D02*
X015440Y013419D01*
X015539Y013517D02*
X017659Y013517D01*
X017712Y013616D02*
X015637Y013616D01*
X015736Y013714D02*
X017810Y013714D01*
X017931Y013911D02*
X015933Y013911D01*
X015834Y013813D02*
X019689Y013813D01*
X019741Y013865D02*
X019501Y013625D01*
X019501Y013485D01*
X019881Y013485D01*
X019881Y013865D01*
X019741Y013865D01*
X019881Y013813D02*
X019941Y013813D01*
X019941Y013865D02*
X020081Y013865D01*
X020321Y013625D01*
X020321Y013485D01*
X019941Y013485D01*
X019881Y013485D01*
X019881Y013425D01*
X019501Y013425D01*
X019501Y013285D01*
X019741Y013045D01*
X019881Y013045D01*
X019881Y013425D01*
X019941Y013425D01*
X019941Y013485D01*
X019941Y013865D01*
X019941Y013714D02*
X019881Y013714D01*
X019881Y013616D02*
X019941Y013616D01*
X019941Y013517D02*
X019881Y013517D01*
X019881Y013419D02*
X019941Y013419D01*
X019941Y013425D02*
X019941Y013045D01*
X020081Y013045D01*
X020321Y013285D01*
X020321Y013425D01*
X019941Y013425D01*
X019941Y013320D02*
X019881Y013320D01*
X019881Y013222D02*
X019941Y013222D01*
X019941Y013123D02*
X019881Y013123D01*
X019663Y013123D02*
X019523Y013123D01*
X019565Y013222D02*
X019425Y013222D01*
X019501Y013320D02*
X019122Y013320D01*
X019122Y013419D02*
X019501Y013419D01*
X019501Y013517D02*
X019086Y013517D01*
X019033Y013616D02*
X019501Y013616D01*
X019591Y013714D02*
X018934Y013714D01*
X018814Y013911D02*
X021938Y013911D01*
X021923Y014010D02*
X018979Y014010D01*
X019063Y014109D02*
X021936Y014109D01*
X021986Y013813D02*
X021133Y013813D01*
X020951Y013612D02*
X020851Y013512D01*
X020911Y013455D01*
X020951Y013612D02*
X022451Y013612D01*
X022851Y014012D01*
X022990Y013714D02*
X023213Y013714D01*
X023165Y013734D02*
X023101Y013798D01*
X023037Y013734D01*
X022916Y013684D01*
X022806Y013684D01*
X022734Y013612D01*
X027868Y013612D01*
X027953Y013697D01*
X027865Y013734D01*
X027787Y013812D01*
X023616Y013812D01*
X023537Y013734D01*
X023416Y013684D01*
X023286Y013684D01*
X023165Y013734D01*
X023490Y013714D02*
X027913Y013714D01*
X027872Y013616D02*
X022737Y013616D01*
X023079Y013123D02*
X021745Y013123D01*
X021646Y013025D02*
X022146Y013025D01*
X022000Y012926D02*
X021548Y012926D01*
X021449Y012827D02*
X021943Y012827D01*
X021923Y012729D02*
X021350Y012729D01*
X021252Y012630D02*
X021886Y012630D01*
X021788Y012532D02*
X019080Y012532D01*
X019121Y012433D02*
X021689Y012433D01*
X021751Y012212D02*
X019651Y012212D01*
X019151Y011712D01*
X019151Y011512D01*
X018551Y011512D01*
X018451Y011412D01*
X018372Y011340D01*
X018874Y011743D02*
X018951Y011743D01*
X018998Y011842D02*
X015704Y011842D01*
X016026Y010955D02*
X015373Y010955D01*
X015447Y010857D02*
X016124Y010857D01*
X016223Y010758D02*
X015480Y010758D01*
X015487Y010659D02*
X016321Y010659D01*
X016420Y010561D02*
X015585Y010561D01*
X015684Y010462D02*
X016518Y010462D01*
X016617Y010364D02*
X015783Y010364D01*
X015881Y010265D02*
X016715Y010265D01*
X016814Y010167D02*
X015980Y010167D01*
X016078Y010068D02*
X016913Y010068D01*
X016985Y010561D02*
X017023Y010561D01*
X017023Y010659D02*
X016887Y010659D01*
X016788Y010758D02*
X017056Y010758D01*
X018919Y010955D02*
X020911Y010955D01*
X021010Y011054D02*
X019022Y011054D01*
X019082Y011152D02*
X019734Y011152D01*
X019741Y011145D02*
X019881Y011145D01*
X019881Y011525D01*
X019501Y011525D01*
X019501Y011385D01*
X019741Y011145D01*
X019881Y011152D02*
X019941Y011152D01*
X019941Y011145D02*
X020081Y011145D01*
X020321Y011385D01*
X020321Y011525D01*
X019941Y011525D01*
X019941Y011585D01*
X019881Y011585D01*
X019881Y011965D01*
X019741Y011965D01*
X019501Y011725D01*
X019501Y011585D01*
X019881Y011585D01*
X019881Y011525D01*
X019941Y011525D01*
X019941Y011145D01*
X019941Y011251D02*
X019881Y011251D01*
X019881Y011349D02*
X019941Y011349D01*
X019941Y011448D02*
X019881Y011448D01*
X019881Y011546D02*
X019351Y011546D01*
X019351Y011448D02*
X019501Y011448D01*
X019537Y011349D02*
X019271Y011349D01*
X019122Y011251D02*
X019635Y011251D01*
X020088Y011152D02*
X020734Y011152D01*
X020741Y011145D02*
X021081Y011145D01*
X021321Y011385D01*
X021321Y011725D01*
X021081Y011965D01*
X020741Y011965D01*
X020501Y011725D01*
X020501Y011385D01*
X020741Y011145D01*
X020635Y011251D02*
X020187Y011251D01*
X020285Y011349D02*
X020537Y011349D01*
X020501Y011448D02*
X020321Y011448D01*
X020321Y011585D02*
X019941Y011585D01*
X019941Y011965D01*
X020081Y011965D01*
X020321Y011725D01*
X020321Y011585D01*
X020321Y011645D02*
X020501Y011645D01*
X020501Y011546D02*
X019941Y011546D01*
X019941Y011645D02*
X019881Y011645D01*
X019881Y011743D02*
X019941Y011743D01*
X019941Y011842D02*
X019881Y011842D01*
X019881Y011941D02*
X019941Y011941D01*
X020105Y011941D02*
X020717Y011941D01*
X020618Y011842D02*
X020204Y011842D01*
X020302Y011743D02*
X020520Y011743D01*
X021105Y011941D02*
X021896Y011941D01*
X021861Y012039D02*
X021995Y012039D01*
X021959Y012138D02*
X022094Y012138D01*
X022058Y012236D02*
X022192Y012236D01*
X022156Y012335D02*
X022291Y012335D01*
X022251Y012712D02*
X021751Y012212D01*
X021798Y011842D02*
X021204Y011842D01*
X021302Y011743D02*
X021699Y011743D01*
X021601Y011645D02*
X021321Y011645D01*
X021321Y011546D02*
X021502Y011546D01*
X021404Y011448D02*
X021321Y011448D01*
X021305Y011349D02*
X021285Y011349D01*
X021207Y011251D02*
X021187Y011251D01*
X021108Y011152D02*
X021088Y011152D01*
X019717Y011941D02*
X019662Y011941D01*
X019618Y011842D02*
X019564Y011842D01*
X019520Y011743D02*
X019465Y011743D01*
X019501Y011645D02*
X019366Y011645D01*
X019096Y011941D02*
X018884Y011941D01*
X019008Y012039D02*
X019195Y012039D01*
X019294Y012138D02*
X019076Y012138D01*
X019116Y012236D02*
X019392Y012236D01*
X019491Y012335D02*
X019122Y012335D01*
X019551Y012812D02*
X021151Y012812D01*
X021751Y013412D01*
X027951Y013412D01*
X028551Y014012D01*
X028690Y013714D02*
X029636Y013714D01*
X029623Y013813D02*
X028816Y013813D01*
X028865Y013911D02*
X029569Y013911D01*
X029471Y014010D02*
X029079Y014010D01*
X029212Y014109D02*
X029372Y014109D01*
X029274Y014207D02*
X029263Y014207D01*
X028951Y014312D02*
X028851Y014412D01*
X025451Y014412D01*
X025351Y014312D01*
X023551Y014312D01*
X023351Y014512D01*
X023023Y014501D02*
X022862Y014341D01*
X022916Y014341D01*
X023037Y014291D01*
X023101Y014227D01*
X023137Y014262D01*
X023073Y014326D01*
X023023Y014447D01*
X023023Y014501D01*
X023041Y014404D02*
X022926Y014404D01*
X023002Y014306D02*
X023094Y014306D01*
X023351Y014012D02*
X028051Y014012D01*
X027787Y014212D02*
X025534Y014212D01*
X025534Y014212D01*
X027787Y014212D01*
X027787Y014212D01*
X027118Y014897D02*
X028584Y014897D01*
X028485Y014995D02*
X027217Y014995D01*
X027316Y015094D02*
X028387Y015094D01*
X028288Y015192D02*
X027414Y015192D01*
X027506Y015284D02*
X027616Y015284D01*
X027737Y015334D01*
X027830Y015426D01*
X027842Y015457D01*
X027865Y015434D01*
X027986Y015384D01*
X028097Y015384D01*
X028853Y014627D01*
X028817Y014612D01*
X028768Y014612D01*
X026834Y014612D01*
X026851Y014630D01*
X027506Y015284D01*
X027633Y015291D02*
X028190Y015291D01*
X027972Y015390D02*
X027793Y015390D01*
X027223Y015587D02*
X026708Y015587D01*
X026807Y015685D02*
X027226Y015685D01*
X027267Y015784D02*
X026905Y015784D01*
X027004Y015882D02*
X027357Y015882D01*
X027144Y015488D02*
X026610Y015488D01*
X026511Y015390D02*
X027045Y015390D01*
X026947Y015291D02*
X026413Y015291D01*
X026380Y015192D02*
X026848Y015192D01*
X026750Y015094D02*
X026358Y015094D01*
X026299Y014995D02*
X026651Y014995D01*
X026921Y014700D02*
X028781Y014700D01*
X028682Y014798D02*
X027020Y014798D01*
X026051Y015212D02*
X027751Y016912D01*
X027128Y016572D02*
X026856Y016572D01*
X026940Y016474D02*
X027029Y016474D01*
X026651Y016312D02*
X025551Y015212D01*
X025799Y014995D02*
X025804Y014995D01*
X025801Y014998D02*
X025865Y014934D01*
X025917Y014912D01*
X025685Y014912D01*
X025737Y014934D01*
X025801Y014998D01*
X024151Y015912D02*
X024151Y017312D01*
X024151Y017412D01*
X024251Y017412D01*
X024292Y017476D01*
X026437Y018444D02*
X027100Y018444D01*
X027199Y018543D02*
X026478Y018543D01*
X026480Y018641D02*
X027297Y018641D01*
X027666Y018444D02*
X027800Y018444D01*
X027765Y018543D02*
X027899Y018543D01*
X027863Y018641D02*
X027997Y018641D01*
X027962Y018740D02*
X028096Y018740D01*
X028116Y018784D02*
X028157Y018801D01*
X028151Y018795D01*
X027397Y018041D01*
X027286Y018041D01*
X027246Y018024D01*
X027351Y018130D01*
X028006Y018784D01*
X028116Y018784D01*
X028366Y018444D02*
X030436Y018444D01*
X030535Y018346D02*
X028267Y018346D01*
X028169Y018247D02*
X030633Y018247D01*
X030732Y018149D02*
X028070Y018149D01*
X027972Y018050D02*
X030831Y018050D01*
X030929Y017952D02*
X027873Y017952D01*
X027775Y017853D02*
X031028Y017853D01*
X031126Y017755D02*
X027680Y017755D01*
X027406Y018050D02*
X027272Y018050D01*
X027370Y018149D02*
X027505Y018149D01*
X027469Y018247D02*
X027603Y018247D01*
X027567Y018346D02*
X027702Y018346D01*
X028834Y018937D02*
X029193Y018937D01*
X029292Y019036D02*
X028875Y019036D01*
X028880Y019134D02*
X029390Y019134D01*
X029489Y019233D02*
X028857Y019233D01*
X028797Y019331D02*
X029587Y019331D01*
X029686Y019430D02*
X028643Y019430D01*
X028418Y019528D02*
X029784Y019528D01*
X029883Y019627D02*
X028319Y019627D01*
X028221Y019725D02*
X029981Y019725D01*
X030080Y019824D02*
X028122Y019824D01*
X028024Y019923D02*
X030178Y019923D01*
X030277Y020021D02*
X027925Y020021D01*
X027827Y020120D02*
X030376Y020120D01*
X030474Y020218D02*
X027728Y020218D01*
X027630Y020317D02*
X030573Y020317D01*
X030671Y020415D02*
X022913Y020415D01*
X022782Y020514D02*
X030770Y020514D01*
X030868Y020612D02*
X022034Y020612D01*
X022158Y019923D02*
X016024Y019923D01*
X016122Y019824D02*
X022257Y019824D01*
X022916Y020012D02*
X022916Y020012D01*
X026091Y021499D02*
X034513Y021499D01*
X034413Y021401D02*
X026190Y021401D01*
X027451Y020212D02*
X028551Y019112D01*
X027852Y019528D02*
X027418Y019528D01*
X027551Y019112D02*
X026851Y019812D01*
X029365Y018543D02*
X029656Y018543D01*
X029566Y018641D02*
X029463Y018641D01*
X030046Y018543D02*
X030338Y018543D01*
X031551Y016375D02*
X036202Y016375D01*
X036202Y016276D02*
X031551Y016276D01*
X031551Y016178D02*
X036202Y016178D01*
X035257Y019233D02*
X035157Y019233D01*
X035157Y019331D02*
X035257Y019331D01*
X035257Y019430D02*
X035157Y019430D01*
X035157Y019528D02*
X035257Y019528D01*
X036202Y023273D02*
X021800Y023273D01*
X022012Y023569D02*
X026359Y023569D01*
X026359Y023667D02*
X021314Y023667D01*
X021314Y023569D02*
X021214Y023569D01*
X021213Y023667D02*
X011345Y023667D01*
X011345Y023569D02*
X020515Y023569D01*
X020556Y023470D02*
X011345Y023470D01*
X011246Y023372D02*
X020618Y023372D01*
X020728Y023273D02*
X005439Y023273D01*
X005439Y023569D02*
X008643Y023569D01*
X008643Y023667D02*
X005439Y023667D01*
X005439Y023766D02*
X008643Y023766D01*
X008643Y023864D02*
X005439Y023864D01*
X005439Y023963D02*
X008643Y023963D01*
X008643Y024061D02*
X005439Y024061D01*
X011345Y024061D02*
X020751Y024061D01*
X020628Y023963D02*
X011345Y023963D01*
X011345Y023864D02*
X020560Y023864D01*
X020519Y023766D02*
X011345Y023766D01*
X021214Y023766D02*
X021314Y023766D01*
X021314Y023864D02*
X021214Y023864D01*
X021214Y023963D02*
X021314Y023963D01*
X021314Y024061D02*
X021214Y024061D01*
X021776Y024061D02*
X026359Y024061D01*
X026359Y023963D02*
X021899Y023963D01*
X021967Y023864D02*
X026359Y023864D01*
X026359Y023766D02*
X022008Y023766D01*
X021314Y023470D02*
X021214Y023470D01*
X021214Y023372D02*
X021314Y023372D01*
X021314Y023273D02*
X021214Y023273D01*
X021264Y022662D02*
X021251Y022612D01*
X024151Y015912D02*
X022251Y014012D01*
X022057Y014601D02*
X019047Y014601D01*
X018949Y014700D02*
X022156Y014700D01*
X020689Y013813D02*
X020133Y013813D01*
X020231Y013714D02*
X020591Y013714D01*
X020501Y013616D02*
X020321Y013616D01*
X020321Y013517D02*
X020501Y013517D01*
X020501Y013419D02*
X020321Y013419D01*
X020321Y013320D02*
X020501Y013320D01*
X020565Y013222D02*
X020257Y013222D01*
X020159Y013123D02*
X020663Y013123D01*
X021080Y013025D02*
X019622Y013025D01*
X021159Y013123D02*
X021179Y013123D01*
X021257Y013222D02*
X021278Y013222D01*
X021321Y013320D02*
X021376Y013320D01*
X022356Y013025D02*
X022980Y013025D01*
X022882Y012926D02*
X022502Y012926D01*
X022559Y012827D02*
X022783Y012827D01*
X022685Y012729D02*
X022580Y012729D01*
X022573Y012630D02*
X022586Y012630D01*
X022856Y012335D02*
X031351Y012335D01*
X031351Y012312D02*
X022834Y012312D01*
X023534Y013012D01*
X026387Y013012D01*
X026373Y012998D01*
X026323Y012878D01*
X026323Y012747D01*
X026373Y012626D01*
X026465Y012534D01*
X026586Y012484D01*
X026716Y012484D01*
X026837Y012534D01*
X026916Y012612D01*
X030887Y012612D01*
X030965Y012534D01*
X031086Y012484D01*
X031216Y012484D01*
X031337Y012534D01*
X031351Y012548D01*
X031351Y012312D01*
X031351Y012433D02*
X022955Y012433D01*
X023053Y012532D02*
X026470Y012532D01*
X026371Y012630D02*
X023152Y012630D01*
X023250Y012729D02*
X026330Y012729D01*
X026323Y012827D02*
X023349Y012827D01*
X023448Y012926D02*
X026343Y012926D01*
X026651Y012812D02*
X031151Y012812D01*
X030970Y012532D02*
X026832Y012532D01*
X026916Y013012D02*
X028087Y013012D01*
X028087Y013012D01*
X026916Y013012D01*
X026916Y013012D01*
X028437Y013616D02*
X029683Y013616D01*
X029806Y013517D02*
X028473Y013517D01*
X029951Y013812D02*
X028051Y015712D01*
X029851Y014712D02*
X031551Y013012D01*
X031551Y012112D01*
X031351Y012532D02*
X031332Y012532D01*
X028153Y009927D02*
X027966Y010115D01*
X027930Y010026D01*
X027866Y009962D01*
X027930Y009898D01*
X027972Y009796D01*
X027973Y009798D01*
X028065Y009891D01*
X028153Y009927D01*
X028111Y009970D02*
X027873Y009970D01*
X027941Y009871D02*
X028045Y009871D01*
X028013Y010068D02*
X027947Y010068D01*
X027651Y010212D02*
X025051Y007612D01*
X025629Y007408D02*
X025764Y007408D01*
X025728Y007506D02*
X025862Y007506D01*
X025826Y007605D02*
X025961Y007605D01*
X025925Y007703D02*
X026059Y007703D01*
X026023Y007802D02*
X026158Y007802D01*
X026122Y007900D02*
X026256Y007900D01*
X026220Y007999D02*
X026355Y007999D01*
X026319Y008097D02*
X026453Y008097D01*
X026417Y008196D02*
X026552Y008196D01*
X026516Y008294D02*
X026650Y008294D01*
X026615Y008393D02*
X026749Y008393D01*
X026713Y008492D02*
X026847Y008492D01*
X026812Y008590D02*
X026946Y008590D01*
X026910Y008689D02*
X027045Y008689D01*
X027009Y008787D02*
X027143Y008787D01*
X027107Y008886D02*
X027242Y008886D01*
X027206Y008984D02*
X027340Y008984D01*
X027304Y009083D02*
X027439Y009083D01*
X027403Y009181D02*
X027537Y009181D01*
X027501Y009280D02*
X027636Y009280D01*
X027600Y009378D02*
X027734Y009378D01*
X027716Y009384D02*
X027757Y009401D01*
X023368Y005012D01*
X023234Y005012D01*
X027606Y009384D01*
X027716Y009384D01*
X027651Y009712D02*
X022951Y005012D01*
X018051Y005012D01*
X017351Y005712D01*
X018107Y005240D02*
X022896Y005240D01*
X023264Y005043D02*
X023398Y005043D01*
X023363Y005141D02*
X023497Y005141D01*
X023461Y005240D02*
X023596Y005240D01*
X023560Y005338D02*
X023694Y005338D01*
X023658Y005437D02*
X023793Y005437D01*
X023757Y005535D02*
X023891Y005535D01*
X023855Y005634D02*
X023990Y005634D01*
X023954Y005732D02*
X024088Y005732D01*
X024052Y005831D02*
X024187Y005831D01*
X024151Y005929D02*
X024285Y005929D01*
X024249Y006028D02*
X024384Y006028D01*
X024348Y006126D02*
X024482Y006126D01*
X024447Y006225D02*
X024581Y006225D01*
X024545Y006324D02*
X024680Y006324D01*
X024644Y006422D02*
X024778Y006422D01*
X024742Y006521D02*
X024877Y006521D01*
X024841Y006619D02*
X024975Y006619D01*
X024939Y006718D02*
X025074Y006718D01*
X025038Y006816D02*
X025172Y006816D01*
X025136Y006915D02*
X025271Y006915D01*
X025235Y007013D02*
X025369Y007013D01*
X025333Y007112D02*
X025468Y007112D01*
X025432Y007210D02*
X025566Y007210D01*
X025531Y007309D02*
X025665Y007309D01*
X026341Y006619D02*
X028775Y006619D01*
X028677Y006521D02*
X026242Y006521D01*
X026144Y006422D02*
X028578Y006422D01*
X028479Y006324D02*
X026045Y006324D01*
X025947Y006225D02*
X028381Y006225D01*
X028282Y006126D02*
X025848Y006126D01*
X025749Y006028D02*
X028184Y006028D01*
X028085Y005929D02*
X025651Y005929D01*
X025552Y005831D02*
X027987Y005831D01*
X027888Y005732D02*
X025454Y005732D01*
X025355Y005634D02*
X027790Y005634D01*
X027691Y005535D02*
X025257Y005535D01*
X025158Y005437D02*
X027593Y005437D01*
X027494Y005338D02*
X025060Y005338D01*
X024961Y005240D02*
X027396Y005240D01*
X027297Y005141D02*
X025997Y005141D01*
X025910Y005228D02*
X025537Y005228D01*
X025274Y004964D01*
X025274Y004592D01*
X025537Y004328D01*
X025910Y004328D01*
X026174Y004592D01*
X026174Y004964D01*
X025910Y005228D01*
X026096Y005043D02*
X027198Y005043D01*
X027100Y004944D02*
X026174Y004944D01*
X026174Y004845D02*
X027001Y004845D01*
X026903Y004747D02*
X026174Y004747D01*
X026174Y004648D02*
X026804Y004648D01*
X026706Y004550D02*
X026132Y004550D01*
X026033Y004451D02*
X026607Y004451D01*
X026509Y004353D02*
X025935Y004353D01*
X026213Y004057D02*
X023779Y004057D01*
X023877Y004156D02*
X026312Y004156D01*
X026410Y004254D02*
X023976Y004254D01*
X024074Y004353D02*
X025513Y004353D01*
X025414Y004451D02*
X024173Y004451D01*
X024271Y004550D02*
X025316Y004550D01*
X025274Y004648D02*
X024370Y004648D01*
X024468Y004747D02*
X025274Y004747D01*
X025274Y004845D02*
X024567Y004845D01*
X024666Y004944D02*
X025274Y004944D01*
X025352Y005043D02*
X024764Y005043D01*
X024863Y005141D02*
X025451Y005141D01*
X026114Y003959D02*
X023680Y003959D01*
X023582Y003860D02*
X026016Y003860D01*
X025917Y003761D02*
X023483Y003761D01*
X023384Y003663D02*
X025819Y003663D01*
X025720Y003564D02*
X023286Y003564D01*
X022096Y003107D02*
X022027Y003272D01*
X021901Y003399D01*
X021735Y003467D01*
X021396Y003467D01*
X021396Y003067D01*
X022096Y003067D01*
X022096Y003107D01*
X022096Y003072D02*
X025228Y003072D01*
X025326Y003170D02*
X022070Y003170D01*
X022029Y003269D02*
X025425Y003269D01*
X025523Y003367D02*
X021932Y003367D01*
X021739Y003466D02*
X025622Y003466D01*
X025129Y002973D02*
X021396Y002973D01*
X021396Y002967D02*
X021396Y003067D01*
X021296Y003067D01*
X021296Y002967D01*
X021396Y002967D01*
X021396Y002567D01*
X021735Y002567D01*
X021901Y002636D01*
X022027Y002762D01*
X022096Y002928D01*
X022096Y002967D01*
X021396Y002967D01*
X021396Y002875D02*
X021296Y002875D01*
X021296Y002967D02*
X021296Y002567D01*
X020956Y002567D01*
X020791Y002636D01*
X020664Y002762D01*
X020596Y002928D01*
X020596Y002967D01*
X021296Y002967D01*
X021296Y002973D02*
X017195Y002973D01*
X017195Y003067D02*
X017133Y003218D01*
X017017Y003333D01*
X016867Y003396D01*
X016703Y003396D01*
X016553Y003333D01*
X016437Y003218D01*
X016375Y003067D01*
X016375Y002384D01*
X016437Y002234D01*
X016553Y002118D01*
X016703Y002056D01*
X016867Y002056D01*
X017017Y002118D01*
X017133Y002234D01*
X017195Y002384D01*
X017195Y003067D01*
X017193Y003072D02*
X020596Y003072D01*
X020596Y003067D02*
X021296Y003067D01*
X021296Y003467D01*
X020956Y003467D01*
X020791Y003399D01*
X020664Y003272D01*
X020596Y003107D01*
X020596Y003067D01*
X020622Y003170D02*
X017152Y003170D01*
X017082Y003269D02*
X020663Y003269D01*
X020759Y003367D02*
X016935Y003367D01*
X016635Y003367D02*
X015935Y003367D01*
X015867Y003396D02*
X015703Y003396D01*
X015553Y003333D01*
X015437Y003218D01*
X015375Y003067D01*
X015375Y002384D01*
X015437Y002234D01*
X015553Y002118D01*
X015703Y002056D01*
X015867Y002056D01*
X016017Y002118D01*
X016133Y002234D01*
X016195Y002384D01*
X016195Y003067D01*
X016133Y003218D01*
X016017Y003333D01*
X015867Y003396D01*
X015635Y003367D02*
X014935Y003367D01*
X014867Y003396D02*
X014703Y003396D01*
X014553Y003333D01*
X014437Y003218D01*
X014375Y003067D01*
X014375Y002384D01*
X014437Y002234D01*
X014553Y002118D01*
X014703Y002056D01*
X014867Y002056D01*
X015017Y002118D01*
X015133Y002234D01*
X015195Y002384D01*
X015195Y003067D01*
X015133Y003218D01*
X015017Y003333D01*
X014867Y003396D01*
X014635Y003367D02*
X013935Y003367D01*
X013867Y003396D02*
X014017Y003333D01*
X014133Y003218D01*
X014195Y003067D01*
X014195Y002756D01*
X013815Y002756D01*
X013755Y002756D01*
X013755Y003396D01*
X013703Y003396D01*
X013553Y003333D01*
X013437Y003218D01*
X013375Y003067D01*
X013375Y002756D01*
X013755Y002756D01*
X013755Y002696D01*
X013375Y002696D01*
X013375Y002384D01*
X013437Y002234D01*
X013553Y002118D01*
X013703Y002056D01*
X013755Y002056D01*
X013755Y002696D01*
X013815Y002696D01*
X013815Y002756D01*
X013815Y003396D01*
X013867Y003396D01*
X013815Y003367D02*
X013755Y003367D01*
X013755Y003269D02*
X013815Y003269D01*
X013815Y003170D02*
X013755Y003170D01*
X013755Y003072D02*
X013815Y003072D01*
X013815Y002973D02*
X013755Y002973D01*
X013755Y002875D02*
X013815Y002875D01*
X013815Y002776D02*
X013755Y002776D01*
X013755Y002677D02*
X013815Y002677D01*
X013815Y002696D02*
X013815Y002056D01*
X013867Y002056D01*
X014017Y002118D01*
X014133Y002234D01*
X014195Y002384D01*
X014195Y002696D01*
X013815Y002696D01*
X013815Y002579D02*
X013755Y002579D01*
X013755Y002480D02*
X013815Y002480D01*
X013815Y002382D02*
X013755Y002382D01*
X013755Y002283D02*
X013815Y002283D01*
X013815Y002185D02*
X013755Y002185D01*
X013755Y002086D02*
X013815Y002086D01*
X013940Y002086D02*
X014630Y002086D01*
X014486Y002185D02*
X014084Y002185D01*
X014153Y002283D02*
X014417Y002283D01*
X014376Y002382D02*
X014194Y002382D01*
X014195Y002480D02*
X014375Y002480D01*
X014375Y002579D02*
X014195Y002579D01*
X014195Y002677D02*
X014375Y002677D01*
X014375Y002776D02*
X014195Y002776D01*
X014195Y002875D02*
X014375Y002875D01*
X014375Y002973D02*
X014195Y002973D01*
X014193Y003072D02*
X014377Y003072D01*
X014418Y003170D02*
X014152Y003170D01*
X014082Y003269D02*
X014488Y003269D01*
X015082Y003269D02*
X015488Y003269D01*
X015418Y003170D02*
X015152Y003170D01*
X015193Y003072D02*
X015377Y003072D01*
X015375Y002973D02*
X015195Y002973D01*
X015195Y002875D02*
X015375Y002875D01*
X015375Y002776D02*
X015195Y002776D01*
X015195Y002677D02*
X015375Y002677D01*
X015375Y002579D02*
X015195Y002579D01*
X015195Y002480D02*
X015375Y002480D01*
X015376Y002382D02*
X015194Y002382D01*
X015153Y002283D02*
X015417Y002283D01*
X015486Y002185D02*
X015084Y002185D01*
X014940Y002086D02*
X015630Y002086D01*
X015940Y002086D02*
X016630Y002086D01*
X016486Y002185D02*
X016084Y002185D01*
X016153Y002283D02*
X016417Y002283D01*
X016376Y002382D02*
X016194Y002382D01*
X016195Y002480D02*
X016375Y002480D01*
X016375Y002579D02*
X016195Y002579D01*
X016195Y002677D02*
X016375Y002677D01*
X016375Y002776D02*
X016195Y002776D01*
X016195Y002875D02*
X016375Y002875D01*
X016375Y002973D02*
X016195Y002973D01*
X016193Y003072D02*
X016377Y003072D01*
X016418Y003170D02*
X016152Y003170D01*
X016082Y003269D02*
X016488Y003269D01*
X017195Y002875D02*
X020618Y002875D01*
X020659Y002776D02*
X017195Y002776D01*
X017195Y002677D02*
X020749Y002677D01*
X020928Y002579D02*
X017195Y002579D01*
X017195Y002480D02*
X024636Y002480D01*
X024538Y002382D02*
X021918Y002382D01*
X022016Y002283D02*
X024439Y002283D01*
X024341Y002185D02*
X022064Y002185D01*
X022096Y002086D02*
X024242Y002086D01*
X024144Y001988D02*
X022096Y001988D01*
X022080Y001889D02*
X024045Y001889D01*
X023946Y001791D02*
X022039Y001791D01*
X021957Y001692D02*
X023848Y001692D01*
X023749Y001594D02*
X021799Y001594D01*
X020774Y002382D02*
X017194Y002382D01*
X017153Y002283D02*
X020675Y002283D01*
X020628Y002185D02*
X017084Y002185D01*
X016940Y002086D02*
X020596Y002086D01*
X021296Y002579D02*
X021396Y002579D01*
X021396Y002677D02*
X021296Y002677D01*
X021296Y002776D02*
X021396Y002776D01*
X021396Y003072D02*
X021296Y003072D01*
X021296Y003170D02*
X021396Y003170D01*
X021396Y003269D02*
X021296Y003269D01*
X021296Y003367D02*
X021396Y003367D01*
X021396Y003466D02*
X021296Y003466D01*
X020953Y003466D02*
X011487Y003466D01*
X011389Y003367D02*
X011635Y003367D01*
X011703Y003396D02*
X011553Y003333D01*
X011437Y003218D01*
X011375Y003067D01*
X011375Y002384D01*
X011437Y002234D01*
X011553Y002118D01*
X011703Y002056D01*
X011867Y002056D01*
X012017Y002118D01*
X012133Y002234D01*
X012195Y002384D01*
X012195Y003067D01*
X012133Y003218D01*
X012017Y003333D01*
X011867Y003396D01*
X011703Y003396D01*
X011935Y003367D02*
X012635Y003367D01*
X012703Y003396D02*
X012553Y003333D01*
X012437Y003218D01*
X012375Y003067D01*
X012375Y002756D01*
X012755Y002756D01*
X012755Y003396D01*
X012703Y003396D01*
X012755Y003367D02*
X012815Y003367D01*
X012815Y003396D02*
X012815Y002756D01*
X012755Y002756D01*
X012755Y002696D01*
X012375Y002696D01*
X012375Y002384D01*
X012437Y002234D01*
X012553Y002118D01*
X012703Y002056D01*
X012755Y002056D01*
X012755Y002696D01*
X012815Y002696D01*
X012815Y002756D01*
X013195Y002756D01*
X013195Y003067D01*
X013133Y003218D01*
X013017Y003333D01*
X012867Y003396D01*
X012815Y003396D01*
X012935Y003367D02*
X013635Y003367D01*
X013488Y003269D02*
X013082Y003269D01*
X013152Y003170D02*
X013418Y003170D01*
X013377Y003072D02*
X013193Y003072D01*
X013195Y002973D02*
X013375Y002973D01*
X013375Y002875D02*
X013195Y002875D01*
X013195Y002776D02*
X013375Y002776D01*
X013375Y002677D02*
X013195Y002677D01*
X013195Y002696D02*
X012815Y002696D01*
X012815Y002056D01*
X012867Y002056D01*
X013017Y002118D01*
X013133Y002234D01*
X013195Y002384D01*
X013195Y002696D01*
X013195Y002579D02*
X013375Y002579D01*
X013375Y002480D02*
X013195Y002480D01*
X013194Y002382D02*
X013376Y002382D01*
X013417Y002283D02*
X013153Y002283D01*
X013084Y002185D02*
X013486Y002185D01*
X013630Y002086D02*
X012940Y002086D01*
X012815Y002086D02*
X012755Y002086D01*
X012755Y002185D02*
X012815Y002185D01*
X012815Y002283D02*
X012755Y002283D01*
X012755Y002382D02*
X012815Y002382D01*
X012815Y002480D02*
X012755Y002480D01*
X012755Y002579D02*
X012815Y002579D01*
X012815Y002677D02*
X012755Y002677D01*
X012755Y002776D02*
X012815Y002776D01*
X012815Y002875D02*
X012755Y002875D01*
X012755Y002973D02*
X012815Y002973D01*
X012815Y003072D02*
X012755Y003072D01*
X012755Y003170D02*
X012815Y003170D01*
X012815Y003269D02*
X012755Y003269D01*
X012488Y003269D02*
X012082Y003269D01*
X012152Y003170D02*
X012418Y003170D01*
X012377Y003072D02*
X012193Y003072D01*
X012195Y002973D02*
X012375Y002973D01*
X012375Y002875D02*
X012195Y002875D01*
X012195Y002776D02*
X012375Y002776D01*
X012375Y002677D02*
X012195Y002677D01*
X012195Y002579D02*
X012375Y002579D01*
X012375Y002480D02*
X012195Y002480D01*
X012194Y002382D02*
X012376Y002382D01*
X012417Y002283D02*
X012153Y002283D01*
X012084Y002185D02*
X012486Y002185D01*
X012630Y002086D02*
X011940Y002086D01*
X011630Y002086D02*
X010940Y002086D01*
X011084Y002185D02*
X011486Y002185D01*
X011417Y002283D02*
X011153Y002283D01*
X011194Y002382D02*
X011376Y002382D01*
X011375Y002480D02*
X011195Y002480D01*
X011195Y002579D02*
X011375Y002579D01*
X011375Y002677D02*
X011299Y002677D01*
X011351Y002776D02*
X011375Y002776D01*
X011375Y002875D02*
X011351Y002875D01*
X011351Y002973D02*
X011375Y002973D01*
X011377Y003072D02*
X011351Y003072D01*
X011351Y003170D02*
X011418Y003170D01*
X011351Y003269D02*
X011488Y003269D01*
X009635Y003367D02*
X009351Y003367D01*
X009351Y003269D02*
X009488Y003269D01*
X009418Y003170D02*
X009351Y003170D01*
X009351Y003072D02*
X009377Y003072D01*
X006851Y004412D02*
X006551Y004412D01*
X006551Y004012D01*
X006486Y004009D01*
X006456Y005043D02*
X006516Y005043D01*
X006516Y005141D02*
X006456Y005141D01*
X006456Y005240D02*
X006516Y005240D01*
X006516Y005338D02*
X006456Y005338D01*
X006198Y001199D02*
X008672Y001199D01*
X008643Y001101D02*
X006227Y001101D01*
X006227Y001002D02*
X008643Y001002D01*
X008643Y000904D02*
X006227Y000904D01*
X006227Y000805D02*
X008643Y000805D01*
X008643Y000707D02*
X006227Y000707D01*
X006227Y000608D02*
X008643Y000608D01*
X008643Y000510D02*
X006227Y000510D01*
X010569Y010364D02*
X010669Y010364D01*
X010669Y010462D02*
X010569Y010462D01*
X010569Y010561D02*
X010669Y010561D01*
X013196Y013419D02*
X014875Y013419D01*
X014973Y013517D02*
X013367Y013517D01*
X013455Y013616D02*
X015072Y013616D01*
X015170Y013714D02*
X013495Y013714D01*
X013515Y013813D02*
X015269Y013813D01*
X015367Y013911D02*
X013515Y013911D01*
X013487Y014010D02*
X015466Y014010D01*
X015564Y014109D02*
X013445Y014109D01*
X013346Y014207D02*
X015663Y014207D01*
X014948Y012926D02*
X017895Y012926D01*
X026636Y006915D02*
X029071Y006915D01*
X029169Y007013D02*
X026735Y007013D01*
X026833Y007112D02*
X029268Y007112D01*
X029366Y007210D02*
X026932Y007210D01*
X027031Y007309D02*
X029465Y007309D01*
X029563Y007408D02*
X027129Y007408D01*
X027228Y007506D02*
X029662Y007506D01*
X029761Y007605D02*
X027326Y007605D01*
X027425Y007703D02*
X029859Y007703D01*
X029958Y007802D02*
X027523Y007802D01*
X027622Y007900D02*
X030056Y007900D01*
X030123Y007999D02*
X027720Y007999D01*
X027819Y008097D02*
X030131Y008097D01*
X030172Y008196D02*
X027917Y008196D01*
X028016Y008294D02*
X030274Y008294D01*
X030129Y007408D02*
X033053Y007408D01*
X032815Y007309D02*
X030031Y007309D01*
X029932Y007210D02*
X032690Y007210D01*
X032591Y007112D02*
X029834Y007112D01*
X029735Y007013D02*
X032523Y007013D01*
X032482Y006915D02*
X029636Y006915D01*
X029538Y006816D02*
X032441Y006816D01*
X032422Y006718D02*
X029439Y006718D01*
X029341Y006619D02*
X032422Y006619D01*
X032422Y006521D02*
X029242Y006521D01*
X029144Y006422D02*
X032435Y006422D01*
X032476Y006324D02*
X029045Y006324D01*
X028947Y006225D02*
X032516Y006225D01*
X032576Y006126D02*
X028848Y006126D01*
X028750Y006028D02*
X032674Y006028D01*
X032779Y005929D02*
X028651Y005929D01*
X028552Y005831D02*
X033017Y005831D01*
X034003Y006816D02*
X035135Y006816D01*
X035136Y006718D02*
X035235Y006718D01*
X035236Y006816D02*
X036202Y006816D01*
X036202Y006718D02*
X036115Y006718D01*
X036094Y006619D02*
X036202Y006619D01*
X036202Y006521D02*
X036053Y006521D01*
X035982Y006422D02*
X036202Y006422D01*
X036202Y006324D02*
X035883Y006324D01*
X035235Y006324D02*
X035136Y006324D01*
X035136Y006422D02*
X035235Y006422D01*
X035235Y006521D02*
X035136Y006521D01*
X035136Y006619D02*
X035235Y006619D01*
X035235Y006915D02*
X035136Y006915D01*
X035136Y007013D02*
X035235Y007013D01*
X035235Y007112D02*
X035136Y007112D01*
X035136Y007210D02*
X035235Y007210D01*
X035235Y007309D02*
X035136Y007309D01*
X035708Y007309D02*
X036202Y007309D01*
X036202Y007210D02*
X035908Y007210D01*
X036007Y007112D02*
X036202Y007112D01*
X036202Y007013D02*
X036063Y007013D01*
X036104Y006915D02*
X036202Y006915D01*
X034661Y005338D02*
X028060Y005338D01*
X027961Y005240D02*
X034462Y005240D01*
X034363Y005141D02*
X027863Y005141D01*
X027764Y005043D02*
X034308Y005043D01*
X034267Y004944D02*
X027666Y004944D01*
X027567Y004845D02*
X034256Y004845D01*
X034256Y004747D02*
X027468Y004747D01*
X027370Y004648D02*
X034278Y004648D01*
X034319Y004550D02*
X027271Y004550D01*
X027173Y004451D02*
X034390Y004451D01*
X034489Y004353D02*
X027074Y004353D01*
X025030Y002875D02*
X022074Y002875D01*
X022033Y002776D02*
X024932Y002776D01*
X024833Y002677D02*
X021942Y002677D01*
X021763Y002579D02*
X024735Y002579D01*
X029032Y001199D02*
X030690Y001199D01*
X030690Y001101D02*
X029061Y001101D01*
X029061Y001002D02*
X030690Y001002D01*
X030690Y000904D02*
X029061Y000904D01*
X029061Y000805D02*
X030690Y000805D01*
X030690Y000707D02*
X029061Y000707D01*
X029061Y000608D02*
X030690Y000608D01*
X030690Y000510D02*
X029061Y000510D01*
X028874Y006718D02*
X026439Y006718D01*
X026538Y006816D02*
X028972Y006816D01*
D17*
X030451Y008012D03*
X028651Y009212D03*
X028251Y009612D03*
X027651Y009712D03*
X027651Y010212D03*
X026851Y011512D03*
X026651Y012812D03*
X028351Y013212D03*
X028551Y014012D03*
X028051Y014012D03*
X028951Y014312D03*
X029851Y014712D03*
X029951Y013812D03*
X031351Y014212D03*
X031151Y012812D03*
X027551Y015612D03*
X028051Y015712D03*
X028751Y016212D03*
X028651Y017312D03*
X027351Y017712D03*
X026151Y018612D03*
X027551Y019112D03*
X028051Y019112D03*
X028551Y019112D03*
X029851Y018812D03*
X030951Y016912D03*
X026651Y016312D03*
X026051Y015212D03*
X025551Y015212D03*
X025251Y014712D03*
X023351Y014512D03*
X023351Y014012D03*
X022851Y014012D03*
X022251Y014012D03*
X022551Y014812D03*
X022351Y015512D03*
X019851Y016912D03*
X020651Y018212D03*
X019351Y019212D03*
X016951Y018812D03*
X013251Y020212D03*
X014351Y021312D03*
X022651Y020212D03*
X024751Y018712D03*
X024951Y017712D03*
X022251Y012712D03*
X017351Y011112D03*
X017351Y010612D03*
X015151Y010712D03*
X014751Y012512D03*
X011751Y009512D03*
X012451Y006612D03*
X018151Y008212D03*
M02*
