%
M48
M72
T01C0.0197
T02C0.0320
T03C0.0400
T04C0.0440
T05C0.0520
T06C0.1260
T07C0.1300
%
T01
X12451Y6612
X11751Y9512
X15151Y10712
X17351Y10612
X17351Y11112
X14751Y12512
X18151Y8212
X22251Y12712
X22251Y14012
X22851Y14012
X23351Y14012
X23351Y14512
X22551Y14812
X22351Y15512
X19851Y16912
X20651Y18212
X19351Y19212
X16951Y18812
X13251Y20212
X14351Y21312
X22651Y20212
X24751Y18712
X24951Y17712
X26151Y18612
X27551Y19112
X28051Y19112
X28551Y19112
X29851Y18812
X28651Y17312
X27351Y17712
X26651Y16312
X27551Y15612
X28051Y15712
X28751Y16212
X29851Y14712
X28951Y14312
X28551Y14012
X28051Y14012
X28351Y13212
X29951Y13812
X31351Y14212
X31151Y12812
X27651Y10212
X27651Y9712
X28251Y9612
X28651Y9212
X30451Y8012
X26851Y11512
X26651Y12812
X25251Y14712
X25551Y15212
X26051Y15212
X30951Y16912
T02
X6486Y4009
X6486Y5009
X9785Y5726
X10785Y5726
X11785Y5726
X12785Y5726
X13785Y5726
X14785Y5726
X15785Y5726
X16785Y5726
X16785Y2726
X15785Y2726
X14785Y2726
X13785Y2726
X12785Y2726
X11785Y2726
X10785Y2726
X9785Y2726
X19911Y11555
X20911Y11555
X20911Y13455
X19911Y13455
X21292Y17476
X24292Y17476
X8966Y14679
X8966Y13679
T03
X12765Y13852
X12765Y14852
X18372Y15340
X18372Y14340
X18372Y13340
X18372Y12340
X18372Y11340
X20096Y9710
X21096Y9710
X21096Y8710
X20096Y8710
X20096Y7710
X21096Y7710
X21096Y6710
X20096Y6710
X20096Y5710
X21096Y5710
X21346Y3017
X21346Y2017
X21346Y1017
X25724Y4778
X25997Y11399
X13553Y8903
X13553Y7903
X25877Y21077
X21264Y21662
X21264Y22662
X21264Y23662
T04
X11886Y18882
X11886Y17882
X11886Y16882
X10619Y11119
X10619Y10119
X10619Y9119
T05
X35186Y8750
X35186Y6780
X35186Y4810
X35196Y10955
X35196Y12925
X35196Y14895
X35207Y17101
X35207Y19071
X35207Y21041
T06
X34009Y15273
X33222Y6612
X2120Y9368
X2120Y16060
T07
X5986Y17882
X4719Y10119
M30
