G75*
G70*
%OFA0B0*%
%FSLAX24Y24*%
%IPPOS*%
%LPD*%
%AMOC8*
5,1,8,0,0,1.08239X$1,22.5*
%
%ADD10C,0.0000*%
D10*
X000151Y000312D02*
X000151Y003856D01*
X001332Y003856D01*
X001332Y004643D01*
X000151Y004643D01*
X000151Y022360D01*
X005269Y022360D01*
X005269Y024328D01*
X008813Y024328D01*
X008813Y023541D01*
X011175Y023541D01*
X011175Y024328D01*
X026529Y024328D01*
X026529Y023541D01*
X028891Y023541D01*
X028891Y024328D01*
X035584Y024328D01*
X035584Y023541D01*
X036372Y023541D01*
X036372Y002281D01*
X030860Y002281D01*
X030860Y000312D01*
X028891Y000312D01*
X028891Y001100D01*
X026529Y001100D01*
X026529Y000312D01*
X011175Y000312D01*
X011175Y001100D01*
X008813Y001100D01*
X008813Y000312D01*
X006057Y000312D01*
X006057Y001100D01*
X005269Y001100D01*
X005269Y000312D01*
X000151Y000312D01*
X001490Y009368D02*
X001492Y009418D01*
X001498Y009468D01*
X001508Y009517D01*
X001522Y009565D01*
X001539Y009612D01*
X001560Y009657D01*
X001585Y009701D01*
X001613Y009742D01*
X001645Y009781D01*
X001679Y009818D01*
X001716Y009852D01*
X001756Y009882D01*
X001798Y009909D01*
X001842Y009933D01*
X001888Y009954D01*
X001935Y009970D01*
X001983Y009983D01*
X002033Y009992D01*
X002082Y009997D01*
X002133Y009998D01*
X002183Y009995D01*
X002232Y009988D01*
X002281Y009977D01*
X002329Y009962D01*
X002375Y009944D01*
X002420Y009922D01*
X002463Y009896D01*
X002504Y009867D01*
X002543Y009835D01*
X002579Y009800D01*
X002611Y009762D01*
X002641Y009722D01*
X002668Y009679D01*
X002691Y009635D01*
X002710Y009589D01*
X002726Y009541D01*
X002738Y009492D01*
X002746Y009443D01*
X002750Y009393D01*
X002750Y009343D01*
X002746Y009293D01*
X002738Y009244D01*
X002726Y009195D01*
X002710Y009147D01*
X002691Y009101D01*
X002668Y009057D01*
X002641Y009014D01*
X002611Y008974D01*
X002579Y008936D01*
X002543Y008901D01*
X002504Y008869D01*
X002463Y008840D01*
X002420Y008814D01*
X002375Y008792D01*
X002329Y008774D01*
X002281Y008759D01*
X002232Y008748D01*
X002183Y008741D01*
X002133Y008738D01*
X002082Y008739D01*
X002033Y008744D01*
X001983Y008753D01*
X001935Y008766D01*
X001888Y008782D01*
X001842Y008803D01*
X001798Y008827D01*
X001756Y008854D01*
X001716Y008884D01*
X001679Y008918D01*
X001645Y008955D01*
X001613Y008994D01*
X001585Y009035D01*
X001560Y009079D01*
X001539Y009124D01*
X001522Y009171D01*
X001508Y009219D01*
X001498Y009268D01*
X001492Y009318D01*
X001490Y009368D01*
X004069Y010119D02*
X004071Y010169D01*
X004077Y010219D01*
X004087Y010269D01*
X004100Y010317D01*
X004117Y010365D01*
X004138Y010411D01*
X004162Y010455D01*
X004190Y010497D01*
X004221Y010537D01*
X004255Y010574D01*
X004292Y010609D01*
X004331Y010640D01*
X004372Y010669D01*
X004416Y010694D01*
X004462Y010716D01*
X004509Y010734D01*
X004557Y010748D01*
X004606Y010759D01*
X004656Y010766D01*
X004706Y010769D01*
X004757Y010768D01*
X004807Y010763D01*
X004857Y010754D01*
X004905Y010742D01*
X004953Y010725D01*
X004999Y010705D01*
X005044Y010682D01*
X005087Y010655D01*
X005127Y010625D01*
X005165Y010592D01*
X005200Y010556D01*
X005233Y010517D01*
X005262Y010476D01*
X005288Y010433D01*
X005311Y010388D01*
X005330Y010341D01*
X005345Y010293D01*
X005357Y010244D01*
X005365Y010194D01*
X005369Y010144D01*
X005369Y010094D01*
X005365Y010044D01*
X005357Y009994D01*
X005345Y009945D01*
X005330Y009897D01*
X005311Y009850D01*
X005288Y009805D01*
X005262Y009762D01*
X005233Y009721D01*
X005200Y009682D01*
X005165Y009646D01*
X005127Y009613D01*
X005087Y009583D01*
X005044Y009556D01*
X004999Y009533D01*
X004953Y009513D01*
X004905Y009496D01*
X004857Y009484D01*
X004807Y009475D01*
X004757Y009470D01*
X004706Y009469D01*
X004656Y009472D01*
X004606Y009479D01*
X004557Y009490D01*
X004509Y009504D01*
X004462Y009522D01*
X004416Y009544D01*
X004372Y009569D01*
X004331Y009598D01*
X004292Y009629D01*
X004255Y009664D01*
X004221Y009701D01*
X004190Y009741D01*
X004162Y009783D01*
X004138Y009827D01*
X004117Y009873D01*
X004100Y009921D01*
X004087Y009969D01*
X004077Y010019D01*
X004071Y010069D01*
X004069Y010119D01*
X001490Y016060D02*
X001492Y016110D01*
X001498Y016160D01*
X001508Y016209D01*
X001522Y016257D01*
X001539Y016304D01*
X001560Y016349D01*
X001585Y016393D01*
X001613Y016434D01*
X001645Y016473D01*
X001679Y016510D01*
X001716Y016544D01*
X001756Y016574D01*
X001798Y016601D01*
X001842Y016625D01*
X001888Y016646D01*
X001935Y016662D01*
X001983Y016675D01*
X002033Y016684D01*
X002082Y016689D01*
X002133Y016690D01*
X002183Y016687D01*
X002232Y016680D01*
X002281Y016669D01*
X002329Y016654D01*
X002375Y016636D01*
X002420Y016614D01*
X002463Y016588D01*
X002504Y016559D01*
X002543Y016527D01*
X002579Y016492D01*
X002611Y016454D01*
X002641Y016414D01*
X002668Y016371D01*
X002691Y016327D01*
X002710Y016281D01*
X002726Y016233D01*
X002738Y016184D01*
X002746Y016135D01*
X002750Y016085D01*
X002750Y016035D01*
X002746Y015985D01*
X002738Y015936D01*
X002726Y015887D01*
X002710Y015839D01*
X002691Y015793D01*
X002668Y015749D01*
X002641Y015706D01*
X002611Y015666D01*
X002579Y015628D01*
X002543Y015593D01*
X002504Y015561D01*
X002463Y015532D01*
X002420Y015506D01*
X002375Y015484D01*
X002329Y015466D01*
X002281Y015451D01*
X002232Y015440D01*
X002183Y015433D01*
X002133Y015430D01*
X002082Y015431D01*
X002033Y015436D01*
X001983Y015445D01*
X001935Y015458D01*
X001888Y015474D01*
X001842Y015495D01*
X001798Y015519D01*
X001756Y015546D01*
X001716Y015576D01*
X001679Y015610D01*
X001645Y015647D01*
X001613Y015686D01*
X001585Y015727D01*
X001560Y015771D01*
X001539Y015816D01*
X001522Y015863D01*
X001508Y015911D01*
X001498Y015960D01*
X001492Y016010D01*
X001490Y016060D01*
X005336Y017882D02*
X005338Y017932D01*
X005344Y017982D01*
X005354Y018032D01*
X005367Y018080D01*
X005384Y018128D01*
X005405Y018174D01*
X005429Y018218D01*
X005457Y018260D01*
X005488Y018300D01*
X005522Y018337D01*
X005559Y018372D01*
X005598Y018403D01*
X005639Y018432D01*
X005683Y018457D01*
X005729Y018479D01*
X005776Y018497D01*
X005824Y018511D01*
X005873Y018522D01*
X005923Y018529D01*
X005973Y018532D01*
X006024Y018531D01*
X006074Y018526D01*
X006124Y018517D01*
X006172Y018505D01*
X006220Y018488D01*
X006266Y018468D01*
X006311Y018445D01*
X006354Y018418D01*
X006394Y018388D01*
X006432Y018355D01*
X006467Y018319D01*
X006500Y018280D01*
X006529Y018239D01*
X006555Y018196D01*
X006578Y018151D01*
X006597Y018104D01*
X006612Y018056D01*
X006624Y018007D01*
X006632Y017957D01*
X006636Y017907D01*
X006636Y017857D01*
X006632Y017807D01*
X006624Y017757D01*
X006612Y017708D01*
X006597Y017660D01*
X006578Y017613D01*
X006555Y017568D01*
X006529Y017525D01*
X006500Y017484D01*
X006467Y017445D01*
X006432Y017409D01*
X006394Y017376D01*
X006354Y017346D01*
X006311Y017319D01*
X006266Y017296D01*
X006220Y017276D01*
X006172Y017259D01*
X006124Y017247D01*
X006074Y017238D01*
X006024Y017233D01*
X005973Y017232D01*
X005923Y017235D01*
X005873Y017242D01*
X005824Y017253D01*
X005776Y017267D01*
X005729Y017285D01*
X005683Y017307D01*
X005639Y017332D01*
X005598Y017361D01*
X005559Y017392D01*
X005522Y017427D01*
X005488Y017464D01*
X005457Y017504D01*
X005429Y017546D01*
X005405Y017590D01*
X005384Y017636D01*
X005367Y017684D01*
X005354Y017732D01*
X005344Y017782D01*
X005338Y017832D01*
X005336Y017882D01*
X032592Y006612D02*
X032594Y006662D01*
X032600Y006712D01*
X032610Y006761D01*
X032624Y006809D01*
X032641Y006856D01*
X032662Y006901D01*
X032687Y006945D01*
X032715Y006986D01*
X032747Y007025D01*
X032781Y007062D01*
X032818Y007096D01*
X032858Y007126D01*
X032900Y007153D01*
X032944Y007177D01*
X032990Y007198D01*
X033037Y007214D01*
X033085Y007227D01*
X033135Y007236D01*
X033184Y007241D01*
X033235Y007242D01*
X033285Y007239D01*
X033334Y007232D01*
X033383Y007221D01*
X033431Y007206D01*
X033477Y007188D01*
X033522Y007166D01*
X033565Y007140D01*
X033606Y007111D01*
X033645Y007079D01*
X033681Y007044D01*
X033713Y007006D01*
X033743Y006966D01*
X033770Y006923D01*
X033793Y006879D01*
X033812Y006833D01*
X033828Y006785D01*
X033840Y006736D01*
X033848Y006687D01*
X033852Y006637D01*
X033852Y006587D01*
X033848Y006537D01*
X033840Y006488D01*
X033828Y006439D01*
X033812Y006391D01*
X033793Y006345D01*
X033770Y006301D01*
X033743Y006258D01*
X033713Y006218D01*
X033681Y006180D01*
X033645Y006145D01*
X033606Y006113D01*
X033565Y006084D01*
X033522Y006058D01*
X033477Y006036D01*
X033431Y006018D01*
X033383Y006003D01*
X033334Y005992D01*
X033285Y005985D01*
X033235Y005982D01*
X033184Y005983D01*
X033135Y005988D01*
X033085Y005997D01*
X033037Y006010D01*
X032990Y006026D01*
X032944Y006047D01*
X032900Y006071D01*
X032858Y006098D01*
X032818Y006128D01*
X032781Y006162D01*
X032747Y006199D01*
X032715Y006238D01*
X032687Y006279D01*
X032662Y006323D01*
X032641Y006368D01*
X032624Y006415D01*
X032610Y006463D01*
X032600Y006512D01*
X032594Y006562D01*
X032592Y006612D01*
X033379Y015273D02*
X033381Y015323D01*
X033387Y015373D01*
X033397Y015422D01*
X033411Y015470D01*
X033428Y015517D01*
X033449Y015562D01*
X033474Y015606D01*
X033502Y015647D01*
X033534Y015686D01*
X033568Y015723D01*
X033605Y015757D01*
X033645Y015787D01*
X033687Y015814D01*
X033731Y015838D01*
X033777Y015859D01*
X033824Y015875D01*
X033872Y015888D01*
X033922Y015897D01*
X033971Y015902D01*
X034022Y015903D01*
X034072Y015900D01*
X034121Y015893D01*
X034170Y015882D01*
X034218Y015867D01*
X034264Y015849D01*
X034309Y015827D01*
X034352Y015801D01*
X034393Y015772D01*
X034432Y015740D01*
X034468Y015705D01*
X034500Y015667D01*
X034530Y015627D01*
X034557Y015584D01*
X034580Y015540D01*
X034599Y015494D01*
X034615Y015446D01*
X034627Y015397D01*
X034635Y015348D01*
X034639Y015298D01*
X034639Y015248D01*
X034635Y015198D01*
X034627Y015149D01*
X034615Y015100D01*
X034599Y015052D01*
X034580Y015006D01*
X034557Y014962D01*
X034530Y014919D01*
X034500Y014879D01*
X034468Y014841D01*
X034432Y014806D01*
X034393Y014774D01*
X034352Y014745D01*
X034309Y014719D01*
X034264Y014697D01*
X034218Y014679D01*
X034170Y014664D01*
X034121Y014653D01*
X034072Y014646D01*
X034022Y014643D01*
X033971Y014644D01*
X033922Y014649D01*
X033872Y014658D01*
X033824Y014671D01*
X033777Y014687D01*
X033731Y014708D01*
X033687Y014732D01*
X033645Y014759D01*
X033605Y014789D01*
X033568Y014823D01*
X033534Y014860D01*
X033502Y014899D01*
X033474Y014940D01*
X033449Y014984D01*
X033428Y015029D01*
X033411Y015076D01*
X033397Y015124D01*
X033387Y015173D01*
X033381Y015223D01*
X033379Y015273D01*
M02*
