G75*
G70*
%OFA0B0*%
%FSLAX24Y24*%
%IPPOS*%
%LPD*%
%AMOC8*
5,1,8,0,0,1.08239X$1,22.5*
%
%ADD10C,0.0050*%
%ADD11C,0.0060*%
%ADD12C,0.0070*%
%ADD13C,0.0020*%
%ADD14R,0.0250X0.0300*%
%ADD15R,0.1100X0.0500*%
%ADD16C,0.0040*%
%ADD17C,0.0100*%
%ADD18C,0.0030*%
%ADD19R,0.1500X0.0300*%
D10*
X005010Y003709D02*
X005086Y003634D01*
X005386Y003634D01*
X005461Y003709D01*
X005461Y003859D01*
X005386Y003935D01*
X005386Y004095D02*
X005461Y004170D01*
X005461Y004320D01*
X005386Y004395D01*
X005236Y004395D01*
X005161Y004320D01*
X005161Y004245D01*
X005236Y004095D01*
X005010Y004095D01*
X005010Y004395D01*
X005086Y003935D02*
X005010Y003859D01*
X005010Y003709D01*
X008660Y003633D02*
X008660Y003483D01*
X008735Y003408D01*
X009035Y003408D01*
X009110Y003483D01*
X009110Y003633D01*
X009035Y003708D01*
X009110Y003868D02*
X008810Y004168D01*
X008735Y004168D01*
X008660Y004093D01*
X008660Y003943D01*
X008735Y003868D01*
X008735Y003708D02*
X008660Y003633D01*
X008660Y003251D02*
X008660Y003101D01*
X008660Y003176D02*
X009110Y003176D01*
X009110Y003101D02*
X009110Y003251D01*
X009110Y003868D02*
X009110Y004168D01*
X012357Y007473D02*
X012432Y007398D01*
X012508Y007398D01*
X012583Y007473D01*
X012583Y007623D01*
X012658Y007698D01*
X012733Y007698D01*
X012808Y007623D01*
X012808Y007473D01*
X012733Y007398D01*
X012357Y007473D02*
X012357Y007623D01*
X012432Y007698D01*
X012357Y007858D02*
X012357Y008008D01*
X012357Y007933D02*
X012808Y007933D01*
X012808Y007858D02*
X012808Y008008D01*
X012808Y008165D02*
X012357Y008165D01*
X012808Y008165D02*
X012808Y008465D01*
X012808Y008626D02*
X012357Y008626D01*
X012808Y008926D01*
X012357Y008926D01*
X012357Y009086D02*
X012357Y009236D01*
X012357Y009161D02*
X012808Y009161D01*
X012808Y009086D02*
X012808Y009236D01*
X012808Y009393D02*
X012357Y009393D01*
X012583Y009468D02*
X012808Y009693D01*
X012808Y009853D02*
X012808Y010153D01*
X012808Y010003D02*
X012357Y010003D01*
X012508Y009853D01*
X012357Y009693D02*
X012658Y009393D01*
X017177Y010835D02*
X017177Y011060D01*
X017252Y011135D01*
X017327Y011135D01*
X017402Y011060D01*
X017402Y010835D01*
X017402Y011060D02*
X017477Y011135D01*
X017552Y011135D01*
X017627Y011060D01*
X017627Y010835D01*
X017177Y010835D01*
X017177Y011295D02*
X017627Y011295D01*
X017627Y011595D01*
X017552Y011756D02*
X017177Y011756D01*
X017177Y012056D02*
X017552Y012056D01*
X017627Y011981D01*
X017627Y011831D01*
X017552Y011756D01*
X017627Y012216D02*
X017177Y012216D01*
X017177Y012516D01*
X017177Y012676D02*
X017177Y012976D01*
X017177Y012826D02*
X017627Y012826D01*
X017844Y012830D02*
X018145Y012830D01*
X018305Y012830D02*
X018605Y012830D01*
X018765Y012830D02*
X018990Y012830D01*
X019065Y012905D01*
X019065Y013205D01*
X018990Y013280D01*
X018765Y013280D01*
X018765Y012830D01*
X018455Y013055D02*
X018305Y013055D01*
X018305Y013280D02*
X018305Y012830D01*
X017844Y012830D02*
X017844Y013280D01*
X017627Y013212D02*
X017627Y013362D01*
X017552Y013437D01*
X017252Y013437D01*
X017177Y013362D01*
X017177Y013212D01*
X017252Y013137D01*
X017552Y013137D01*
X017627Y013212D01*
X017552Y013597D02*
X017252Y013597D01*
X017177Y013672D01*
X017177Y013822D01*
X017252Y013897D01*
X017552Y013897D01*
X017627Y013822D01*
X017627Y013672D01*
X017552Y013597D01*
X017177Y014057D02*
X017177Y014358D01*
X017177Y014207D02*
X017627Y014207D01*
X017627Y014518D02*
X017177Y014518D01*
X017402Y014518D02*
X017402Y014818D01*
X017177Y014818D02*
X017627Y014818D01*
X018305Y013280D02*
X018605Y013280D01*
X019226Y013205D02*
X019301Y013280D01*
X019451Y013280D01*
X019526Y013205D01*
X019526Y013130D01*
X019226Y012830D01*
X019526Y012830D01*
X019376Y011380D02*
X019376Y010930D01*
X019226Y010930D02*
X019526Y010930D01*
X019226Y011230D02*
X019376Y011380D01*
X019065Y011305D02*
X018990Y011380D01*
X018765Y011380D01*
X018765Y010930D01*
X018990Y010930D01*
X019065Y011005D01*
X019065Y011305D01*
X018605Y011380D02*
X018305Y011380D01*
X018305Y010930D01*
X018605Y010930D01*
X018455Y011155D02*
X018305Y011155D01*
X018145Y010930D02*
X017844Y010930D01*
X017844Y011380D01*
X017627Y012216D02*
X017627Y012516D01*
X017402Y012366D02*
X017402Y012216D01*
X018946Y009679D02*
X019096Y009679D01*
X019171Y009603D01*
X019171Y009378D01*
X019321Y009378D02*
X018871Y009378D01*
X018871Y009603D01*
X018946Y009679D01*
X019171Y009528D02*
X019321Y009679D01*
X019321Y009218D02*
X019321Y008918D01*
X018871Y008918D01*
X018871Y009218D01*
X019096Y009068D02*
X019096Y008918D01*
X018871Y008758D02*
X019321Y008758D01*
X019321Y008458D02*
X018871Y008458D01*
X019021Y008608D01*
X018871Y008758D01*
X018871Y008297D02*
X019321Y008297D01*
X019321Y007997D02*
X018871Y007997D01*
X019021Y008147D01*
X018871Y008297D01*
X019021Y007837D02*
X019321Y007837D01*
X019096Y007837D02*
X019096Y007537D01*
X019021Y007537D02*
X018871Y007687D01*
X019021Y007837D01*
X019021Y007537D02*
X019321Y007537D01*
X019321Y007377D02*
X019171Y007227D01*
X019171Y007302D02*
X019171Y007076D01*
X019321Y007076D02*
X018871Y007076D01*
X018871Y007302D01*
X018946Y007377D01*
X019096Y007377D01*
X019171Y007302D01*
X019096Y006916D02*
X019096Y006766D01*
X019096Y006916D02*
X019246Y006916D01*
X019321Y006841D01*
X019321Y006691D01*
X019246Y006616D01*
X018946Y006616D01*
X018871Y006691D01*
X018871Y006841D01*
X018946Y006916D01*
X018946Y006456D02*
X018871Y006381D01*
X018871Y006231D01*
X018946Y006156D01*
X019246Y006156D01*
X019321Y006231D01*
X019321Y006381D01*
X019246Y006456D01*
X018946Y006456D01*
X018946Y005996D02*
X019096Y005996D01*
X019171Y005921D01*
X019171Y005695D01*
X019321Y005695D02*
X018871Y005695D01*
X018871Y005921D01*
X018946Y005996D01*
X019171Y005846D02*
X019321Y005996D01*
X019096Y005535D02*
X019171Y005460D01*
X019171Y005235D01*
X019321Y005235D02*
X018871Y005235D01*
X018871Y005460D01*
X018946Y005535D01*
X019096Y005535D01*
X020150Y002964D02*
X020601Y002964D01*
X020601Y002814D02*
X020601Y003114D01*
X020301Y002814D02*
X020150Y002964D01*
X020226Y002654D02*
X020150Y002579D01*
X020150Y002429D01*
X020226Y002354D01*
X020526Y002354D01*
X020601Y002429D01*
X020601Y002579D01*
X020526Y002654D01*
X020226Y002654D01*
X020150Y002194D02*
X020601Y002194D01*
X020451Y002044D01*
X020601Y001893D01*
X020150Y001893D01*
X020226Y001733D02*
X020150Y001658D01*
X020150Y001433D01*
X020601Y001433D01*
X020451Y001433D02*
X020451Y001658D01*
X020376Y001733D01*
X020226Y001733D01*
X020451Y001583D02*
X020601Y001733D01*
X020601Y001273D02*
X020601Y000973D01*
X020150Y000973D01*
X020150Y001273D01*
X020376Y001123D02*
X020376Y000973D01*
X020451Y000813D02*
X020526Y000813D01*
X020601Y000737D01*
X020601Y000587D01*
X020526Y000512D01*
X020376Y000587D02*
X020376Y000737D01*
X020451Y000813D01*
X020226Y000813D02*
X020150Y000737D01*
X020150Y000587D01*
X020226Y000512D01*
X020301Y000512D01*
X020376Y000587D01*
X025219Y005523D02*
X025219Y005823D01*
X025369Y005973D01*
X025519Y005823D01*
X025519Y005523D01*
X025679Y005523D02*
X025904Y005523D01*
X025979Y005598D01*
X025979Y005898D01*
X025904Y005973D01*
X025679Y005973D01*
X025679Y005523D01*
X025519Y005748D02*
X025219Y005748D01*
X026139Y005598D02*
X026215Y005523D01*
X026365Y005523D01*
X026440Y005598D01*
X026600Y005598D02*
X026675Y005523D01*
X026825Y005523D01*
X026900Y005598D01*
X026900Y005748D01*
X026825Y005823D01*
X026750Y005823D01*
X026600Y005748D01*
X026600Y005973D01*
X026900Y005973D01*
X026440Y005898D02*
X026365Y005973D01*
X026215Y005973D01*
X026139Y005898D01*
X026139Y005598D01*
X033820Y006111D02*
X033877Y006055D01*
X033820Y006111D02*
X033820Y006225D01*
X033877Y006281D01*
X033934Y006281D01*
X034161Y006055D01*
X034161Y006281D01*
X034104Y008055D02*
X034161Y008111D01*
X034161Y008225D01*
X034104Y008281D01*
X034047Y008281D01*
X033990Y008225D01*
X033990Y008168D01*
X033990Y008225D02*
X033934Y008281D01*
X033877Y008281D01*
X033820Y008225D01*
X033820Y008111D01*
X033877Y008055D01*
X033944Y010300D02*
X033831Y010413D01*
X034171Y010413D01*
X034171Y010300D02*
X034171Y010527D01*
X034171Y012200D02*
X033944Y012427D01*
X033888Y012427D01*
X033831Y012370D01*
X033831Y012257D01*
X033888Y012200D01*
X034171Y012200D02*
X034171Y012427D01*
X034115Y014200D02*
X034171Y014257D01*
X034171Y014370D01*
X034115Y014427D01*
X034058Y014427D01*
X034001Y014370D01*
X034001Y014313D01*
X034001Y014370D02*
X033944Y014427D01*
X033888Y014427D01*
X033831Y014370D01*
X033831Y014257D01*
X033888Y014200D01*
X033955Y016446D02*
X033842Y016559D01*
X034182Y016559D01*
X034182Y016446D02*
X034182Y016672D01*
X034182Y018346D02*
X033955Y018572D01*
X033898Y018572D01*
X033842Y018516D01*
X033842Y018402D01*
X033898Y018346D01*
X034182Y018346D02*
X034182Y018572D01*
X034125Y020346D02*
X034182Y020402D01*
X034182Y020516D01*
X034125Y020572D01*
X034069Y020572D01*
X034012Y020516D01*
X034012Y020459D01*
X034012Y020516D02*
X033955Y020572D01*
X033898Y020572D01*
X033842Y020516D01*
X033842Y020402D01*
X033898Y020346D01*
X027054Y022197D02*
X026754Y021897D01*
X026754Y021822D01*
X026593Y021897D02*
X026518Y021822D01*
X026368Y021822D01*
X026293Y021897D01*
X026293Y022197D01*
X026368Y022272D01*
X026518Y022272D01*
X026593Y022197D01*
X026754Y022272D02*
X027054Y022272D01*
X027054Y022197D01*
X026133Y022197D02*
X026133Y021897D01*
X026058Y021822D01*
X025833Y021822D01*
X025833Y022272D01*
X026058Y022272D01*
X026133Y022197D01*
X025673Y022122D02*
X025673Y021822D01*
X025673Y022047D02*
X025372Y022047D01*
X025372Y022122D02*
X025523Y022272D01*
X025673Y022122D01*
X025372Y022122D02*
X025372Y021822D01*
X020519Y021918D02*
X020519Y021618D01*
X020068Y021618D01*
X020068Y021918D01*
X020068Y022078D02*
X020068Y022303D01*
X020143Y022378D01*
X020293Y022378D01*
X020369Y022303D01*
X020369Y022078D01*
X020519Y022078D02*
X020068Y022078D01*
X020369Y022228D02*
X020519Y022378D01*
X020519Y022538D02*
X020068Y022538D01*
X020068Y022839D02*
X020519Y022839D01*
X020369Y022689D01*
X020519Y022538D01*
X020444Y022999D02*
X020143Y022999D01*
X020068Y023074D01*
X020068Y023224D01*
X020143Y023299D01*
X020444Y023299D01*
X020519Y023224D01*
X020519Y023074D01*
X020444Y022999D01*
X020519Y023459D02*
X020218Y023759D01*
X020143Y023759D01*
X020068Y023684D01*
X020068Y023534D01*
X020143Y023459D01*
X020519Y023459D02*
X020519Y023759D01*
X020293Y021768D02*
X020293Y021618D01*
X020369Y021458D02*
X020444Y021458D01*
X020519Y021383D01*
X020519Y021232D01*
X020444Y021157D01*
X020293Y021232D02*
X020293Y021383D01*
X020369Y021458D01*
X020143Y021458D02*
X020068Y021383D01*
X020068Y021232D01*
X020143Y021157D01*
X020218Y021157D01*
X020293Y021232D01*
X022896Y016901D02*
X022896Y016451D01*
X023197Y016451D01*
X023357Y016451D02*
X023657Y016451D01*
X023507Y016451D02*
X023507Y016901D01*
X023357Y016751D01*
X025643Y012595D02*
X025793Y012445D01*
X025793Y012144D01*
X025953Y012144D02*
X026178Y012144D01*
X026253Y012219D01*
X026253Y012520D01*
X026178Y012595D01*
X025953Y012595D01*
X025953Y012144D01*
X025793Y012370D02*
X025492Y012370D01*
X025492Y012445D02*
X025643Y012595D01*
X025492Y012445D02*
X025492Y012144D01*
X026413Y012219D02*
X026413Y012520D01*
X026488Y012595D01*
X026638Y012595D01*
X026713Y012520D01*
X026874Y012370D02*
X027099Y012370D01*
X027174Y012294D01*
X027174Y012219D01*
X027099Y012144D01*
X026949Y012144D01*
X026874Y012219D01*
X026874Y012370D01*
X027024Y012520D01*
X027174Y012595D01*
X026713Y012219D02*
X026638Y012144D01*
X026488Y012144D01*
X026413Y012219D01*
X033820Y004268D02*
X034161Y004268D01*
X034161Y004155D02*
X034161Y004381D01*
X033934Y004155D02*
X033820Y004268D01*
X012020Y013422D02*
X011945Y013347D01*
X012020Y013422D02*
X012020Y013572D01*
X011945Y013647D01*
X011870Y013647D01*
X011795Y013572D01*
X011795Y013422D01*
X011720Y013347D01*
X011645Y013347D01*
X011570Y013422D01*
X011570Y013572D01*
X011645Y013647D01*
X011570Y013807D02*
X011570Y013957D01*
X011570Y013882D02*
X012020Y013882D01*
X012020Y013807D02*
X012020Y013957D01*
X012020Y014114D02*
X011570Y014114D01*
X012020Y014114D02*
X012020Y014414D01*
X012020Y014574D02*
X011570Y014574D01*
X012020Y014875D01*
X011570Y014875D01*
X011570Y015035D02*
X011570Y015185D01*
X011570Y015110D02*
X012020Y015110D01*
X012020Y015035D02*
X012020Y015185D01*
X012020Y015342D02*
X011570Y015342D01*
X011795Y015417D02*
X012020Y015642D01*
X012020Y015802D02*
X011720Y016102D01*
X011645Y016102D01*
X011570Y016027D01*
X011570Y015877D01*
X011645Y015802D01*
X011570Y015642D02*
X011870Y015342D01*
X012020Y015802D02*
X012020Y016102D01*
X007941Y013764D02*
X007866Y013764D01*
X007566Y014064D01*
X007491Y014064D01*
X007491Y013764D01*
X007566Y013604D02*
X007491Y013529D01*
X007491Y013379D01*
X007566Y013304D01*
X007866Y013304D01*
X007941Y013379D01*
X007941Y013529D01*
X007866Y013604D01*
D11*
X008066Y013329D02*
X008066Y015029D01*
X008068Y015046D01*
X008072Y015063D01*
X008079Y015079D01*
X008089Y015093D01*
X008102Y015106D01*
X008116Y015116D01*
X008132Y015123D01*
X008149Y015127D01*
X008166Y015129D01*
X009766Y015129D01*
X009783Y015127D01*
X009800Y015123D01*
X009816Y015116D01*
X009830Y015106D01*
X009843Y015093D01*
X009853Y015079D01*
X009860Y015063D01*
X009864Y015046D01*
X009866Y015029D01*
X009866Y013329D01*
X009864Y013312D01*
X009860Y013295D01*
X009853Y013279D01*
X009843Y013265D01*
X009830Y013252D01*
X009816Y013242D01*
X009800Y013235D01*
X009783Y013231D01*
X009766Y013229D01*
X008166Y013229D01*
X008149Y013231D01*
X008132Y013235D01*
X008116Y013242D01*
X008102Y013252D01*
X008089Y013265D01*
X008079Y013279D01*
X008072Y013295D01*
X008068Y013312D01*
X008066Y013329D01*
X008966Y014029D02*
X008966Y014079D01*
X008966Y014279D02*
X008966Y014329D01*
X010886Y015832D02*
X005986Y015832D01*
X005986Y016182D01*
X005386Y016182D01*
X005386Y015832D01*
X004636Y015832D01*
X004636Y019932D01*
X005386Y019932D01*
X005386Y019582D01*
X005986Y019582D01*
X005986Y019932D01*
X010886Y019932D01*
X010886Y015832D01*
X012265Y015102D02*
X012515Y015352D01*
X013015Y015352D01*
X013265Y015102D01*
X013265Y014602D01*
X013015Y014352D01*
X013265Y014102D01*
X013265Y013602D01*
X013015Y013352D01*
X012515Y013352D01*
X012265Y013602D01*
X012265Y014102D01*
X012515Y014352D01*
X012265Y014602D01*
X012265Y015102D01*
X012515Y014352D02*
X013015Y014352D01*
X009619Y012169D02*
X004719Y012169D01*
X004719Y011819D01*
X004119Y011819D01*
X004119Y012169D01*
X003369Y012169D01*
X003369Y008069D01*
X004119Y008069D01*
X004119Y008419D01*
X004719Y008419D01*
X004719Y008069D01*
X009619Y008069D01*
X009619Y012169D01*
X013053Y009153D02*
X013303Y009403D01*
X013803Y009403D01*
X014053Y009153D01*
X014053Y008653D01*
X013803Y008403D01*
X014053Y008153D01*
X014053Y007653D01*
X013803Y007403D01*
X013303Y007403D01*
X013053Y007653D01*
X013053Y008153D01*
X013303Y008403D01*
X013053Y008653D01*
X013053Y009153D01*
X013303Y008403D02*
X013803Y008403D01*
X017872Y011090D02*
X018122Y010840D01*
X018622Y010840D01*
X018872Y011090D01*
X018872Y011590D01*
X018622Y011840D01*
X018872Y012090D01*
X018872Y012590D01*
X018622Y012840D01*
X018122Y012840D01*
X017872Y012590D01*
X017872Y012090D01*
X018122Y011840D01*
X018622Y011840D01*
X018122Y011840D02*
X017872Y011590D01*
X017872Y011090D01*
X019596Y009960D02*
X019846Y010210D01*
X021346Y010210D01*
X021596Y009960D01*
X021596Y009460D01*
X021346Y009210D01*
X019846Y009210D01*
X019596Y009460D01*
X019596Y009960D01*
X019846Y009210D02*
X019596Y008960D01*
X019596Y008460D01*
X019846Y008210D01*
X021346Y008210D01*
X021596Y008460D01*
X021596Y008960D01*
X021346Y009210D01*
X021346Y008210D02*
X021596Y007960D01*
X021596Y007460D01*
X021346Y007210D01*
X019846Y007210D01*
X019596Y007460D01*
X019596Y007960D01*
X019846Y008210D01*
X019846Y007210D02*
X019596Y006960D01*
X019596Y006460D01*
X019846Y006210D01*
X021346Y006210D01*
X021596Y006460D01*
X021596Y006960D01*
X021346Y007210D01*
X021346Y006210D02*
X021596Y005960D01*
X021596Y005460D01*
X021346Y005210D01*
X019846Y005210D01*
X019596Y005460D01*
X019596Y005960D01*
X019846Y006210D01*
X017285Y005376D02*
X017285Y003076D01*
X009285Y003076D01*
X009285Y003826D01*
X009324Y003828D01*
X009363Y003834D01*
X009401Y003843D01*
X009438Y003856D01*
X009474Y003873D01*
X009507Y003893D01*
X009539Y003917D01*
X009568Y003943D01*
X009594Y003972D01*
X009618Y004004D01*
X009638Y004037D01*
X009655Y004073D01*
X009668Y004110D01*
X009677Y004148D01*
X009683Y004187D01*
X009685Y004226D01*
X009683Y004265D01*
X009677Y004304D01*
X009668Y004342D01*
X009655Y004379D01*
X009638Y004415D01*
X009618Y004448D01*
X009594Y004480D01*
X009568Y004509D01*
X009539Y004535D01*
X009507Y004559D01*
X009474Y004579D01*
X009438Y004596D01*
X009401Y004609D01*
X009363Y004618D01*
X009324Y004624D01*
X009285Y004626D01*
X009285Y005376D01*
X017285Y005376D01*
X020846Y003267D02*
X021096Y003517D01*
X021596Y003517D01*
X021846Y003267D01*
X021846Y002767D01*
X021596Y002517D01*
X021846Y002267D01*
X021846Y001767D01*
X021596Y001517D01*
X021846Y001267D01*
X021846Y000767D01*
X021596Y000517D01*
X021096Y000517D01*
X020846Y000767D01*
X020846Y001267D01*
X021096Y001517D01*
X020846Y001767D01*
X020846Y002267D01*
X021096Y002517D01*
X020846Y002767D01*
X020846Y003267D01*
X021096Y002517D02*
X021596Y002517D01*
X021596Y001517D02*
X021096Y001517D01*
X025224Y004528D02*
X025474Y004278D01*
X025974Y004278D01*
X026224Y004528D01*
X026224Y005028D01*
X025974Y005278D01*
X025474Y005278D01*
X025224Y005028D01*
X025224Y004528D01*
X033636Y003820D02*
X033986Y003820D01*
X034336Y003820D01*
X036036Y003820D01*
X036036Y009740D01*
X036586Y009740D01*
X036586Y003820D01*
X036036Y003820D01*
X034386Y003620D02*
X034336Y003820D01*
X034336Y009740D01*
X036036Y009740D01*
X036046Y009965D02*
X034346Y009965D01*
X034346Y015885D01*
X036046Y015885D01*
X036596Y015885D01*
X036596Y009965D01*
X036046Y009965D01*
X036046Y015885D01*
X036057Y016111D02*
X034357Y016111D01*
X034357Y022031D01*
X036057Y022031D01*
X036607Y022031D01*
X036607Y016111D01*
X036057Y016111D01*
X036057Y022031D01*
X034357Y022031D02*
X033657Y022031D01*
X033657Y016111D01*
X034007Y016111D01*
X034357Y016111D01*
X034407Y015911D01*
X033957Y015911D01*
X034007Y016111D01*
X034346Y015885D02*
X033646Y015885D01*
X033646Y009965D01*
X033996Y009965D01*
X034346Y009965D01*
X034396Y009765D01*
X033946Y009765D01*
X033996Y009965D01*
X034336Y009740D02*
X033636Y009740D01*
X033636Y003820D01*
X033986Y003820D02*
X033936Y003620D01*
X034386Y003620D01*
X033786Y004810D02*
X033788Y004838D01*
X033794Y004865D01*
X033803Y004891D01*
X033816Y004916D01*
X033833Y004939D01*
X033852Y004959D01*
X033874Y004976D01*
X033898Y004990D01*
X033924Y005000D01*
X033951Y005007D01*
X033979Y005010D01*
X034007Y005009D01*
X034034Y005004D01*
X034061Y004995D01*
X034086Y004983D01*
X034109Y004968D01*
X034130Y004949D01*
X034148Y004928D01*
X034163Y004904D01*
X034174Y004878D01*
X034182Y004852D01*
X034186Y004824D01*
X034186Y004796D01*
X034182Y004768D01*
X034174Y004742D01*
X034163Y004716D01*
X034148Y004692D01*
X034130Y004671D01*
X034109Y004652D01*
X034086Y004637D01*
X034061Y004625D01*
X034034Y004616D01*
X034007Y004611D01*
X033979Y004610D01*
X033951Y004613D01*
X033924Y004620D01*
X033898Y004630D01*
X033874Y004644D01*
X033852Y004661D01*
X033833Y004681D01*
X033816Y004704D01*
X033803Y004729D01*
X033794Y004755D01*
X033788Y004782D01*
X033786Y004810D01*
X033786Y006780D02*
X033788Y006808D01*
X033794Y006835D01*
X033803Y006861D01*
X033816Y006886D01*
X033833Y006909D01*
X033852Y006929D01*
X033874Y006946D01*
X033898Y006960D01*
X033924Y006970D01*
X033951Y006977D01*
X033979Y006980D01*
X034007Y006979D01*
X034034Y006974D01*
X034061Y006965D01*
X034086Y006953D01*
X034109Y006938D01*
X034130Y006919D01*
X034148Y006898D01*
X034163Y006874D01*
X034174Y006848D01*
X034182Y006822D01*
X034186Y006794D01*
X034186Y006766D01*
X034182Y006738D01*
X034174Y006712D01*
X034163Y006686D01*
X034148Y006662D01*
X034130Y006641D01*
X034109Y006622D01*
X034086Y006607D01*
X034061Y006595D01*
X034034Y006586D01*
X034007Y006581D01*
X033979Y006580D01*
X033951Y006583D01*
X033924Y006590D01*
X033898Y006600D01*
X033874Y006614D01*
X033852Y006631D01*
X033833Y006651D01*
X033816Y006674D01*
X033803Y006699D01*
X033794Y006725D01*
X033788Y006752D01*
X033786Y006780D01*
X033786Y008750D02*
X033788Y008778D01*
X033794Y008805D01*
X033803Y008831D01*
X033816Y008856D01*
X033833Y008879D01*
X033852Y008899D01*
X033874Y008916D01*
X033898Y008930D01*
X033924Y008940D01*
X033951Y008947D01*
X033979Y008950D01*
X034007Y008949D01*
X034034Y008944D01*
X034061Y008935D01*
X034086Y008923D01*
X034109Y008908D01*
X034130Y008889D01*
X034148Y008868D01*
X034163Y008844D01*
X034174Y008818D01*
X034182Y008792D01*
X034186Y008764D01*
X034186Y008736D01*
X034182Y008708D01*
X034174Y008682D01*
X034163Y008656D01*
X034148Y008632D01*
X034130Y008611D01*
X034109Y008592D01*
X034086Y008577D01*
X034061Y008565D01*
X034034Y008556D01*
X034007Y008551D01*
X033979Y008550D01*
X033951Y008553D01*
X033924Y008560D01*
X033898Y008570D01*
X033874Y008584D01*
X033852Y008601D01*
X033833Y008621D01*
X033816Y008644D01*
X033803Y008669D01*
X033794Y008695D01*
X033788Y008722D01*
X033786Y008750D01*
X033796Y010955D02*
X033798Y010983D01*
X033804Y011010D01*
X033813Y011036D01*
X033826Y011061D01*
X033843Y011084D01*
X033862Y011104D01*
X033884Y011121D01*
X033908Y011135D01*
X033934Y011145D01*
X033961Y011152D01*
X033989Y011155D01*
X034017Y011154D01*
X034044Y011149D01*
X034071Y011140D01*
X034096Y011128D01*
X034119Y011113D01*
X034140Y011094D01*
X034158Y011073D01*
X034173Y011049D01*
X034184Y011023D01*
X034192Y010997D01*
X034196Y010969D01*
X034196Y010941D01*
X034192Y010913D01*
X034184Y010887D01*
X034173Y010861D01*
X034158Y010837D01*
X034140Y010816D01*
X034119Y010797D01*
X034096Y010782D01*
X034071Y010770D01*
X034044Y010761D01*
X034017Y010756D01*
X033989Y010755D01*
X033961Y010758D01*
X033934Y010765D01*
X033908Y010775D01*
X033884Y010789D01*
X033862Y010806D01*
X033843Y010826D01*
X033826Y010849D01*
X033813Y010874D01*
X033804Y010900D01*
X033798Y010927D01*
X033796Y010955D01*
X033796Y012925D02*
X033798Y012953D01*
X033804Y012980D01*
X033813Y013006D01*
X033826Y013031D01*
X033843Y013054D01*
X033862Y013074D01*
X033884Y013091D01*
X033908Y013105D01*
X033934Y013115D01*
X033961Y013122D01*
X033989Y013125D01*
X034017Y013124D01*
X034044Y013119D01*
X034071Y013110D01*
X034096Y013098D01*
X034119Y013083D01*
X034140Y013064D01*
X034158Y013043D01*
X034173Y013019D01*
X034184Y012993D01*
X034192Y012967D01*
X034196Y012939D01*
X034196Y012911D01*
X034192Y012883D01*
X034184Y012857D01*
X034173Y012831D01*
X034158Y012807D01*
X034140Y012786D01*
X034119Y012767D01*
X034096Y012752D01*
X034071Y012740D01*
X034044Y012731D01*
X034017Y012726D01*
X033989Y012725D01*
X033961Y012728D01*
X033934Y012735D01*
X033908Y012745D01*
X033884Y012759D01*
X033862Y012776D01*
X033843Y012796D01*
X033826Y012819D01*
X033813Y012844D01*
X033804Y012870D01*
X033798Y012897D01*
X033796Y012925D01*
X033796Y014895D02*
X033798Y014923D01*
X033804Y014950D01*
X033813Y014976D01*
X033826Y015001D01*
X033843Y015024D01*
X033862Y015044D01*
X033884Y015061D01*
X033908Y015075D01*
X033934Y015085D01*
X033961Y015092D01*
X033989Y015095D01*
X034017Y015094D01*
X034044Y015089D01*
X034071Y015080D01*
X034096Y015068D01*
X034119Y015053D01*
X034140Y015034D01*
X034158Y015013D01*
X034173Y014989D01*
X034184Y014963D01*
X034192Y014937D01*
X034196Y014909D01*
X034196Y014881D01*
X034192Y014853D01*
X034184Y014827D01*
X034173Y014801D01*
X034158Y014777D01*
X034140Y014756D01*
X034119Y014737D01*
X034096Y014722D01*
X034071Y014710D01*
X034044Y014701D01*
X034017Y014696D01*
X033989Y014695D01*
X033961Y014698D01*
X033934Y014705D01*
X033908Y014715D01*
X033884Y014729D01*
X033862Y014746D01*
X033843Y014766D01*
X033826Y014789D01*
X033813Y014814D01*
X033804Y014840D01*
X033798Y014867D01*
X033796Y014895D01*
X033807Y017101D02*
X033809Y017129D01*
X033815Y017156D01*
X033824Y017182D01*
X033837Y017207D01*
X033854Y017230D01*
X033873Y017250D01*
X033895Y017267D01*
X033919Y017281D01*
X033945Y017291D01*
X033972Y017298D01*
X034000Y017301D01*
X034028Y017300D01*
X034055Y017295D01*
X034082Y017286D01*
X034107Y017274D01*
X034130Y017259D01*
X034151Y017240D01*
X034169Y017219D01*
X034184Y017195D01*
X034195Y017169D01*
X034203Y017143D01*
X034207Y017115D01*
X034207Y017087D01*
X034203Y017059D01*
X034195Y017033D01*
X034184Y017007D01*
X034169Y016983D01*
X034151Y016962D01*
X034130Y016943D01*
X034107Y016928D01*
X034082Y016916D01*
X034055Y016907D01*
X034028Y016902D01*
X034000Y016901D01*
X033972Y016904D01*
X033945Y016911D01*
X033919Y016921D01*
X033895Y016935D01*
X033873Y016952D01*
X033854Y016972D01*
X033837Y016995D01*
X033824Y017020D01*
X033815Y017046D01*
X033809Y017073D01*
X033807Y017101D01*
X033807Y019071D02*
X033809Y019099D01*
X033815Y019126D01*
X033824Y019152D01*
X033837Y019177D01*
X033854Y019200D01*
X033873Y019220D01*
X033895Y019237D01*
X033919Y019251D01*
X033945Y019261D01*
X033972Y019268D01*
X034000Y019271D01*
X034028Y019270D01*
X034055Y019265D01*
X034082Y019256D01*
X034107Y019244D01*
X034130Y019229D01*
X034151Y019210D01*
X034169Y019189D01*
X034184Y019165D01*
X034195Y019139D01*
X034203Y019113D01*
X034207Y019085D01*
X034207Y019057D01*
X034203Y019029D01*
X034195Y019003D01*
X034184Y018977D01*
X034169Y018953D01*
X034151Y018932D01*
X034130Y018913D01*
X034107Y018898D01*
X034082Y018886D01*
X034055Y018877D01*
X034028Y018872D01*
X034000Y018871D01*
X033972Y018874D01*
X033945Y018881D01*
X033919Y018891D01*
X033895Y018905D01*
X033873Y018922D01*
X033854Y018942D01*
X033837Y018965D01*
X033824Y018990D01*
X033815Y019016D01*
X033809Y019043D01*
X033807Y019071D01*
X033807Y021041D02*
X033809Y021069D01*
X033815Y021096D01*
X033824Y021122D01*
X033837Y021147D01*
X033854Y021170D01*
X033873Y021190D01*
X033895Y021207D01*
X033919Y021221D01*
X033945Y021231D01*
X033972Y021238D01*
X034000Y021241D01*
X034028Y021240D01*
X034055Y021235D01*
X034082Y021226D01*
X034107Y021214D01*
X034130Y021199D01*
X034151Y021180D01*
X034169Y021159D01*
X034184Y021135D01*
X034195Y021109D01*
X034203Y021083D01*
X034207Y021055D01*
X034207Y021027D01*
X034203Y020999D01*
X034195Y020973D01*
X034184Y020947D01*
X034169Y020923D01*
X034151Y020902D01*
X034130Y020883D01*
X034107Y020868D01*
X034082Y020856D01*
X034055Y020847D01*
X034028Y020842D01*
X034000Y020841D01*
X033972Y020844D01*
X033945Y020851D01*
X033919Y020861D01*
X033895Y020875D01*
X033873Y020892D01*
X033854Y020912D01*
X033837Y020935D01*
X033824Y020960D01*
X033815Y020986D01*
X033809Y021013D01*
X033807Y021041D01*
X029099Y018125D02*
X029099Y015505D01*
X028960Y015365D01*
X026339Y015365D01*
X026339Y018125D01*
X029099Y018125D01*
X026377Y020827D02*
X026127Y020577D01*
X025627Y020577D01*
X025377Y020827D01*
X025377Y021327D01*
X025627Y021577D01*
X026127Y021577D01*
X026377Y021327D01*
X026377Y020827D01*
X023942Y017926D02*
X023792Y017926D01*
X023742Y017876D01*
X021842Y017876D01*
X021792Y017926D01*
X021642Y017926D01*
X021625Y017924D01*
X021608Y017920D01*
X021592Y017913D01*
X021578Y017903D01*
X021565Y017890D01*
X021555Y017876D01*
X021548Y017860D01*
X021544Y017843D01*
X021542Y017826D01*
X021542Y017126D02*
X021544Y017109D01*
X021548Y017092D01*
X021555Y017076D01*
X021565Y017062D01*
X021578Y017049D01*
X021592Y017039D01*
X021608Y017032D01*
X021625Y017028D01*
X021642Y017026D01*
X021792Y017026D01*
X021842Y017076D01*
X023742Y017076D01*
X023792Y017026D01*
X023942Y017026D01*
X023959Y017028D01*
X023976Y017032D01*
X023992Y017039D01*
X024006Y017049D01*
X024019Y017062D01*
X024029Y017076D01*
X024036Y017092D01*
X024040Y017109D01*
X024042Y017126D01*
X024042Y017826D02*
X024040Y017843D01*
X024036Y017860D01*
X024029Y017876D01*
X024019Y017890D01*
X024006Y017903D01*
X023992Y017913D01*
X023976Y017920D01*
X023959Y017924D01*
X023942Y017926D01*
X021514Y021162D02*
X021014Y021162D01*
X020764Y021412D01*
X020764Y021912D01*
X021014Y022162D01*
X020764Y022412D01*
X020764Y022912D01*
X021014Y023162D01*
X020764Y023412D01*
X020764Y023912D01*
X021014Y024162D01*
X021514Y024162D01*
X021764Y023912D01*
X021764Y023412D01*
X021514Y023162D01*
X021764Y022912D01*
X021764Y022412D01*
X021514Y022162D01*
X021764Y021912D01*
X021764Y021412D01*
X021514Y021162D01*
X021514Y022162D02*
X021014Y022162D01*
X021014Y023162D02*
X021514Y023162D01*
X018622Y015840D02*
X018122Y015840D01*
X017872Y015590D01*
X017872Y015090D01*
X018122Y014840D01*
X018622Y014840D01*
X018872Y015090D01*
X018872Y015590D01*
X018622Y015840D01*
X018622Y014840D02*
X018872Y014590D01*
X018872Y014090D01*
X018622Y013840D01*
X018872Y013590D01*
X018872Y013090D01*
X018622Y012840D01*
X018122Y012840D02*
X017872Y013090D01*
X017872Y013590D01*
X018122Y013840D01*
X017872Y014090D01*
X017872Y014590D01*
X018122Y014840D01*
X018122Y013840D02*
X018622Y013840D01*
X020411Y014055D02*
X020456Y014053D01*
X020502Y014048D01*
X020546Y014040D01*
X020590Y014028D01*
X020633Y014012D01*
X020675Y013994D01*
X020715Y013972D01*
X020753Y013948D01*
X020789Y013921D01*
X020824Y013891D01*
X020855Y013858D01*
X020885Y013823D01*
X020411Y014055D02*
X020366Y014053D01*
X020320Y014048D01*
X020276Y014040D01*
X020232Y014028D01*
X020189Y014012D01*
X020147Y013994D01*
X020107Y013972D01*
X020069Y013948D01*
X020033Y013921D01*
X019998Y013891D01*
X019967Y013858D01*
X019937Y013823D01*
X020411Y012855D02*
X020457Y012857D01*
X020503Y012862D01*
X020549Y012871D01*
X020594Y012883D01*
X020637Y012899D01*
X020679Y012918D01*
X020720Y012941D01*
X020759Y012966D01*
X020795Y012994D01*
X020830Y013025D01*
X020862Y013059D01*
X020891Y013095D01*
X020411Y012855D02*
X020364Y012857D01*
X020316Y012863D01*
X020270Y012872D01*
X020224Y012885D01*
X020180Y012901D01*
X020136Y012921D01*
X020095Y012945D01*
X020056Y012971D01*
X020019Y013001D01*
X019984Y013034D01*
X019952Y013069D01*
X019923Y013106D01*
X020411Y012155D02*
X020456Y012153D01*
X020502Y012148D01*
X020546Y012140D01*
X020590Y012128D01*
X020633Y012112D01*
X020675Y012094D01*
X020715Y012072D01*
X020753Y012048D01*
X020789Y012021D01*
X020824Y011991D01*
X020855Y011958D01*
X020885Y011923D01*
X020411Y012155D02*
X020366Y012153D01*
X020320Y012148D01*
X020276Y012140D01*
X020232Y012128D01*
X020189Y012112D01*
X020147Y012094D01*
X020107Y012072D01*
X020069Y012048D01*
X020033Y012021D01*
X019998Y011991D01*
X019967Y011958D01*
X019937Y011923D01*
X020411Y010955D02*
X020457Y010957D01*
X020503Y010962D01*
X020549Y010971D01*
X020594Y010983D01*
X020637Y010999D01*
X020679Y011018D01*
X020720Y011041D01*
X020759Y011066D01*
X020795Y011094D01*
X020830Y011125D01*
X020862Y011159D01*
X020891Y011195D01*
X020411Y010955D02*
X020364Y010957D01*
X020316Y010963D01*
X020270Y010972D01*
X020224Y010985D01*
X020180Y011001D01*
X020136Y011021D01*
X020095Y011045D01*
X020056Y011071D01*
X020019Y011101D01*
X019984Y011134D01*
X019952Y011169D01*
X019923Y011206D01*
X025497Y011149D02*
X025747Y010899D01*
X026247Y010899D01*
X026497Y011149D01*
X026497Y011649D01*
X026247Y011899D01*
X025747Y011899D01*
X025497Y011649D01*
X025497Y011149D01*
X028658Y015665D02*
X028660Y015688D01*
X028666Y015711D01*
X028675Y015732D01*
X028688Y015752D01*
X028704Y015769D01*
X028722Y015783D01*
X028742Y015794D01*
X028764Y015802D01*
X028787Y015806D01*
X028811Y015806D01*
X028834Y015802D01*
X028856Y015794D01*
X028876Y015783D01*
X028894Y015769D01*
X028910Y015752D01*
X028923Y015732D01*
X028932Y015711D01*
X028938Y015688D01*
X028940Y015665D01*
X028938Y015642D01*
X028932Y015619D01*
X028923Y015598D01*
X028910Y015578D01*
X028894Y015561D01*
X028876Y015547D01*
X028856Y015536D01*
X028834Y015528D01*
X028811Y015524D01*
X028787Y015524D01*
X028764Y015528D01*
X028742Y015536D01*
X028722Y015547D01*
X028704Y015561D01*
X028688Y015578D01*
X028675Y015598D01*
X028666Y015619D01*
X028660Y015642D01*
X028658Y015665D01*
X007386Y005359D02*
X007386Y003659D01*
X007384Y003642D01*
X007380Y003625D01*
X007373Y003609D01*
X007363Y003595D01*
X007350Y003582D01*
X007336Y003572D01*
X007320Y003565D01*
X007303Y003561D01*
X007286Y003559D01*
X005686Y003559D01*
X005669Y003561D01*
X005652Y003565D01*
X005636Y003572D01*
X005622Y003582D01*
X005609Y003595D01*
X005599Y003609D01*
X005592Y003625D01*
X005588Y003642D01*
X005586Y003659D01*
X005586Y005359D01*
X005588Y005376D01*
X005592Y005393D01*
X005599Y005409D01*
X005609Y005423D01*
X005622Y005436D01*
X005636Y005446D01*
X005652Y005453D01*
X005669Y005457D01*
X005686Y005459D01*
X007286Y005459D01*
X007303Y005457D01*
X007320Y005453D01*
X007336Y005446D01*
X007350Y005436D01*
X007363Y005423D01*
X007373Y005409D01*
X007380Y005393D01*
X007384Y005376D01*
X007386Y005359D01*
X006486Y004659D02*
X006486Y004609D01*
X006486Y004409D02*
X006486Y004359D01*
X004009Y010119D02*
X004011Y010172D01*
X004017Y010225D01*
X004027Y010277D01*
X004041Y010328D01*
X004058Y010378D01*
X004079Y010427D01*
X004104Y010474D01*
X004132Y010519D01*
X004164Y010562D01*
X004199Y010602D01*
X004236Y010639D01*
X004276Y010674D01*
X004319Y010706D01*
X004364Y010734D01*
X004411Y010759D01*
X004460Y010780D01*
X004510Y010797D01*
X004561Y010811D01*
X004613Y010821D01*
X004666Y010827D01*
X004719Y010829D01*
X004772Y010827D01*
X004825Y010821D01*
X004877Y010811D01*
X004928Y010797D01*
X004978Y010780D01*
X005027Y010759D01*
X005074Y010734D01*
X005119Y010706D01*
X005162Y010674D01*
X005202Y010639D01*
X005239Y010602D01*
X005274Y010562D01*
X005306Y010519D01*
X005334Y010474D01*
X005359Y010427D01*
X005380Y010378D01*
X005397Y010328D01*
X005411Y010277D01*
X005421Y010225D01*
X005427Y010172D01*
X005429Y010119D01*
X005427Y010066D01*
X005421Y010013D01*
X005411Y009961D01*
X005397Y009910D01*
X005380Y009860D01*
X005359Y009811D01*
X005334Y009764D01*
X005306Y009719D01*
X005274Y009676D01*
X005239Y009636D01*
X005202Y009599D01*
X005162Y009564D01*
X005119Y009532D01*
X005074Y009504D01*
X005027Y009479D01*
X004978Y009458D01*
X004928Y009441D01*
X004877Y009427D01*
X004825Y009417D01*
X004772Y009411D01*
X004719Y009409D01*
X004666Y009411D01*
X004613Y009417D01*
X004561Y009427D01*
X004510Y009441D01*
X004460Y009458D01*
X004411Y009479D01*
X004364Y009504D01*
X004319Y009532D01*
X004276Y009564D01*
X004236Y009599D01*
X004199Y009636D01*
X004164Y009676D01*
X004132Y009719D01*
X004104Y009764D01*
X004079Y009811D01*
X004058Y009860D01*
X004041Y009910D01*
X004027Y009961D01*
X004017Y010013D01*
X004011Y010066D01*
X004009Y010119D01*
X005276Y017882D02*
X005278Y017935D01*
X005284Y017988D01*
X005294Y018040D01*
X005308Y018091D01*
X005325Y018141D01*
X005346Y018190D01*
X005371Y018237D01*
X005399Y018282D01*
X005431Y018325D01*
X005466Y018365D01*
X005503Y018402D01*
X005543Y018437D01*
X005586Y018469D01*
X005631Y018497D01*
X005678Y018522D01*
X005727Y018543D01*
X005777Y018560D01*
X005828Y018574D01*
X005880Y018584D01*
X005933Y018590D01*
X005986Y018592D01*
X006039Y018590D01*
X006092Y018584D01*
X006144Y018574D01*
X006195Y018560D01*
X006245Y018543D01*
X006294Y018522D01*
X006341Y018497D01*
X006386Y018469D01*
X006429Y018437D01*
X006469Y018402D01*
X006506Y018365D01*
X006541Y018325D01*
X006573Y018282D01*
X006601Y018237D01*
X006626Y018190D01*
X006647Y018141D01*
X006664Y018091D01*
X006678Y018040D01*
X006688Y017988D01*
X006694Y017935D01*
X006696Y017882D01*
X006694Y017829D01*
X006688Y017776D01*
X006678Y017724D01*
X006664Y017673D01*
X006647Y017623D01*
X006626Y017574D01*
X006601Y017527D01*
X006573Y017482D01*
X006541Y017439D01*
X006506Y017399D01*
X006469Y017362D01*
X006429Y017327D01*
X006386Y017295D01*
X006341Y017267D01*
X006294Y017242D01*
X006245Y017221D01*
X006195Y017204D01*
X006144Y017190D01*
X006092Y017180D01*
X006039Y017174D01*
X005986Y017172D01*
X005933Y017174D01*
X005880Y017180D01*
X005828Y017190D01*
X005777Y017204D01*
X005727Y017221D01*
X005678Y017242D01*
X005631Y017267D01*
X005586Y017295D01*
X005543Y017327D01*
X005503Y017362D01*
X005466Y017399D01*
X005431Y017439D01*
X005399Y017482D01*
X005371Y017527D01*
X005346Y017574D01*
X005325Y017623D01*
X005308Y017673D01*
X005294Y017724D01*
X005284Y017776D01*
X005278Y017829D01*
X005276Y017882D01*
D12*
X010502Y015698D02*
X010712Y015698D01*
X010607Y015698D02*
X010607Y015067D01*
X010502Y015067D02*
X010712Y015067D01*
X010932Y015172D02*
X011037Y015067D01*
X011247Y015067D01*
X011352Y015172D01*
X011576Y015382D02*
X011997Y015382D01*
X011892Y015067D02*
X011892Y015698D01*
X011576Y015382D01*
X011352Y015592D02*
X011247Y015698D01*
X011037Y015698D01*
X010932Y015592D01*
X010932Y015172D01*
X010729Y007934D02*
X010309Y007934D01*
X010309Y007619D01*
X010519Y007724D01*
X010624Y007724D01*
X010729Y007619D01*
X010729Y007409D01*
X010624Y007304D01*
X010414Y007304D01*
X010309Y007409D01*
X010085Y007409D02*
X009980Y007304D01*
X009770Y007304D01*
X009664Y007409D01*
X009664Y007829D01*
X009770Y007934D01*
X009980Y007934D01*
X010085Y007829D01*
X009445Y007934D02*
X009235Y007934D01*
X009340Y007934D02*
X009340Y007304D01*
X009235Y007304D02*
X009445Y007304D01*
X032770Y004784D02*
X032770Y004574D01*
X032875Y004469D01*
X032770Y004245D02*
X033401Y003825D01*
X033401Y004245D02*
X032770Y003825D01*
X033295Y004469D02*
X033401Y004574D01*
X033401Y004784D01*
X033295Y004889D01*
X033190Y004889D01*
X033085Y004784D01*
X033085Y004679D01*
X033085Y004784D02*
X032980Y004889D01*
X032875Y004889D01*
X032770Y004784D01*
X032781Y009970D02*
X033411Y010390D01*
X033411Y010615D02*
X032991Y011035D01*
X032886Y011035D01*
X032781Y010930D01*
X032781Y010720D01*
X032886Y010615D01*
X032781Y010390D02*
X033411Y009970D01*
X033411Y010615D02*
X033411Y011035D01*
X033422Y016116D02*
X032791Y016536D01*
X033002Y016760D02*
X032791Y016970D01*
X033422Y016970D01*
X033422Y016760D02*
X033422Y017180D01*
X033422Y016536D02*
X032791Y016116D01*
D13*
X010636Y016082D02*
X007386Y016082D01*
X007386Y019682D01*
X010636Y019682D01*
X010636Y016082D01*
X009369Y011919D02*
X006119Y011919D01*
X006119Y008319D01*
X009369Y008319D01*
X009369Y011919D01*
D14*
X010844Y011119D03*
X010844Y010119D03*
X010844Y009119D03*
X012111Y016882D03*
X012111Y017882D03*
X012111Y018882D03*
D15*
X011436Y018882D03*
X011436Y017882D03*
X011436Y016882D03*
X010169Y011119D03*
X010169Y010119D03*
X010169Y009119D03*
D16*
X012946Y009949D02*
X013022Y009873D01*
X013329Y009873D01*
X013406Y009949D01*
X013406Y010103D01*
X013329Y010180D01*
X013329Y010333D02*
X013406Y010410D01*
X013406Y010563D01*
X013329Y010640D01*
X013022Y010640D01*
X012946Y010563D01*
X012946Y010410D01*
X013022Y010333D01*
X013099Y010333D01*
X013176Y010410D01*
X013176Y010640D01*
X013022Y010180D02*
X012946Y010103D01*
X012946Y009949D01*
X013002Y011673D02*
X013309Y011673D01*
X013386Y011749D01*
X013386Y011903D01*
X013309Y011980D01*
X013386Y012133D02*
X013079Y012440D01*
X013002Y012440D01*
X012926Y012363D01*
X012926Y012210D01*
X013002Y012133D01*
X013002Y011980D02*
X012926Y011903D01*
X012926Y011749D01*
X013002Y011673D01*
X013386Y012133D02*
X013386Y012440D01*
X013272Y016440D02*
X012965Y016440D01*
X012888Y016517D01*
X012888Y016670D01*
X012965Y016747D01*
X012965Y016901D02*
X012888Y016977D01*
X012888Y017131D01*
X012965Y017208D01*
X013041Y017208D01*
X013118Y017131D01*
X013195Y017208D01*
X013272Y017208D01*
X013348Y017131D01*
X013348Y016977D01*
X013272Y016901D01*
X013272Y016747D02*
X013348Y016670D01*
X013348Y016517D01*
X013272Y016440D01*
X013118Y017054D02*
X013118Y017131D01*
X014296Y018337D02*
X014372Y018260D01*
X014679Y018260D01*
X014756Y018337D01*
X014756Y018490D01*
X014679Y018567D01*
X014526Y018720D02*
X014526Y019027D01*
X014756Y018950D02*
X014296Y018950D01*
X014526Y018720D01*
X014372Y018567D02*
X014296Y018490D01*
X014296Y018337D01*
X014457Y019992D02*
X014764Y019992D01*
X014841Y020068D01*
X014841Y020222D01*
X014764Y020299D01*
X014841Y020452D02*
X014841Y020759D01*
X014841Y020605D02*
X014380Y020605D01*
X014534Y020452D01*
X014457Y020299D02*
X014380Y020222D01*
X014380Y020068D01*
X014457Y019992D01*
X014576Y021329D02*
X014576Y021559D01*
X014500Y021636D01*
X014346Y021636D01*
X014270Y021559D01*
X014270Y021329D01*
X014730Y021329D01*
X014730Y021789D02*
X014423Y021789D01*
X014270Y021942D01*
X014423Y022096D01*
X014730Y022096D01*
X014730Y022249D02*
X014730Y022480D01*
X014653Y022556D01*
X014346Y022556D01*
X014270Y022480D01*
X014270Y022249D01*
X014730Y022249D01*
X014500Y022096D02*
X014500Y021789D01*
X013530Y021789D02*
X013223Y021789D01*
X013070Y021942D01*
X013223Y022096D01*
X013530Y022096D01*
X013530Y022249D02*
X013530Y022480D01*
X013453Y022556D01*
X013146Y022556D01*
X013070Y022480D01*
X013070Y022249D01*
X013530Y022249D01*
X013300Y022096D02*
X013300Y021789D01*
X013300Y021636D02*
X013376Y021559D01*
X013376Y021329D01*
X013530Y021329D02*
X013070Y021329D01*
X013070Y021559D01*
X013146Y021636D01*
X013300Y021636D01*
X012296Y021733D02*
X011989Y021733D01*
X011835Y021887D01*
X011989Y022040D01*
X012296Y022040D01*
X012296Y022194D02*
X012296Y022424D01*
X012219Y022501D01*
X011912Y022501D01*
X011835Y022424D01*
X011835Y022194D01*
X012296Y022194D01*
X012065Y022040D02*
X012065Y021733D01*
X012065Y021580D02*
X012142Y021503D01*
X012142Y021273D01*
X012296Y021273D02*
X011835Y021273D01*
X011835Y021503D01*
X011912Y021580D01*
X012065Y021580D01*
X011989Y022654D02*
X011835Y022807D01*
X012296Y022807D01*
X012296Y022654D02*
X012296Y022961D01*
X013070Y022940D02*
X013070Y022786D01*
X013146Y022710D01*
X013070Y022940D02*
X013146Y023017D01*
X013223Y023017D01*
X013530Y022710D01*
X013530Y023017D01*
X014270Y022940D02*
X014346Y023017D01*
X014423Y023017D01*
X014500Y022940D01*
X014576Y023017D01*
X014653Y023017D01*
X014730Y022940D01*
X014730Y022786D01*
X014653Y022710D01*
X014500Y022863D02*
X014500Y022940D01*
X014270Y022940D02*
X014270Y022786D01*
X014346Y022710D01*
X015590Y022940D02*
X015820Y022710D01*
X015820Y023017D01*
X016050Y022940D02*
X015590Y022940D01*
X015666Y022556D02*
X015590Y022480D01*
X015590Y022249D01*
X016050Y022249D01*
X016050Y022480D01*
X015973Y022556D01*
X015666Y022556D01*
X015743Y022096D02*
X016050Y022096D01*
X015820Y022096D02*
X015820Y021789D01*
X015743Y021789D02*
X016050Y021789D01*
X015896Y021559D02*
X015896Y021329D01*
X016050Y021329D02*
X015590Y021329D01*
X015590Y021559D01*
X015666Y021636D01*
X015820Y021636D01*
X015896Y021559D01*
X015743Y021789D02*
X015590Y021942D01*
X015743Y022096D01*
X016910Y021942D02*
X017063Y021789D01*
X017370Y021789D01*
X017140Y021789D02*
X017140Y022096D01*
X017063Y022096D02*
X017370Y022096D01*
X017370Y022249D02*
X017370Y022480D01*
X017293Y022556D01*
X016986Y022556D01*
X016910Y022480D01*
X016910Y022249D01*
X017370Y022249D01*
X017063Y022096D02*
X016910Y021942D01*
X016986Y021636D02*
X017140Y021636D01*
X017216Y021559D01*
X017216Y021329D01*
X017370Y021329D02*
X016910Y021329D01*
X016910Y021559D01*
X016986Y021636D01*
X018185Y021537D02*
X018262Y021614D01*
X018416Y021614D01*
X018492Y021537D01*
X018492Y021307D01*
X018646Y021307D02*
X018185Y021307D01*
X018185Y021537D01*
X018339Y021767D02*
X018185Y021920D01*
X018339Y022074D01*
X018646Y022074D01*
X018646Y022227D02*
X018646Y022457D01*
X018569Y022534D01*
X018262Y022534D01*
X018185Y022457D01*
X018185Y022227D01*
X018646Y022227D01*
X018416Y022074D02*
X018416Y021767D01*
X018339Y021767D02*
X018646Y021767D01*
X018569Y022688D02*
X018646Y022764D01*
X018646Y022918D01*
X018569Y022995D01*
X018492Y022995D01*
X018416Y022918D01*
X018416Y022688D01*
X018569Y022688D01*
X018416Y022688D02*
X018262Y022841D01*
X018185Y022995D01*
X017370Y022940D02*
X017370Y022786D01*
X017293Y022710D01*
X017140Y022710D02*
X017063Y022863D01*
X017063Y022940D01*
X017140Y023017D01*
X017293Y023017D01*
X017370Y022940D01*
X017140Y022710D02*
X016910Y022710D01*
X016910Y023017D01*
X021415Y017200D02*
X021339Y017123D01*
X021339Y016817D01*
X021415Y016740D01*
X021569Y016740D01*
X021645Y016817D01*
X021799Y016740D02*
X022106Y017047D01*
X022106Y017123D01*
X022029Y017200D01*
X021876Y017200D01*
X021799Y017123D01*
X021645Y017123D02*
X021569Y017200D01*
X021415Y017200D01*
X021799Y016740D02*
X022106Y016740D01*
X022259Y016817D02*
X022566Y017123D01*
X022566Y016817D01*
X022489Y016740D01*
X022336Y016740D01*
X022259Y016817D01*
X022259Y017123D01*
X022336Y017200D01*
X022489Y017200D01*
X022566Y017123D01*
X023259Y017123D02*
X023259Y016817D01*
X023335Y016740D01*
X023489Y016740D01*
X023565Y016817D01*
X023719Y016740D02*
X024026Y016740D01*
X023872Y016740D02*
X023872Y017200D01*
X023719Y017047D01*
X023565Y017123D02*
X023489Y017200D01*
X023335Y017200D01*
X023259Y017123D01*
X024179Y017123D02*
X024179Y017047D01*
X024256Y016970D01*
X024486Y016970D01*
X024486Y017123D02*
X024409Y017200D01*
X024256Y017200D01*
X024179Y017123D01*
X024179Y016817D02*
X024256Y016740D01*
X024409Y016740D01*
X024486Y016817D01*
X024486Y017123D01*
X022815Y014365D02*
X022662Y014365D01*
X022585Y014289D01*
X022432Y014289D02*
X022432Y014135D01*
X022355Y014058D01*
X022125Y014058D01*
X022125Y013905D02*
X022125Y014365D01*
X022355Y014365D01*
X022432Y014289D01*
X022278Y014058D02*
X022432Y013905D01*
X022585Y013905D02*
X022892Y014212D01*
X022892Y014289D01*
X022815Y014365D01*
X022892Y013905D02*
X022585Y013905D01*
X022739Y012328D02*
X022739Y011868D01*
X022892Y011868D02*
X022585Y011868D01*
X022432Y011868D02*
X022278Y012021D01*
X022355Y012021D02*
X022125Y012021D01*
X022125Y011868D02*
X022125Y012328D01*
X022355Y012328D01*
X022432Y012251D01*
X022432Y012098D01*
X022355Y012021D01*
X022585Y012175D02*
X022739Y012328D01*
X030798Y012250D02*
X030798Y012097D01*
X030875Y012020D01*
X031182Y012020D01*
X031259Y012097D01*
X031259Y012250D01*
X031182Y012327D01*
X031259Y012480D02*
X031259Y012787D01*
X031259Y012634D02*
X030798Y012634D01*
X030952Y012480D01*
X030875Y012327D02*
X030798Y012250D01*
X031028Y012941D02*
X031028Y013171D01*
X031105Y013247D01*
X031182Y013247D01*
X031259Y013171D01*
X031259Y013017D01*
X031182Y012941D01*
X031028Y012941D01*
X030875Y013094D01*
X030798Y013247D01*
X031878Y013247D02*
X031878Y012941D01*
X032108Y012941D01*
X032032Y013094D01*
X032032Y013171D01*
X032108Y013247D01*
X032262Y013247D01*
X032339Y013171D01*
X032339Y013017D01*
X032262Y012941D01*
X032339Y012787D02*
X032339Y012480D01*
X032339Y012634D02*
X031878Y012634D01*
X032032Y012480D01*
X031955Y012327D02*
X031878Y012250D01*
X031878Y012097D01*
X031955Y012020D01*
X032262Y012020D01*
X032339Y012097D01*
X032339Y012250D01*
X032262Y012327D01*
X032232Y009501D02*
X032539Y009194D01*
X032616Y009270D01*
X032616Y009424D01*
X032539Y009501D01*
X032232Y009501D01*
X032156Y009424D01*
X032156Y009270D01*
X032232Y009194D01*
X032539Y009194D01*
X032616Y009040D02*
X032616Y008733D01*
X032616Y008887D02*
X032156Y008887D01*
X032309Y008733D01*
X032232Y008580D02*
X032156Y008503D01*
X032156Y008350D01*
X032232Y008273D01*
X032539Y008273D01*
X032616Y008350D01*
X032616Y008503D01*
X032539Y008580D01*
X033318Y008810D02*
X033394Y008733D01*
X033701Y008733D01*
X033778Y008810D01*
X033778Y008964D01*
X033701Y009040D01*
X033701Y009194D02*
X033625Y009194D01*
X033548Y009270D01*
X033548Y009424D01*
X033625Y009501D01*
X033701Y009501D01*
X033778Y009424D01*
X033778Y009270D01*
X033701Y009194D01*
X033548Y009270D02*
X033471Y009194D01*
X033394Y009194D01*
X033318Y009270D01*
X033318Y009424D01*
X033394Y009501D01*
X033471Y009501D01*
X033548Y009424D01*
X033394Y009040D02*
X033318Y008964D01*
X033318Y008810D01*
X033378Y005205D02*
X033455Y005205D01*
X033762Y004898D01*
X033839Y004898D01*
X033839Y004745D02*
X033839Y004438D01*
X033839Y004591D02*
X033378Y004591D01*
X033532Y004438D01*
X033455Y004284D02*
X033378Y004208D01*
X033378Y004054D01*
X033455Y003978D01*
X033762Y003978D01*
X033839Y004054D01*
X033839Y004208D01*
X033762Y004284D01*
X032759Y004208D02*
X032759Y004054D01*
X032682Y003978D01*
X032375Y003978D01*
X032298Y004054D01*
X032298Y004208D01*
X032375Y004284D01*
X032452Y004438D02*
X032298Y004591D01*
X032759Y004591D01*
X032759Y004438D02*
X032759Y004745D01*
X032682Y004898D02*
X032605Y004898D01*
X032528Y004975D01*
X032528Y005128D01*
X032605Y005205D01*
X032682Y005205D01*
X032759Y005128D01*
X032759Y004975D01*
X032682Y004898D01*
X032528Y004975D02*
X032452Y004898D01*
X032375Y004898D01*
X032298Y004975D01*
X032298Y005128D01*
X032375Y005205D01*
X032452Y005205D01*
X032528Y005128D01*
X033378Y005205D02*
X033378Y004898D01*
X032759Y004208D02*
X032682Y004284D01*
X029423Y002175D02*
X029423Y002098D01*
X029270Y001944D01*
X029270Y001714D01*
X029270Y001944D02*
X029116Y002098D01*
X029116Y002175D01*
X028963Y002098D02*
X028963Y001944D01*
X028886Y001868D01*
X028656Y001868D01*
X028809Y001868D02*
X028963Y001714D01*
X028656Y001714D02*
X028656Y002175D01*
X028886Y002175D01*
X028963Y002098D01*
X028503Y002175D02*
X028196Y002175D01*
X028196Y001714D01*
X028503Y001714D01*
X028349Y001944D02*
X028196Y001944D01*
X028042Y002175D02*
X027735Y002175D01*
X027582Y002175D02*
X027275Y002175D01*
X027428Y002175D02*
X027428Y001714D01*
X027121Y001714D02*
X027121Y002021D01*
X026968Y002175D01*
X026815Y002021D01*
X026815Y001714D01*
X026661Y001791D02*
X026584Y001714D01*
X026354Y001714D01*
X026354Y002175D01*
X026584Y002175D01*
X026661Y002098D01*
X026661Y002021D01*
X026584Y001944D01*
X026354Y001944D01*
X026584Y001944D02*
X026661Y001868D01*
X026661Y001791D01*
X026815Y001944D02*
X027121Y001944D01*
X027889Y001714D02*
X027889Y002175D01*
X029577Y001944D02*
X029884Y001944D01*
X020911Y004846D02*
X020834Y004769D01*
X020681Y004769D01*
X020604Y004846D01*
X020451Y004769D02*
X020297Y004923D01*
X020374Y004923D02*
X020144Y004923D01*
X020144Y004769D02*
X020144Y005230D01*
X020374Y005230D01*
X020451Y005153D01*
X020451Y005000D01*
X020374Y004923D01*
X020604Y005153D02*
X020681Y005230D01*
X020834Y005230D01*
X020911Y005153D01*
X020911Y005076D01*
X020834Y005000D01*
X020911Y004923D01*
X020911Y004846D01*
X020834Y005000D02*
X020757Y005000D01*
X018209Y000765D02*
X017978Y000765D01*
X017978Y000305D01*
X018209Y000305D01*
X018285Y000382D01*
X018285Y000689D01*
X018209Y000765D01*
X017825Y000765D02*
X017825Y000305D01*
X017518Y000765D01*
X017518Y000305D01*
X017365Y000382D02*
X017365Y000535D01*
X017211Y000535D01*
X017058Y000382D02*
X017058Y000689D01*
X017134Y000765D01*
X017288Y000765D01*
X017365Y000689D01*
X017365Y000382D02*
X017288Y000305D01*
X017134Y000305D01*
X017058Y000382D01*
X015529Y000458D02*
X015529Y000765D01*
X015223Y000765D02*
X015223Y000458D01*
X015376Y000305D01*
X015529Y000458D01*
X015069Y000535D02*
X015069Y000382D01*
X014992Y000305D01*
X014839Y000305D01*
X014762Y000382D01*
X014762Y000535D02*
X014916Y000612D01*
X014992Y000612D01*
X015069Y000535D01*
X015069Y000765D02*
X014762Y000765D01*
X014762Y000535D01*
X013167Y000458D02*
X013167Y000765D01*
X012860Y000765D02*
X012860Y000458D01*
X013014Y000305D01*
X013167Y000458D01*
X012707Y000305D02*
X012400Y000305D01*
X012707Y000612D01*
X012707Y000689D01*
X012630Y000765D01*
X012477Y000765D01*
X012400Y000689D01*
X012093Y000765D02*
X012093Y000305D01*
X011940Y000305D02*
X012247Y000305D01*
X011940Y000612D02*
X012093Y000765D01*
X030558Y016177D02*
X030635Y016100D01*
X030942Y016100D01*
X031019Y016177D01*
X031019Y016330D01*
X030942Y016407D01*
X031019Y016560D02*
X031019Y016867D01*
X031019Y016714D02*
X030558Y016714D01*
X030712Y016560D01*
X030635Y016407D02*
X030558Y016330D01*
X030558Y016177D01*
X030788Y017021D02*
X030788Y017327D01*
X030558Y017251D02*
X030788Y017021D01*
X031019Y017251D02*
X030558Y017251D01*
X031758Y017251D02*
X031758Y017097D01*
X031835Y017021D01*
X031988Y017174D02*
X031988Y017251D01*
X032065Y017327D01*
X032142Y017327D01*
X032219Y017251D01*
X032219Y017097D01*
X032142Y017021D01*
X032219Y016867D02*
X032219Y016560D01*
X032219Y016714D02*
X031758Y016714D01*
X031912Y016560D01*
X031835Y016407D02*
X031758Y016330D01*
X031758Y016177D01*
X031835Y016100D01*
X032142Y016100D01*
X032219Y016177D01*
X032219Y016330D01*
X032142Y016407D01*
X031988Y017251D02*
X031912Y017327D01*
X031835Y017327D01*
X031758Y017251D01*
X031835Y019460D02*
X032142Y019460D01*
X032219Y019537D01*
X032219Y019690D01*
X032142Y019767D01*
X032219Y019920D02*
X032219Y020227D01*
X032219Y020074D02*
X031758Y020074D01*
X031912Y019920D01*
X031835Y019767D02*
X031758Y019690D01*
X031758Y019537D01*
X031835Y019460D01*
X031019Y019537D02*
X031019Y019690D01*
X030942Y019767D01*
X031019Y019920D02*
X031019Y020227D01*
X031019Y020074D02*
X030558Y020074D01*
X030712Y019920D01*
X030635Y019767D02*
X030558Y019690D01*
X030558Y019537D01*
X030635Y019460D01*
X030942Y019460D01*
X031019Y019537D01*
X031019Y020381D02*
X030712Y020687D01*
X030635Y020687D01*
X030558Y020611D01*
X030558Y020457D01*
X030635Y020381D01*
X031019Y020381D02*
X031019Y020687D01*
X031758Y020534D02*
X032219Y020534D01*
X032219Y020381D02*
X032219Y020687D01*
X031912Y020381D02*
X031758Y020534D01*
X007836Y022055D02*
X007529Y022055D01*
X007376Y022208D02*
X007376Y022285D01*
X007376Y022208D02*
X007223Y022055D01*
X007223Y021825D01*
X007223Y022055D02*
X007069Y022208D01*
X007069Y022285D01*
X006916Y022208D02*
X006916Y022055D01*
X006839Y021978D01*
X006609Y021978D01*
X006762Y021978D02*
X006916Y021825D01*
X006609Y021825D02*
X006609Y022285D01*
X006839Y022285D01*
X006916Y022208D01*
X006455Y022285D02*
X006148Y022285D01*
X006148Y021825D01*
X006455Y021825D01*
X006302Y022055D02*
X006148Y022055D01*
X005995Y022285D02*
X005688Y022285D01*
X005535Y022285D02*
X005228Y022285D01*
X005381Y022285D02*
X005381Y021825D01*
X005074Y021825D02*
X005074Y022131D01*
X004921Y022285D01*
X004767Y022131D01*
X004767Y021825D01*
X004614Y021901D02*
X004537Y021825D01*
X004307Y021825D01*
X004307Y022285D01*
X004537Y022285D01*
X004614Y022208D01*
X004614Y022131D01*
X004537Y022055D01*
X004307Y022055D01*
X004537Y022055D02*
X004614Y021978D01*
X004614Y021901D01*
X004767Y022055D02*
X005074Y022055D01*
X005841Y021825D02*
X005841Y022285D01*
X007683Y022208D02*
X007683Y021901D01*
D17*
X008666Y014279D02*
X008966Y014279D01*
X009266Y014279D01*
X009266Y014079D02*
X008966Y014079D01*
X008666Y014079D01*
X020411Y012655D02*
X020465Y012657D01*
X020519Y012662D01*
X020572Y012671D01*
X020625Y012684D01*
X020676Y012700D01*
X020726Y012720D01*
X020775Y012743D01*
X020823Y012769D01*
X020868Y012798D01*
X020911Y012831D01*
X020952Y012866D01*
X020991Y012904D01*
X021027Y012944D01*
X021060Y012987D01*
X021090Y013032D01*
X021117Y013079D01*
X021106Y013852D02*
X021076Y013900D01*
X021043Y013945D01*
X021007Y013988D01*
X020969Y014029D01*
X020927Y014066D01*
X020883Y014101D01*
X020837Y014132D01*
X020788Y014161D01*
X020738Y014185D01*
X020686Y014206D01*
X020632Y014224D01*
X020578Y014237D01*
X020523Y014247D01*
X020467Y014253D01*
X020411Y014255D01*
X020358Y014253D01*
X020304Y014248D01*
X020252Y014239D01*
X020200Y014227D01*
X020149Y014211D01*
X020099Y014192D01*
X020050Y014169D01*
X020003Y014143D01*
X019958Y014115D01*
X019915Y014083D01*
X019875Y014049D01*
X019836Y014011D01*
X019800Y013972D01*
X019796Y012943D02*
X019832Y012903D01*
X019871Y012865D01*
X019912Y012830D01*
X019955Y012798D01*
X020000Y012768D01*
X020047Y012742D01*
X020096Y012720D01*
X020147Y012700D01*
X020198Y012684D01*
X020250Y012671D01*
X020304Y012662D01*
X020357Y012657D01*
X020411Y012655D01*
X020411Y012355D02*
X020467Y012353D01*
X020523Y012347D01*
X020578Y012337D01*
X020632Y012324D01*
X020686Y012306D01*
X020738Y012285D01*
X020788Y012261D01*
X020837Y012232D01*
X020883Y012201D01*
X020927Y012166D01*
X020969Y012129D01*
X021007Y012088D01*
X021043Y012045D01*
X021076Y012000D01*
X021106Y011952D01*
X020411Y012355D02*
X020358Y012353D01*
X020304Y012348D01*
X020252Y012339D01*
X020200Y012327D01*
X020149Y012311D01*
X020099Y012292D01*
X020050Y012269D01*
X020003Y012243D01*
X019958Y012215D01*
X019915Y012183D01*
X019875Y012149D01*
X019836Y012111D01*
X019800Y012072D01*
X020411Y010755D02*
X020465Y010757D01*
X020519Y010762D01*
X020572Y010771D01*
X020625Y010784D01*
X020676Y010800D01*
X020726Y010820D01*
X020775Y010843D01*
X020823Y010869D01*
X020868Y010898D01*
X020911Y010931D01*
X020952Y010966D01*
X020991Y011004D01*
X021027Y011044D01*
X021060Y011087D01*
X021090Y011132D01*
X021117Y011179D01*
X020411Y010755D02*
X020357Y010757D01*
X020304Y010762D01*
X020250Y010771D01*
X020198Y010784D01*
X020147Y010800D01*
X020096Y010820D01*
X020047Y010842D01*
X020000Y010868D01*
X019955Y010898D01*
X019912Y010930D01*
X019871Y010965D01*
X019832Y011003D01*
X019796Y011043D01*
X006786Y004609D02*
X006486Y004609D01*
X006186Y004609D01*
X006186Y004409D02*
X006486Y004409D01*
X006786Y004409D01*
D18*
X028039Y014440D02*
X028135Y014440D01*
X028087Y014440D02*
X028087Y014730D01*
X028039Y014730D02*
X028135Y014730D01*
X028235Y014682D02*
X028283Y014730D01*
X028380Y014730D01*
X028429Y014682D01*
X028530Y014634D02*
X028626Y014730D01*
X028626Y014440D01*
X028530Y014440D02*
X028723Y014440D01*
X028429Y014489D02*
X028380Y014440D01*
X028283Y014440D01*
X028235Y014489D01*
X028235Y014682D01*
D19*
X035196Y013915D03*
X035196Y011935D03*
X035186Y007770D03*
X035186Y005790D03*
X035207Y018081D03*
X035207Y020061D03*
M02*
